<?xml version="1.0" encoding="UTF-8" standalone="no"?>
<!-- Generator: Adobe Illustrator 16.0.4, SVG Export Plug-In . SVG Version: 6.00 Build 0)  -->

<svg
   xmlns:dc="http://purl.org/dc/elements/1.1/"
   xmlns:cc="http://creativecommons.org/ns#"
   xmlns:rdf="http://www.w3.org/1999/02/22-rdf-syntax-ns#"
   xmlns:svg="http://www.w3.org/2000/svg"
   xmlns="http://www.w3.org/2000/svg"
   xmlns:sodipodi="http://sodipodi.sourceforge.net/DTD/sodipodi-0.dtd"
   xmlns:inkscape="http://www.inkscape.org/namespaces/inkscape"
   version="1.1"
   id="レイヤー_1"
   x="0px"
   y="0px"
   width="172"
   height="23"
   viewBox="0 0 172 23"
   enable-background="new 0 0 120 23"
   xml:space="preserve"
   inkscape:version="0.48.5 r10040"
   sodipodi:docname="kan.svg"><metadata
   id="metadata4427"><rdf:RDF><cc:Work
       rdf:about=""><dc:format>image/svg+xml</dc:format><dc:type
         rdf:resource="http://purl.org/dc/dcmitype/StillImage" /></cc:Work></rdf:RDF></metadata><defs
   id="defs4425" /><sodipodi:namedview
   pagecolor="#ffffff"
   bordercolor="#666666"
   borderopacity="1"
   objecttolerance="10"
   gridtolerance="10"
   guidetolerance="10"
   inkscape:pageopacity="0"
   inkscape:pageshadow="2"
   inkscape:window-width="1366"
   inkscape:window-height="706"
   id="namedview4423"
   showgrid="false"
   inkscape:zoom="5.075"
   inkscape:cx="116.41854"
   inkscape:cy="16.507389"
   inkscape:window-x="-8"
   inkscape:window-y="-8"
   inkscape:window-maximized="1"
   inkscape:current-layer="レイヤー_1" />





<text
   xml:space="preserve"
   style="font-size:13.42425632px;font-style:normal;font-weight:normal;line-height:125%;letter-spacing:0px;word-spacing:0px;fill:#f6f6f6;fill-opacity:1;stroke:none;font-family:Sans"
   x="6.7928081"
   y="12.422898"
   id="text4429"
   sodipodi:linespacing="125%"
   transform="scale(0.7536626,1.3268537)"><tspan
     sodipodi:role="line"
     x="6.7928081"
     y="12.422898"
     id="tspan4433"
     style="font-size:13px" /></text>

<flowRoot
   xml:space="preserve"
   id="flowRoot4945"
   style="font-size:11px;font-style:normal;font-weight:normal;line-height:125%;letter-spacing:0px;word-spacing:0px;fill:#000000;fill-opacity:1;stroke:none;font-family:Sans"><flowRegion
     id="flowRegion4947"><rect
       id="rect4949"
       width="392.31528"
       height="103.64532"
       x="32.118225"
       y="-121.23645" /></flowRegion><flowPara
     id="flowPara4951" /></flowRoot><path
   style="fill:#f6f6f6;fill-opacity:1;stroke:#f4f4f4;stroke-opacity:1"
   d="m 4.9261084,1.5221675 -1.9704434,5.5172414 0.591133,0 0.7881774,-3.3497537 z"
   id="path4953"
   inkscape:connector-curvature="0" /><path
   style="fill:#f6f6f6;fill-opacity:1;stroke:#f4f4f4;stroke-opacity:1"
   d="M 3.9408867,4.2807882 12.807882,2.7044335 14.384236,3.2955665 5.7142857,5.2660099 z"
   id="path4955"
   inkscape:connector-curvature="0" /><path
   style="fill:#f6f6f6;fill-opacity:1;stroke:#f4f4f4;stroke-opacity:1"
   d="m 9.2610837,4.2807882 0.7881773,3.3497537 2.758621,8.6699511 1.182266,0.394088 z"
   id="path4957"
   inkscape:connector-curvature="0" /><path
   style="fill:#f6f6f6;fill-opacity:1;stroke:#f4f4f4;stroke-opacity:1"
   d="M 4.137931,10.586207 14.778325,7.4334975 15.566502,6.6453202 17.931034,7.8275862 17.339901,8.6157635 15.369458,8.2216749 5.91133,11.17734 z"
   id="path4959"
   inkscape:connector-curvature="0" /><path
   style="fill:#f6f6f6;fill-opacity:1;stroke:#f4f4f4;stroke-opacity:1"
   d="m 1.3793103,11.17734 1.7733991,1.576355 2.5615763,4.926108 0.3940887,1.773399 -1.9704434,-0.788177 0.1970444,-1.773399 z"
   id="path4961"
   inkscape:connector-curvature="0" /><path
   style="fill:#f6f6f6;fill-opacity:1;stroke:#f4f4f4;stroke-opacity:1"
   d="M 6.3054187,18.270936 20.098522,14.330049 19.1133,6.0541872 21.083744,7.8275862 20.8867,10.192118 20.098522,9.0098522 l 0.591133,6.5024628 -2.167488,0.591133 -5.91133,0.985222 -4.9261079,1.970443 z"
   id="path4963"
   inkscape:connector-curvature="0" /><path
   style="fill:#f6f6f6;fill-opacity:1;stroke:#f4f4f4;stroke-opacity:1"
   d="m 23.842365,9.7980296 0.591133,2.1674874 2.167487,0 0,-1.9704431 z"
   id="path4965"
   inkscape:connector-curvature="0" /><path
   style="fill:#f6f6f6;fill-opacity:1;stroke:#f4f4f4;stroke-opacity:1"
   d="M 32.118227,8.8128079 42.364532,7.2364532 44.53202,6.0541872 46.305419,8.2216749 43.546798,9.0098522 40.591133,7.8275862 32.315271,9.7980296 z"
   id="path4967"
   inkscape:connector-curvature="0" /><path
   style="fill:#f6f6f6;fill-opacity:1;stroke:#f4f4f4;stroke-opacity:1"
   d="m 29.162562,6.4482759 3.152709,11.2315271 1.37931,1.37931 3.546798,0.985222 4.334976,-0.985222 7.093596,-1.773399 2.364532,0 0.394088,-0.985221 -2.75862,-2.364532 -2.167488,2.955665 -10.049261,1.970443 -0.985222,-0.788177 -1.576354,-0.788178 -0.591133,-2.364532 -2.561577,-9.4581278 z"
   id="path4969"
   inkscape:connector-curvature="0" /><path
   style="fill:#f6f6f6;fill-opacity:1;stroke:#f4f4f4;stroke-opacity:1"
   d="m 44.926108,1.7192118 3.940887,6.5024631 0.788177,0.7881773 z"
   id="path4971"
   inkscape:connector-curvature="0" /><path
   style="fill:#f6f6f6;fill-opacity:1;stroke:#f4f4f4;stroke-opacity:1"
   d="m 48.275862,1.9162562 2.955665,6.502463 0.591133,0 z"
   id="path4973"
   inkscape:connector-curvature="0" /><path
   style="fill:#f6f6f6;fill-opacity:1;stroke:#f4f4f4;stroke-opacity:1"
   d="m 54.975369,5.8571429 0.985222,4.137931 7.093596,0.3940891 z"
   id="path4975"
   inkscape:connector-curvature="0" /><path
   style="fill:#f6f6f6;fill-opacity:1;stroke:#f4f4f4;stroke-opacity:1"
   d="m 54.975369,18.270936 4.137931,1.576355 4.729065,-0.591133 1.576354,-0.788178 3.743843,-5.123152 1.576354,-4.1379314 1.576355,-4.7290641 -0.591133,-1.9704433 0.788177,2.955665 0.197045,3.3497537 -2.167488,2.9556651 -1.37931,3.546798 -3.349754,3.940887 -4.926108,2.561576 -2.561577,-0.394089 -2.364532,-1.182266 z"
   id="path4977"
   inkscape:connector-curvature="0" /><path
   style="fill:#f6f6f6;fill-opacity:1;stroke:#f4f4f4;stroke-opacity:1"
   d="m 74.679803,10.389163 -0.197044,2.955665 2.75862,-0.788178 -0.788177,-2.364532 z"
   id="path4979"
   inkscape:connector-curvature="0" /><path
   style="fill:#f6f6f6;fill-opacity:1;stroke:#f4f4f4;stroke-opacity:1"
   d="M 85.123153,3.2955665 83.940887,5.8571429 83.546798,7.8275862 80,11.571429 l -1.37931,0.985221 0,0.394089 L 80,12.753695 l 3.349754,-2.167488 0.788177,-2.3645321 0.985222,-2.955665 1.37931,-0.5911331 0.985222,-1.3793103 -1.970444,-1.9704433 z"
   id="path3631"
   inkscape:connector-curvature="0" /><path
   style="fill:#f6f6f6;fill-opacity:1;stroke:#f4f4f4;stroke-opacity:1"
   d="m 86.699507,4.4778325 2.561577,1.773399 3.349753,2.7586207 0.591133,0.3940887 3.743843,0.9852221 L 98.916256,9.6009852 97.931034,8.8128079 94.187192,8.0246305 91.625616,6.4482759 88.866995,4.4778325 z"
   id="path3633"
   inkscape:connector-curvature="0" /><path
   style="fill:#f6f6f6;fill-opacity:1;stroke:#f4f4f4;stroke-opacity:1"
   d="m 86.305419,7.6305419 -1.182266,0.3940886 0.788177,1.3793104 0.788177,0 0.394089,0 z"
   id="path3635"
   inkscape:connector-curvature="0" /><path
   style="fill:#f6f6f6;fill-opacity:1;stroke:#f4f4f4;stroke-opacity:1"
   d="m 83.349754,10.980296 3.940886,-0.9852221 2.758621,-1.3793104 0.394089,-0.1970443 1.970443,1.182266 0.394089,1.1822658 -0.394089,0.985222 -0.591133,1.37931 -1.37931,1.773399 -1.970444,0.394089 -4.729064,0.788177 2.955665,-0.985221 2.167488,-0.394089 1.773399,-0.985222 1.576355,-2.364532 -1.379311,-0.591133 -0.394088,-0.9852214 -2.758621,0.9852214 -3.743842,1.576355 z"
   id="path3637"
   inkscape:connector-curvature="0" /><path
   style="fill:#f6f6f6;fill-opacity:1;stroke:#f4f4f4;stroke-opacity:1"
   d="m 83.349754,11.571429 0.394088,2.167487 0,0.985222 0.197045,2.364532 0.394088,3.152709 1.970444,0 1.970443,-0.394088 0.394089,-0.591133 0.394088,-0.394089 -1.37931,-1.576355 -0.197044,-0.788177 0.985221,0.591133 0.394089,0.788177 1.182266,0.197045 1.970443,-2.167488 0,0 -0.591133,1.37931 -0.394088,0.591133 -0.394089,0.591133 0,0.591133 0.985222,0.788178 2.167487,0.591133 2.364532,0.394088 2.364532,0 1.576353,-0.394088 0.78818,1.576354 -3.546799,0 -1.970443,-0.394088 -2.561576,-0.197045 -2.758621,-1.773399 -1.37931,1.182266 -2.167488,0.591133 -1.37931,0 -1.182266,0.394089 -2.561577,0 -0.394088,-1.37931 1.773399,-1.182266 0.197044,-3.15271 -0.394089,-2.364532 -0.394088,-0.985221 z"
   id="path3639"
   inkscape:connector-curvature="0" /><path
   style="fill:#f6f6f6;fill-opacity:1;stroke:#f4f4f4;stroke-opacity:1"
   d="m 84.53202,14.133005 3.546798,-1.37931 1.773399,-0.985222 0.788177,0.788177 -1.576355,0.197045 -2.955665,1.37931 z"
   id="path3641"
   inkscape:connector-curvature="0" /><path
   style="fill:#f6f6f6;fill-opacity:1;stroke:#f4f4f4;stroke-opacity:1"
   d="m 106.99507,3.6896551 -3.15271,1.3793104 1.57636,1.3793103 0.59113,1.9704434 2.16749,1.3793103 0.19704,-0.591133 -0.78817,-1.182266 -0.98523,-1.182266 0,-1.773399 z"
   id="path3643"
   inkscape:connector-curvature="0" /><path
   style="fill:#f6f6f6;fill-opacity:1;stroke:#f4f4f4;stroke-opacity:1"
   d="m 106.99507,3.8866995 2.75862,0 2.75862,-1.773399 1.57636,0.3940886 1.7734,1.9704434 -1.18227,0.7881773 0,2.364532 -1.37931,1.5763547 -1.7734,0.9852215 0.98522,-1.5763545 1.97045,-2.364532 -0.98522,-2.1674877 -2.95567,0.3940887 -2.16749,0.1970443 -1.57635,0.3940887 z"
   id="path3645"
   inkscape:connector-curvature="0" /><path
   style="fill:#f6f6f6;fill-opacity:1;stroke:#f4f4f4;stroke-opacity:1"
   d="m 107.78325,9.6009852 3.74384,-0.7881774 1.57636,-0.7881773 1.57635,1.3793104 0,0.3940886 -1.57635,0.3940885 -0.59114,-0.3940885 -2.56157,0 -2.56158,0.9852215 z"
   id="path3647"
   inkscape:connector-curvature="0" /><path
   style="fill:#f6f6f6;fill-opacity:1;stroke:#f4f4f4;stroke-opacity:1"
   d="m 107.88177,14.133005 -3.15271,1.37931 1.57636,1.379311 0.59113,1.970443 2.16749,1.37931 0.19704,-0.591133 -0.78817,-1.182266 -0.98523,-1.182266 0,-1.773399 z"
   id="path3643-5"
   inkscape:connector-curvature="0" /><path
   style="fill:#f6f6f6;fill-opacity:1;stroke:#f4f4f4;stroke-opacity:1"
   d="m 102.95566,14.527093 2.75862,0 2.75862,-1.773399 1.57636,0.394089 1.7734,1.970443 -1.18227,0.788178 0,2.364532 -1.37931,1.576354 -1.7734,0.985222 0.98522,-1.576355 1.97045,-2.364532 -0.98522,-2.167487 -2.95567,0.394088 -2.16749,0.197045 -1.57635,0.394088 z"
   id="path3645-1"
   inkscape:connector-curvature="0" /><path
   style="fill:#f6f6f6;fill-opacity:1;stroke:#f4f4f4;stroke-opacity:1"
   d="m 103.74384,20.241379 3.74384,-0.788177 1.57636,-0.788178 1.57635,1.379311 0,0.394088 -1.57635,0.394089 -0.59114,-0.394089 -2.56157,0 -2.56158,0.985222 z"
   id="path3647-7"
   inkscape:connector-curvature="0" /><path
   style="fill:#f6f6f6;fill-opacity:1;stroke:#f4f4f4;stroke-opacity:1"
   d="m 115.96059,12.950738 -3.15271,1.379311 1.57636,1.37931 0.59113,1.970444 2.16749,1.37931 0.19704,-0.591133 -0.78817,-1.182266 -0.98523,-1.182266 0,-1.773399 z"
   id="path3643-1"
   inkscape:connector-curvature="0" /><path
   style="fill:#f6f6f6;fill-opacity:1;stroke:#f4f4f4;stroke-opacity:1"
   d="m 115.96059,13.147783 2.75862,0 2.75862,-1.773399 1.57636,0.394088 1.7734,1.970444 -1.18227,0.788177 0,2.364532 -1.37931,1.576355 -1.7734,0.985222 0.98522,-1.576355 1.97045,-2.364532 -0.98522,-2.167488 -2.95567,0.394089 -2.16749,0.197044 -1.57635,0.394089 z"
   id="path3645-15"
   inkscape:connector-curvature="0" /><path
   style="fill:#f6f6f6;fill-opacity:1;stroke:#f4f4f4;stroke-opacity:1"
   d="m 116.74877,18.862069 3.74384,-0.788178 1.57636,-0.788177 1.57635,1.37931 0,0.394089 -1.57635,0.394089 -0.59114,-0.394089 -2.56157,0 -2.56158,0.985222 z"
   id="path3647-2"
   inkscape:connector-curvature="0" /><path
   style="fill:#f6f6f6;fill-opacity:1;stroke:#f4f4f4;stroke-opacity:1"
   d="m 129.26108,1.7192118 -4.33497,0.591133 1.37931,1.5763547 1.37931,0.1970443 0.19704,4.7290641 -0.19704,10.8374381 -0.19705,1.576355 -1.18226,0.788177 3.5468,0.197045 0.39409,-0.985222 -1.18227,-1.182266 -0.78818,-10.0492611 0.59114,-2.955665 -0.59114,-3.7438424 z"
   id="path3695"
   inkscape:connector-curvature="0" /><path
   style="fill:#f6f6f6;fill-opacity:1;stroke:#f4f4f4;stroke-opacity:1"
   d="m 129.06404,12.359606 1.37931,1.576355 1.7734,1.37931 0.98522,-0.394089 0.39409,-1.37931 -0.98522,-1.773399 -0.59114,0.591133 -1.57635,-0.197044 z"
   id="path3697"
   inkscape:connector-curvature="0" /><path
   style="fill:#f6f6f6;fill-opacity:1;stroke:#f4f4f4;stroke-opacity:1"
   d="m 138.12808,2.1133005 -3.34975,-0.3940887 0.98522,2.5615764 c 0,0 0.19704,2.5615763 0.19704,3.3497537 0,0.7881773 0.59113,12.2167491 0.59113,12.2167491 l -0.78817,1.576354 2.95566,0.394089 5.12315,-1.970443 2.56158,-2.167488 1.57636,-2.561576 0.59113,-2.758621 -0.78818,-2.5615764 -0.19704,1.5763544 0,1.773399 0,2.758621 -1.97045,1.182266 -3.54679,1.970443 -2.36454,0.985222 -0.59113,-2.167488 -0.78818,-4.926108 -0.39409,-4.7290641 -0.19704,-3.3497537 0.59113,-1.3793104 z"
   id="path3699"
   inkscape:connector-curvature="0" /><path
   style="fill:#f6f6f6;fill-opacity:1;stroke:#f4f4f4;stroke-opacity:1"
   d="m 162.16749,2.1133005 -2.56158,0.1970443 0.39409,0.591133 -0.98522,2.7586207 -1.18227,1.9704434 -1.97044,1.773399 c 0,0 -0.19705,0.3940887 -1.18227,1.1822661 -0.98522,0.788177 -0.98522,0.788177 -1.7734,1.182266 -0.78817,0.394089 -0.98522,0.591133 -0.98522,0.591133 l -0.98522,0.591133 3.15271,-0.788177 4.13793,-2.5615768 3.15271,-3.3497537 1.18227,-3.1527093 z"
   id="path3701"
   inkscape:connector-curvature="0" /><path
   style="fill:#f6f6f6;fill-opacity:1;stroke:#f4f4f4;stroke-opacity:1"
   d="m 158.62069,9.4039409 -1.18227,0.591133 0.59114,1.7733991 0,2.167488 0,4.532019 -0.78818,0.985222 4.53202,0.985222 -0.59113,-1.379311 -1.18227,-1.37931 -0.19704,-5.517241 0,-2.3645324 z"
   id="path3703"
   inkscape:connector-curvature="0" /></svg>
