<?xml version="1.0" encoding="UTF-8" standalone="no"?>
<!-- Generator: Adobe Illustrator 16.0.4, SVG Export Plug-In . SVG Version: 6.00 Build 0)  -->

<svg
   xmlns:dc="http://purl.org/dc/elements/1.1/"
   xmlns:cc="http://creativecommons.org/ns#"
   xmlns:rdf="http://www.w3.org/1999/02/22-rdf-syntax-ns#"
   xmlns:svg="http://www.w3.org/2000/svg"
   xmlns="http://www.w3.org/2000/svg"
   xmlns:sodipodi="http://sodipodi.sourceforge.net/DTD/sodipodi-0.dtd"
   xmlns:inkscape="http://www.inkscape.org/namespaces/inkscape"
   version="1.1"
   id="レイヤー_1"
   x="0px"
   y="0px"
   width="202"
   height="23"
   viewBox="0 0 202 23"
   enable-background="new 0 0 120 23"
   xml:space="preserve"
   inkscape:version="0.48.5 r10040"
   sodipodi:docname="kan.svg"><metadata
   id="metadata4427"><rdf:RDF><cc:Work
       rdf:about=""><dc:format>image/svg+xml</dc:format><dc:type
         rdf:resource="http://purl.org/dc/dcmitype/StillImage" /></cc:Work></rdf:RDF></metadata><defs
   id="defs4425" /><sodipodi:namedview
   pagecolor="#ffffff"
   bordercolor="#666666"
   borderopacity="1"
   objecttolerance="10"
   gridtolerance="10"
   guidetolerance="10"
   inkscape:pageopacity="0"
   inkscape:pageshadow="2"
   inkscape:window-width="1366"
   inkscape:window-height="706"
   id="namedview4423"
   showgrid="false"
   inkscape:zoom="5.075"
   inkscape:cx="95.373386"
   inkscape:cy="16.507389"
   inkscape:window-x="-8"
   inkscape:window-y="-8"
   inkscape:window-maximized="1"
   inkscape:current-layer="flowRoot3081" />





<text
   xml:space="preserve"
   style="font-size:13.42425632px;font-style:normal;font-weight:normal;line-height:125%;letter-spacing:0px;word-spacing:0px;fill:#f6f6f6;fill-opacity:1;stroke:none;font-family:Sans"
   x="6.7928081"
   y="12.422898"
   id="text4429"
   sodipodi:linespacing="125%"
   transform="scale(0.7536626,1.3268537)"><tspan
     sodipodi:role="line"
     x="6.7928081"
     y="12.422898"
     id="tspan4433"
     style="font-size:13px" /></text>


<flowRoot
   xml:space="preserve"
   id="flowRoot4945"
   style="font-size:11px;font-style:normal;font-weight:normal;line-height:125%;letter-spacing:0px;word-spacing:0px;fill:#000000;fill-opacity:1;stroke:none;font-family:Sans"><flowRegion
     id="flowRegion4947"><rect
       id="rect4949"
       width="392.31528"
       height="103.64532"
       x="32.118225"
       y="-121.23645" /></flowRegion><flowPara
     id="flowPara4951" /></flowRoot><flowRoot
   xml:space="preserve"
   id="flowRoot3073"
   style="font-size:11px;font-style:normal;font-weight:normal;line-height:125%;letter-spacing:0px;word-spacing:0px;fill:#000000;fill-opacity:1;stroke:none;font-family:Sans"><flowRegion
     id="flowRegion3075"><rect
       id="rect3077"
       width="229.16257"
       height="53.201969"
       x="-7.093596"
       y="-16.211823" /></flowRegion><flowPara
     id="flowPara3079"></flowPara></flowRoot><g
   transform="translate(6,8)"
   style="font-size:11px;font-style:normal;font-weight:normal;line-height:125%;letter-spacing:0px;word-spacing:0px;fill:#f2f2f2;fill-opacity:1;stroke:none;font-family:Sans"
   id="flowRoot3081"><path
     d="m 7.71875,-5.109375 c 0.5208194,-0.2604011 0.911444,-0.1562345 1.171875,0.3125 0.4687349,0.9375141 0.8593595,1.66668 1.171875,2.1875 0.677067,1.145845 1.588524,2.42188539 2.734375,3.828125 0.260398,0.3125087 0.442689,0.5468834 0.546875,0.703125 0.156231,0.4166745 0.07811,0.7552159 -0.234375,1.015625 -0.416685,0.1562571 -0.755226,0.078132 -1.015625,-0.234375 -0.6771,-0.8854083 -1.588558,-2.34374016 -2.734375,-4.375 0.4166512,1.35417719 0.677068,2.39584281 0.78125,3.125 0.156234,0.8333413 0.234359,1.7447987 0.234375,2.734375 -1.6e-5,2.6562534 -0.7031404,4.6093764 -2.109375,5.859375 -1.2500127,1.041666 -2.9166777,1.562499 -5,1.5625 C 1.0781182,11.609374 -0.56250516,11.062499 -1.65625,9.96875 -2.8541695,8.822918 -3.4531273,7.3125029 -3.453125,5.4375 c -2.3e-6,-0.9374943 0.2604141,-2.0572848 0.78125,-3.359375 0.7812462,-1.71874016 2.13541148,-3.5937383 4.0625,-5.625 C 0.34895227,-3.3385281 -0.718755,-3.1562366 -1.8125,-3 c -0.7812531,0.1041798 -1.3802109,0.156263 -1.796875,0.15625 -0.4687516,1.3e-5 -0.7031264,-0.2343617 -0.703125,-0.703125 -1.4e-6,-0.4687358 0.2343734,-0.7031105 0.703125,-0.703125 0.8854137,1.45e-5 1.6666629,-0.026027 2.34375,-0.078125 1.14582773,-0.104152 2.10936844,-0.2343602 2.890625,-0.390625 0.4687422,-0.1041516 0.8072835,1.49e-5 1.015625,0.3125 0.260408,0.3645976 0.260408,0.7291805 0,1.09375 -1.77083992,1.9270949 -3.04688031,3.67188484 -3.828125,5.234375 -0.5729206,1.3020903 -0.8593787,2.5260474 -0.859375,3.671875 -3.7e-6,1.3541699 0.4687459,2.5000021 1.40625,3.4375 0.98957727,0.9375002 2.2916593,1.40625 3.90625,1.40625 1.9270724,0 3.4114459,-0.5729163 4.453125,-1.71875 C 8.6041523,7.5729193 9.0468602,6.0364625 9.046875,4.109375 9.0468602,2.4427161 8.916652,1.0364675 8.65625,-0.109375 c -0.3125141,-1.1979052 -0.755222,-2.4479039 -1.328125,-3.75 -0.2604295,-0.572902 -0.1302213,-0.9895683 0.390625,-1.25 z m 4.140625,-1.25 c 0.208316,-0.10415 0.416649,-0.052067 0.625,0.15625 0.572898,0.5729325 1.119772,1.3020984 1.640625,2.1875 0.05206,0.3125139 -2e-5,0.5468887 -0.15625,0.703125 -0.260436,0.1562634 -0.494811,0.1041801 -0.703125,-0.15625 -0.312519,-0.5729024 -0.80731,-1.32811 -1.484375,-2.265625 -0.156267,-0.2604005 -0.130226,-0.4687336 0.07813,-0.625 z m -1.875,0.78125 c 0.208317,-0.1041508 0.416651,-0.052067 0.625,0.15625 0.5729,0.5729317 1.119774,1.3020977 1.640625,2.1875 0.156232,0.3125131 0.104149,0.5729295 -0.15625,0.78125 -0.312517,0.1041792 -0.546892,0.026054 -0.703125,-0.234375 -0.312517,-0.5729032 -0.807308,-1.3281108 -1.484375,-2.265625 -0.1562655,-0.2604012 -0.1302238,-0.4687344 0.078125,-0.625 z"
     style="font-size:20px;font-variant:normal;font-stretch:normal;fill:#f2f2f2;font-family:HGMaruGothicMPRO;-inkscape-font-specification:HGMaruGothicMPRO"
     id="path3098" /><path
     d="m 22.484375,-5.1875 c 0.208325,-0.3124843 0.520825,-0.4166509 0.9375,-0.3125 0.416657,0.2083488 0.546865,0.5208485 0.390625,0.9375 -0.677092,1.3541801 -1.380216,2.7864703 -2.109375,4.296875 C 21.078118,0.88021766 20.427077,2.2083413 19.75,3.71875 c 1.04166,-0.9895759 1.979159,-1.7187418 2.8125,-2.1875 0.677074,-0.4166576 1.354157,-0.6249907 2.03125,-0.625 0.833322,9.3e-6 1.484363,0.2604257 1.953125,0.78125 0.416654,0.468758 0.624987,1.1197991 0.625,1.953125 -1.3e-5,0.7291725 -0.130221,1.9010463 -0.390625,3.515625 -0.0521,0.2604195 -0.07814,0.5468775 -0.07813,0.859375 -1.2e-5,0.7812514 0.234362,1.3281259 0.703125,1.640625 0.260403,0.1562504 0.598945,0.2343753 1.015625,0.234375 0.833318,3e-7 1.588526,-0.5729158 2.265625,-1.71875 0.624983,-1.1979134 1.041649,-2.7083286 1.25,-4.53125 0.05207,-0.468743 0.312482,-0.6770761 0.78125,-0.625 0.364565,0.05209 0.546856,0.2864652 0.546875,0.703125 -0.104186,1.4062551 -0.390644,2.7604204 -0.859375,4.0625 -0.520851,1.2500012 -1.093767,2.135417 -1.71875,2.65625 -0.677099,0.520833 -1.458348,0.781249 -2.34375,0.78125 -0.677097,-10e-7 -1.328138,-0.208334 -1.953125,-0.625 C 25.71353,9.9687502 25.374989,9.1614594 25.375,8.171875 c -1.1e-5,-0.3124977 0.02603,-0.651039 0.07813,-1.015625 0.208322,-1.4583288 0.312489,-2.4739528 0.3125,-3.046875 -1.1e-5,-1.2499927 -0.494803,-1.874992 -1.484375,-1.875 -0.885426,8e-6 -1.875008,0.4947991 -2.96875,1.484375 -0.989589,0.833339 -1.95313,2.1093794 -2.890625,3.828125 -0.41667,0.8854184 -0.833337,1.8489591 -1.25,2.890625 -0.208336,0.520833 -0.572919,0.703124 -1.09375,0.546875 -0.416668,-0.260417 -0.546876,-0.625 -0.390625,-1.09375 l 0.625,-1.484375 c 1.406247,-3.3854115 2.812495,-6.5104084 4.21875,-9.375 0.624993,-1.3541541 1.276034,-2.7604027 1.953125,-4.21875 z"
     style="font-size:20px;font-variant:normal;font-stretch:normal;fill:#f2f2f2;font-family:HGMaruGothicMPRO;-inkscape-font-specification:HGMaruGothicMPRO"
     id="path3100" /><path
     d="M 46,1.453125 C 46.468738,1.9218833 46.703113,2.4687577 46.703125,3.09375 46.703113,3.7187565 46.468738,4.2656309 46,4.734375 45.479155,5.2552133 44.906239,5.5156297 44.28125,5.515625 43.656241,5.5156297 43.083325,5.2552133 42.5625,4.734375 42.093742,4.2656309 41.859367,3.7187565 41.859375,3.09375 c -8e-6,-0.6249923 0.234367,-1.1718667 0.703125,-1.640625 0.520825,-0.52082406 1.093741,-0.78124047 1.71875,-0.78125 0.624989,9.53e-6 1.197905,0.26042594 1.71875,0.78125 z"
     style="font-size:20px;font-variant:normal;font-stretch:normal;fill:#f2f2f2;font-family:HGMaruGothicMPRO;-inkscape-font-specification:HGMaruGothicMPRO"
     id="path3102" /><path
     d="m 58.8125,-6.046875 c 0.364578,1.63e-5 0.572912,0.234391 0.625,0.703125 -5e-6,0.4166818 -0.05209,0.833348 -0.15625,1.25 l 11.875,0 c 0.416649,1.43e-5 0.624983,0.1823058 0.625,0.546875 -1.7e-5,0.3645967 -0.208351,0.5468882 -0.625,0.546875 l -6.25,0 0,4.609375 7.734375,0 c 0.416648,8.6e-6 0.624981,0.1823001 0.625,0.546875 -1.9e-5,0.364591 -0.208352,0.5468825 -0.625,0.546875 l -7.734375,0 0,7.5 4.765625,0 c 0.468734,0 0.703109,-0.2343748 0.703125,-0.703125 l 0,-4.765625 c -1.6e-5,-0.5208273 0.234359,-0.7812438 0.703125,-0.78125 0.468733,6.2e-6 0.703108,0.2604227 0.703125,0.78125 l 0,4.765625 c -1.7e-5,1.197916 -0.598975,1.796874 -1.796875,1.796875 l -11.5625,0 C 57.223955,11.296874 56.624998,10.697916 56.625,9.5 l 0,-4.765625 c -2e-6,-0.5208273 0.234372,-0.7812438 0.703125,-0.78125 0.468746,6.2e-6 0.703121,0.2604227 0.703125,0.78125 l 0,4.765625 c -4e-6,0.4687502 0.234371,0.703125 0.703125,0.703125 l 4.765625,0 0,-7.5 -7.65625,0 c -0.416668,7.5e-6 -0.625001,-0.182284 -0.625,-0.546875 -10e-7,-0.3645749 0.208332,-0.5468664 0.625,-0.546875 l 7.65625,0 L 63.5,-3 59.046875,-3 c -0.312504,1.1979287 -1.093754,2.42188578 -2.34375,3.671875 -0.364585,0.26042594 -0.677085,0.26042594 -0.9375,0 -0.260418,-0.26040687 -0.234376,-0.57290656 0.07813,-0.9375 1.406247,-1.3541548 2.161455,-3.0729031 2.265625,-5.15625 0.05208,-0.4166506 0.286454,-0.6249837 0.703125,-0.625 z"
     style="font-size:20px;font-variant:normal;font-stretch:normal;fill:#f2f2f2;font-family:HGMaruGothicMPRO;-inkscape-font-specification:HGMaruGothicMPRO"
     id="path3104" /><path
     d="M 86,1.453125 C 86.468738,1.9218833 86.703113,2.4687577 86.703125,3.09375 86.703113,3.7187565 86.468738,4.2656309 86,4.734375 85.479155,5.2552133 84.906239,5.5156297 84.28125,5.515625 83.656241,5.5156297 83.083325,5.2552133 82.5625,4.734375 82.093742,4.2656309 81.859367,3.7187565 81.859375,3.09375 c -8e-6,-0.6249923 0.234367,-1.1718667 0.703125,-1.640625 0.520825,-0.52082406 1.093741,-0.78124047 1.71875,-0.78125 0.624989,9.53e-6 1.197905,0.26042594 1.71875,0.78125 z"
     style="font-size:20px;font-variant:normal;font-stretch:normal;fill:#f2f2f2;font-family:HGMaruGothicMPRO;-inkscape-font-specification:HGMaruGothicMPRO"
     id="path3106" /><path
     d="m 103.73438,-2.609375 c -1e-5,-0.4166534 0.18228,-0.6249866 0.54687,-0.625 0.36457,1.34e-5 0.54686,0.2083466 0.54688,0.625 l 0,1.640625 3.98437,0 c 0.31249,1.117e-5 0.59894,0.13021938 0.85938,0.390625 0.2604,0.26042719 0.3906,0.54688523 0.39062,0.859375 l 0,4.140625 c -2e-5,0.3125055 -0.13022,0.5989635 -0.39062,0.859375 -0.26044,0.2604213 -0.54689,0.3906295 -0.85938,0.390625 l -4.84375,0 c 0.78124,0.9375036 1.58853,1.7187528 2.42188,2.34375 1.92706,-0.8333303 3.5156,-1.6666628 4.76562,-2.5 0.41665,-0.2604117 0.75519,-0.2343701 1.01563,0.078125 0.26039,0.4687541 0.10414,0.8593787 -0.46875,1.171875 -1.09377,0.6250028 -2.57814,1.2760438 -4.45313,1.953125 1.66665,0.8854173 3.41144,1.432292 5.23438,1.640625 0.52081,0.104166 0.75518,0.364583 0.70312,0.78125 -0.10419,0.520832 -0.52085,0.729165 -1.25,0.625 -3.75001,-0.520834 -6.87501,-2.5520823 -9.375,-6.09375 l -3.28125,0 0,4.53125 c 1.09374,-0.15625 2.60416,-0.4947912 4.53125,-1.015625 0.36457,-0.1041655 0.62499,10e-7 0.78125,0.3125 0.10416,0.3645837 -0.026,0.625 -0.39062,0.78125 -2.29168,0.833332 -4.765635,1.380207 -7.42188,1.640625 -0.572919,0.05208 -0.885418,-0.156252 -0.9375,-0.625 -2e-6,-0.468751 0.234373,-0.729167 0.703125,-0.78125 0.67708,-0.05208 1.223955,-0.104167 1.640625,-0.15625 l 0,-10.078125 c -4e-6,-0.31248977 0.130204,-0.59894781 0.390625,-0.859375 0.260412,-0.26040562 0.54687,-0.39061383 0.859375,-0.390625 l 4.29688,0 z M 105.45313,-5.5 c 2.18748,1.4583476 4.60935,2.5000132 7.26562,3.125 0.5729,0.1562624 0.83331,0.4427205 0.78125,0.859375 -0.10419,0.52084453 -0.54689,0.70313602 -1.32812,0.546875 -2.50002,-0.6770715 -5.0521,-1.9010286 -7.65625,-3.671875 -0.20835,-0.1041517 -0.39064,-0.1041517 -0.54688,0 -2.23959,1.7708464 -4.869796,3.0468868 -7.890625,3.828125 -0.625001,0.15626086 -0.963543,0.0260527 -1.015625,-0.390625 -10e-7,-0.3124883 0.182291,-0.5208214 0.546875,-0.625 2.812496,-0.6770706 5.208325,-1.8489445 7.187505,-3.515625 0.83332,-0.7812337 1.71873,-0.833317 2.65625,-0.15625 z m -6.17188,10.078125 9.0625,0 c 0.41665,5.6e-6 0.62499,-0.2083275 0.625,-0.625 l 0,-1.171875 -9.6875,0 z m 0,-3.828125 0,1.09375 9.6875,0 0,-1.09375 c -1e-5,-0.4166568 -0.20835,-0.62498992 -0.625,-0.625 l -8.4375,0 c -0.416672,1.008e-5 -0.625005,0.2083432 -0.625,0.625 z"
     style="font-size:20px;font-variant:normal;font-stretch:normal;fill:#f2f2f2;font-family:HGMaruGothicMPRO;-inkscape-font-specification:HGMaruGothicMPRO"
     id="path3108" /><path
     d="m 117.01563,5.203125 0,4.765625 c -1e-5,0.416666 0.20833,0.625 0.625,0.625 l 3.67187,0 c 0.41666,0 0.62499,-0.208334 0.625,-0.625 l 0,-4.765625 c -1e-5,-0.4166613 -0.20834,-0.6249944 -0.625,-0.625 l -3.67187,0 c -0.41667,5.6e-6 -0.62501,0.2083387 -0.625,0.625 z m 14.37499,-1.71875 c 0.31249,6.7e-6 0.59895,0.1302149 0.85938,0.390625 0.2604,0.2604227 0.39061,0.5468808 0.39062,0.859375 l 0,5.703125 c -1e-5,0.312499 -0.13022,0.598957 -0.39062,0.859375 -0.26043,0.260415 -0.54689,0.390624 -0.85938,0.390625 l -4.53124,0 c -0.31252,-10e-7 -0.59898,-0.13021 -0.85938,-0.390625 -0.26043,-0.260418 -0.39064,-0.546876 -0.39062,-0.859375 l 0,-5.703125 C 125.60936,4.4218808 125.73957,4.1354227 126,3.875 c 0.2604,-0.2604101 0.54686,-0.3906183 0.85938,-0.390625 z m -4.68749,1.71875 0,4.765625 c -2e-5,0.416666 0.20832,0.625 0.625,0.625 l 3.59374,0 c 0.41665,0 0.62499,-0.208334 0.625,-0.625 l 0,-4.765625 c -1e-5,-0.4166613 -0.20835,-0.6249944 -0.625,-0.625 l -3.59374,0 c -0.41668,5.6e-6 -0.62502,0.2083387 -0.625,0.625 z m -4.92188,-1.71875 c 0.31249,6.7e-6 0.59895,0.1302149 0.85938,0.390625 0.2604,0.2604227 0.39061,0.5468808 0.39062,0.859375 l 0,5.703125 c -1e-5,0.312499 -0.13022,0.598957 -0.39062,0.859375 -0.26043,0.260415 -0.54689,0.390624 -0.85938,0.390625 l -4.60937,0 c -0.31251,-10e-7 -0.59897,-0.13021 -0.85938,-0.390625 -0.26042,-0.260418 -0.39063,-0.546876 -0.39062,-0.859375 l 0,-5.703125 c -1e-5,-0.3124942 0.1302,-0.5989523 0.39062,-0.859375 0.26041,-0.2604101 0.54687,-0.3906183 0.85938,-0.390625 z m -2.8125,-7.109375 0,3.515625 c 0,0.41667656 0.20833,0.62500969 0.625,0.625 l 9.45312,0 c 0.41666,9.69e-6 0.62499,-0.20832344 0.625,-0.625 l 0,-3.515625 c -1e-5,-0.4166524 -0.20834,-0.6249855 -0.625,-0.625 l -9.45312,0 c -0.41667,1.45e-5 -0.625,0.2083476 -0.625,0.625 z m 10.85937,-1.71875 c 0.31249,1.55e-5 0.59895,0.1302238 0.85938,0.390625 0.2604,0.2604316 0.39061,0.5468896 0.39062,0.859375 l 0,4.453125 c -1e-5,0.31250953 -0.13022,0.59896758 -0.39062,0.859375 -0.26043,0.2604254 -0.54689,0.3906336 -0.85938,0.390625 l -11.01562,0 C 118.5,1.6093836 118.21354,1.4791754 117.95313,1.21875 117.6927,0.95834258 117.5625,0.67188453 117.5625,0.359375 l 0,-4.453125 c 0,-0.3124854 0.1302,-0.5989434 0.39063,-0.859375 0.26041,-0.2604012 0.54687,-0.3906095 0.85937,-0.390625 z"
     style="font-size:20px;font-variant:normal;font-stretch:normal;fill:#f2f2f2;font-family:HGMaruGothicMPRO;-inkscape-font-specification:HGMaruGothicMPRO"
     id="path3110" /><path
     d="m 141.15625,-5.65625 c 0.46874,1.59e-5 0.70312,0.2604323 0.70312,0.78125 l 0,5.15625 c 2.49999,0.46875945 4.5052,0.937509 6.01563,1.40625 1.30207,0.3645915 2.49998,0.7812577 3.59375,1.25 0.46873,0.2604237 0.62498,0.6510483 0.46875,1.171875 -0.20835,0.4166723 -0.57293,0.5468805 -1.09375,0.390625 -2.91668,-1.3020763 -5.91147,-2.265617 -8.98438,-2.890625 l 0,9.296875 c 0,0.520832 -0.23438,0.781249 -0.70312,0.78125 -0.46876,-10e-7 -0.70313,-0.260418 -0.70313,-0.78125 l 0,-15.78125 c 0,-0.5208177 0.23437,-0.7812341 0.70313,-0.78125 z"
     style="font-size:20px;font-variant:normal;font-stretch:normal;fill:#f2f2f2;font-family:HGMaruGothicMPRO;-inkscape-font-specification:HGMaruGothicMPRO"
     id="path3112" /><path
     d="m 157.64062,-4.328125 c 0,-0.5208183 0.23438,-0.7812347 0.70313,-0.78125 0.46875,1.53e-5 0.70312,0.2604317 0.70312,0.78125 l 0,12.03125 c 0,1.0416681 0.59896,1.5625009 1.79688,1.5625 2.44791,9e-7 4.94791,-1.2760395 7.5,-3.828125 1.24998,-1.249994 2.26561,-2.7864508 3.04687,-4.609375 0.15624,-0.31249031 0.41665,-0.41665687 0.78125,-0.3125 0.41665,0.15625953 0.54686,0.44271758 0.39063,0.859375 -0.88543,2.1354234 -2.03127,3.9062549 -3.4375,5.3125 -2.70835,2.7083341 -5.59897,4.062499 -8.67188,4.0625 -1.875,-10e-7 -2.8125,-0.8854163 -2.8125,-2.65625 z"
     style="font-size:20px;font-variant:normal;font-stretch:normal;fill:#f2f2f2;font-family:HGMaruGothicMPRO;-inkscape-font-specification:HGMaruGothicMPRO"
     id="path3114" /><path
     d="m 190.84375,-4.875 c 0.36457,0.3125148 0.41665,0.6770977 0.15625,1.09375 -1.14585,1.5625124 -2.91668,3.09896922 -5.3125,4.609375 l 0,10 c -1e-5,0.520832 -0.23439,0.781249 -0.70313,0.78125 -0.46876,-10e-7 -0.70313,-0.260418 -0.70312,-0.78125 l 0,-9.21875 c -1.77084,0.9895909 -4.19271,1.8489651 -7.26563,2.578125 -0.41666,6e-6 -0.67708,-0.1562438 -0.78125,-0.46875 -0.0521,-0.3645765 0.0781,-0.6249929 0.39063,-0.78125 2.70833,-0.6249921 5.1302,-1.5364495 7.26562,-2.734375 2.03124,-1.14582219 3.95832,-2.8124872 5.78125,-5 0.36457,-0.364568 0.7552,-0.3906096 1.17188,-0.078125 z"
     style="font-size:20px;font-variant:normal;font-stretch:normal;fill:#f2f2f2;font-family:HGMaruGothicMPRO;-inkscape-font-specification:HGMaruGothicMPRO"
     id="path3116" /></g></svg>
