<?xml version="1.0" encoding="UTF-8" standalone="no"?>
<!-- Generator: Adobe Illustrator 16.0.4, SVG Export Plug-In . SVG Version: 6.00 Build 0)  -->

<svg
   xmlns:dc="http://purl.org/dc/elements/1.1/"
   xmlns:cc="http://creativecommons.org/ns#"
   xmlns:rdf="http://www.w3.org/1999/02/22-rdf-syntax-ns#"
   xmlns:svg="http://www.w3.org/2000/svg"
   xmlns="http://www.w3.org/2000/svg"
   xmlns:sodipodi="http://sodipodi.sourceforge.net/DTD/sodipodi-0.dtd"
   xmlns:inkscape="http://www.inkscape.org/namespaces/inkscape"
   version="1.1"
   id="レイヤー_1"
   x="0px"
   y="0px"
   width="131"
   height="23"
   viewBox="0 0 131 23"
   enable-background="new 0 0 120 23"
   xml:space="preserve"
   inkscape:version="0.48.5 r10040"
   sodipodi:docname="kosi.svg"><metadata
   id="metadata4427"><rdf:RDF><cc:Work
       rdf:about=""><dc:format>image/svg+xml</dc:format><dc:type
         rdf:resource="http://purl.org/dc/dcmitype/StillImage" /><dc:title /></cc:Work></rdf:RDF></metadata><defs
   id="defs4425" /><sodipodi:namedview
   pagecolor="#ffffff"
   bordercolor="#666666"
   borderopacity="1"
   objecttolerance="10"
   gridtolerance="10"
   guidetolerance="10"
   inkscape:pageopacity="0"
   inkscape:pageshadow="2"
   inkscape:window-width="1366"
   inkscape:window-height="706"
   id="namedview4423"
   showgrid="false"
   inkscape:zoom="3.5885669"
   inkscape:cx="76.011823"
   inkscape:cy="16.507389"
   inkscape:window-x="-8"
   inkscape:window-y="-8"
   inkscape:window-maximized="1"
   inkscape:current-layer="flowRoot3202" />





<text
   xml:space="preserve"
   style="font-size:13.42425632px;font-style:normal;font-weight:normal;line-height:125%;letter-spacing:0px;word-spacing:0px;fill:#f6f6f6;fill-opacity:1;stroke:none;font-family:Sans"
   x="6.7928081"
   y="12.422898"
   id="text4429"
   sodipodi:linespacing="125%"
   transform="scale(0.7536626,1.3268537)"><tspan
     sodipodi:role="line"
     x="6.7928081"
     y="12.422898"
     id="tspan4433"
     style="font-size:13px" /></text>



<flowRoot
   xml:space="preserve"
   id="flowRoot4945"
   style="font-size:11px;font-style:normal;font-weight:normal;line-height:125%;letter-spacing:0px;word-spacing:0px;fill:#000000;fill-opacity:1;stroke:none;font-family:Sans"><flowRegion
     id="flowRegion4947"><rect
       id="rect4949"
       width="392.31528"
       height="103.64532"
       x="32.118225"
       y="-121.23645" /></flowRegion><flowPara
     id="flowPara4951" /></flowRoot><g
   transform="translate(10,6)"
   style="font-size:11px;font-style:normal;font-weight:normal;line-height:125%;letter-spacing:0px;word-spacing:0px;fill:#000000;fill-opacity:1;stroke:none;font-family:Sans"
   id="flowRoot3202"><path
     d="m 4.84375,-4.625 c -1.13e-5,-0.6249808 0.2812385,-0.9374805 0.84375,-0.9375 0.5624873,1.95e-5 0.8437371,0.3125192 0.84375,0.9375 l 0,2.8125 9.09375,0 c 0.499977,1.58e-5 0.749977,0.2187655 0.75,0.65625 -2.3e-5,0.43751466 -0.250023,0.65626444 -0.75,0.65625 l -9.09375,0 0,4.59375 6.46875,0 c 0.37498,9.8e-6 0.74998,0.1875097 1.125,0.5625 0.374979,0.3750089 0.562479,0.7500085 0.5625,1.125 l 0,7.96875 c -2.1e-5,0.375 -0.187521,0.749999 -0.5625,1.125 -0.37502,0.374999 -0.75002,0.562499 -1.125,0.5625 l -14.8125,0 c -0.3750042,-10e-7 -0.7500038,-0.187501 -1.125,-0.5625 C -3.3125031,14.499999 -3.5000029,14.125 -3.5,13.75 l 0,-7.96875 c -2.9e-6,-0.3749915 0.1874969,-0.7499911 0.5625,-1.125 0.3749962,-0.3749903 0.7499958,-0.5624902 1.125,-0.5625 l 6.65625,0 0,-4.59375 -9.09375,0 c -0.5000017,1.444e-5 -0.7500014,-0.21873534 -0.75,-0.65625 -1.4e-6,-0.4374845 0.2499983,-0.6562342 0.75,-0.65625 l 9.09375,0 z M -0.96875,5.40625 C -1.5312549,5.4062585 -1.8125046,5.6875083 -1.8125,6.25 l 0,7.03125 c -4.6e-6,0.5625 0.2812451,0.84375 0.84375,0.84375 l 13.125,0 c 0.562481,0 0.843731,-0.28125 0.84375,-0.84375 L 13,6.25 C 12.999981,5.6875083 12.718731,5.4062585 12.15625,5.40625 z"
     style="font-size:24px;font-variant:normal;font-stretch:normal;font-family:HGMaruGothicMPRO;-inkscape-font-specification:HGMaruGothicMPRO;fill:#f2f2f2"
     id="path3211" /><path
     d="m 23.875,-5.375 c 0.437493,0.2500191 0.531243,0.6250187 0.28125,1.125 -0.687506,1.2500169 -1.593755,2.6250156 -2.71875,4.125 l 1.96875,1.78125 c 0.999993,-1.24998647 1.874992,-2.53123519 2.625,-3.84375 0.249991,-0.4374834 0.593741,-0.5937333 1.03125,-0.46875 0.43749,0.2500163 0.49999,0.6562659 0.1875,1.21875 -1.312508,2.12501325 -3.000007,4.2812611 -5.0625,6.46875 1.812494,-0.062491 3.281242,-0.1874909 4.40625,-0.375 C 26.468741,4.2187597 26.249991,3.6562603 25.9375,2.96875 25.812492,2.5937613 25.906242,2.3125116 26.21875,2.125 c 0.374991,-0.1249881 0.687491,0.031262 0.9375,0.46875 0.81249,1.5000098 1.312489,2.7500086 1.5,3.75 0.06249,0.562507 -0.125011,0.8750067 -0.5625,0.9375 C 27.65624,7.3437566 27.37499,7.1562568 27.25,6.71875 l -0.28125,-0.9375 -3,0.375 0,9.1875 c -6e-6,0.499998 -0.218756,0.749998 -0.65625,0.75 -0.437505,-2e-6 -0.656255,-0.250002 -0.65625,-0.75 l 0,-9.1875 -3.28125,0.1875 C 18.937499,6.4062575 18.718749,6.1875077 18.71875,5.6875 18.718749,5.2500087 18.937499,5.0312589 19.375,5.03125 l 1.3125,0 L 22.46875,2.875 C 21.718746,1.937512 20.624997,0.96876297 19.1875,-0.03125 c -0.375001,-0.24998578 -0.500001,-0.56248547 -0.375,-0.9375 0.249999,-0.3749847 0.624998,-0.4374847 1.125,-0.1875 l 0.46875,0.28125 c 0.749996,-0.9374842 1.531246,-2.2812329 2.34375,-4.03125 0.312495,-0.4999807 0.687494,-0.6562305 1.125,-0.46875 z m 15.65625,0.84375 c 0.06248,0.500018 -0.250022,0.8125177 -0.9375,0.9375 l -2.625,0.5625 0.1875,5.8125 3.46875,0 c 0.499977,1.12e-5 0.749977,0.2187609 0.75,0.65625 -2.3e-5,0.4375101 -0.250023,0.6562598 -0.75,0.65625 l -3.28125,0 c 0.124981,1.812508 0.406231,3.6562562 0.84375,5.53125 0.24998,1.125003 0.56248,2.187502 0.9375,3.1875 0.187479,0.6875 0.343729,0.8125 0.46875,0.375 0.06248,-0.374999 0.187479,-1.343748 0.375,-2.90625 0.06248,-0.4374959 0.281228,-0.6562457 0.65625,-0.65625 0.437478,0.062504 0.624977,0.375004 0.5625,0.9375 -0.187522,2.000001 -0.406272,3.375 -0.65625,4.125 -0.250022,0.687499 -0.593771,1.031248 -1.03125,1.03125 -0.50002,-2e-6 -0.96877,-0.468751 -1.40625,-1.40625 -1.062518,-2.374998 -1.812518,-5.7812446 -2.25,-10.21875 l -3.75,0 0,9.46875 c 0.999985,-0.374999 2.031234,-0.812499 3.09375,-1.3125 0.437483,-0.187498 0.749983,-0.156248 0.9375,0.09375 0.124982,0.250001 0.06248,0.500001 -0.1875,0.75 -1.500016,1 -3.343764,1.906249 -5.53125,2.71875 -0.625011,0.124998 -1.000011,-0.0625 -1.125,-0.5625 -0.06251,-0.375001 0.09374,-0.656251 0.46875,-0.84375 l 1.03125,-0.375 0,-16.40625 c -1.2e-5,-0.7499829 0.343737,-1.2187325 1.03125,-1.40625 2.999984,-0.1874821 5.562481,-0.6249817 7.6875,-1.3125 0.562479,-0.1249808 0.906228,0.062519 1.03125,0.5625 z M 25.9375,7.84375 c 0.374991,-0.062494 0.656241,0.125006 0.84375,0.5625 0.68749,2.250003 0.99999,3.875002 0.9375,4.875 -10e-6,0.5625 -0.25001,0.84375 -0.75,0.84375 -0.437509,-0.0625 -0.656259,-0.3125 -0.65625,-0.75 -0.06251,-1.562498 -0.312508,-3.156246 -0.75,-4.78125 -0.06251,-0.3749943 0.06249,-0.624994 0.375,-0.75 z M 20.5,7.9375 c 0.374997,6e-6 0.562497,0.2187558 0.5625,0.65625 -3e-6,2.562503 -0.250003,4.500001 -0.75,5.8125 -0.187503,0.437499 -0.468752,0.624999 -0.84375,0.5625 -0.375002,-0.125001 -0.500001,-0.406251 -0.375,-0.84375 0.499998,-1.687498 0.749998,-3.531247 0.75,-5.53125 C 19.843748,8.1562558 20.062498,7.937506 20.5,7.9375 z M 31.5625,-2.65625 c -0.312514,1.66e-5 -0.468764,0.1875164 -0.46875,0.5625 l 0,4.875 3.5625,0 -0.1875,-5.625 z"
     style="font-size:24px;font-variant:normal;font-stretch:normal;font-family:HGMaruGothicMPRO;-inkscape-font-specification:HGMaruGothicMPRO;fill:#f2f2f2"
     id="path3213" /><path
     d="M 55.65625,3.4375 C 56.218735,4.0000099 56.499985,4.6562593 56.5,5.40625 56.499985,6.1562578 56.218735,6.8125071 55.65625,7.375 55.031237,8.0000059 54.343737,8.3125056 53.59375,8.3125 52.843739,8.3125056 52.156239,8.0000059 51.53125,7.375 50.968741,6.8125071 50.687491,6.1562578 50.6875,5.40625 c -9e-6,-0.7499907 0.281241,-1.4062401 0.84375,-1.96875 0.624989,-0.6249889 1.312489,-0.9374886 2.0625,-0.9375 0.749987,1.14e-5 1.437487,0.3125111 2.0625,0.9375 z"
     style="font-size:24px;font-variant:normal;font-stretch:normal;font-family:HGMaruGothicMPRO;-inkscape-font-specification:HGMaruGothicMPRO;fill:#f2f2f2"
     id="path3215" /><path
     d="m 76.84375,-4.625 c -1.1e-5,-0.6249808 0.281238,-0.9374805 0.84375,-0.9375 0.562487,1.95e-5 0.843737,0.3125192 0.84375,0.9375 l 0,2.8125 9.09375,0 c 0.499977,1.58e-5 0.749977,0.2187655 0.75,0.65625 -2.3e-5,0.43751466 -0.250023,0.65626444 -0.75,0.65625 l -9.09375,0 0,4.59375 6.46875,0 c 0.37498,9.8e-6 0.74998,0.1875097 1.125,0.5625 0.374979,0.3750089 0.562479,0.7500085 0.5625,1.125 l 0,7.96875 c -2.1e-5,0.375 -0.187521,0.749999 -0.5625,1.125 -0.37502,0.374999 -0.75002,0.562499 -1.125,0.5625 l -14.8125,0 c -0.375004,-10e-7 -0.750004,-0.187501 -1.125,-0.5625 C 68.687497,14.499999 68.499997,14.125 68.5,13.75 l 0,-7.96875 c -3e-6,-0.3749915 0.187497,-0.7499911 0.5625,-1.125 0.374996,-0.3749903 0.749996,-0.5624902 1.125,-0.5625 l 6.65625,0 0,-4.59375 -9.09375,0 c -0.500002,1.444e-5 -0.750001,-0.21873534 -0.75,-0.65625 -10e-7,-0.4374845 0.249998,-0.6562342 0.75,-0.65625 l 9.09375,0 z M 71.03125,5.40625 C 70.468745,5.4062585 70.187495,5.6875083 70.1875,6.25 l 0,7.03125 c -5e-6,0.5625 0.281245,0.84375 0.84375,0.84375 l 13.125,0 c 0.562481,0 0.843731,-0.28125 0.84375,-0.84375 L 85,6.25 C 84.999981,5.6875083 84.718731,5.4062585 84.15625,5.40625 z"
     style="font-size:24px;font-variant:normal;font-stretch:normal;font-family:HGMaruGothicMPRO;-inkscape-font-specification:HGMaruGothicMPRO;fill:#f2f2f2"
     id="path3217" /><path
     d="m 108.34375,-5.65625 c 0.37498,0.3125193 0.40623,0.6875189 0.0937,1.125 -0.37502,0.437518 -0.75002,0.8125177 -1.125,1.125 l 4.03125,0 c 0.43748,1.73e-5 0.65623,0.1875172 0.65625,0.5625 -2e-5,0.3750164 -0.21877,0.5625162 -0.65625,0.5625 l -9.09375,0 0,1.875 8.15625,0 c 0.43748,1.434e-5 0.65623,0.18751416 0.65625,0.5625 -2e-5,0.37501341 -0.21877,0.56251322 -0.65625,0.5625 l -8.15625,0 0,1.96875 9.5625,0 c 0.43748,1.13e-5 0.65623,0.1875111 0.65625,0.5625 -2e-5,0.3750103 -0.21877,0.5625101 -0.65625,0.5625 l -14.4375,0 -1.21875,1.875 13.40625,0 c 0.81248,8.3e-6 1.21873,0.4062578 1.21875,1.21875 l 0,7.6875 c -2e-5,0.812499 -0.40627,1.218748 -1.21875,1.21875 l -14.34375,0 C 94.406245,15.812498 93.999996,15.406249 94,14.59375 l 0,-6.5625 C 93.187496,8.6562553 92.531247,9.0937548 92.03125,9.34375 91.531248,9.5937543 91.187498,9.5312544 91,9.15625 c -0.125001,-0.3124949 -10e-7,-0.5937446 0.375,-0.84375 2.249996,-1.4999929 3.718744,-2.9999914 4.40625,-4.5 l -4.3125,0 C 91.031249,3.8125101 90.812499,3.6250103 90.8125,3.25 c -10e-7,-0.3749889 0.218749,-0.5624887 0.65625,-0.5625 l 9.46875,0 0,-1.96875 -8.0625,0 c -0.437503,1.322e-5 -0.656253,-0.18748659 -0.65625,-0.5625 -3e-6,-0.37498584 0.218747,-0.56248566 0.65625,-0.5625 l 8.0625,0 0,-1.875 -9,0 c -0.437502,1.62e-5 -0.656252,-0.1874836 -0.65625,-0.5625 -2e-6,-0.3749828 0.218748,-0.5624827 0.65625,-0.5625 l 4.40625,0 -0.9375,-1.125 c -0.250006,-0.3124812 -0.281256,-0.6249809 -0.09375,-0.9375 0.312494,-0.3124803 0.749994,-0.2499803 1.3125,0.1875 0.624992,0.5000187 1.187492,1.1250181 1.6875,1.875 l 7.3125,0 c 0.56248,-0.624982 1.06248,-1.2812314 1.5,-1.96875 0.31248,-0.4374802 0.71873,-0.5312302 1.21875,-0.28125 z m -13.03125,19.875 c -6e-6,0.312499 0.156244,0.468749 0.46875,0.46875 l 13.21875,0 c 0.31248,-10e-7 0.46873,-0.156251 0.46875,-0.46875 l 0,-1.5 -14.15625,0 z m 0,-6.9375 0,1.40625 14.15625,0 0,-1.40625 C 109.46873,6.968757 109.31248,6.8125071 109,6.8125 l -13.21875,0 c -0.312506,7.1e-6 -0.468756,0.156257 -0.46875,0.46875 z m 0,4.3125 14.15625,0 0,-1.78125 -14.15625,0 z"
     style="font-size:24px;font-variant:normal;font-stretch:normal;font-family:HGMaruGothicMPRO;-inkscape-font-specification:HGMaruGothicMPRO;fill:#f2f2f2"
     id="path3219" /></g></svg>
