<?xml version="1.0" encoding="UTF-8" standalone="no"?>
<!-- Generator: Adobe Illustrator 16.0.4, SVG Export Plug-In . SVG Version: 6.00 Build 0)  -->

<svg
   xmlns:dc="http://purl.org/dc/elements/1.1/"
   xmlns:cc="http://creativecommons.org/ns#"
   xmlns:rdf="http://www.w3.org/1999/02/22-rdf-syntax-ns#"
   xmlns:svg="http://www.w3.org/2000/svg"
   xmlns="http://www.w3.org/2000/svg"
   xmlns:sodipodi="http://sodipodi.sourceforge.net/DTD/sodipodi-0.dtd"
   xmlns:inkscape="http://www.inkscape.org/namespaces/inkscape"
   version="1.1"
   id="レイヤー_1"
   x="0px"
   y="0px"
   width="198"
   height="29"
   viewBox="0 0 198 29"
   enable-background="new 0 0 120 23"
   xml:space="preserve"
   inkscape:version="0.48.5 r10040"
   sodipodi:docname="moyasenai.svg"><metadata
   id="metadata4427"><rdf:RDF><cc:Work
       rdf:about=""><dc:format>image/svg+xml</dc:format><dc:type
         rdf:resource="http://purl.org/dc/dcmitype/StillImage" /><dc:title /></cc:Work></rdf:RDF></metadata><defs
   id="defs4425" /><sodipodi:namedview
   pagecolor="#ffffff"
   bordercolor="#666666"
   borderopacity="1"
   objecttolerance="10"
   gridtolerance="10"
   guidetolerance="10"
   inkscape:pageopacity="0"
   inkscape:pageshadow="2"
   inkscape:window-width="1366"
   inkscape:window-height="706"
   id="namedview4423"
   showgrid="false"
   inkscape:zoom="5.075"
   inkscape:cx="101.89188"
   inkscape:cy="16.507389"
   inkscape:window-x="-8"
   inkscape:window-y="-8"
   inkscape:window-maximized="1"
   inkscape:current-layer="flowRoot3621" />





<text
   xml:space="preserve"
   style="font-size:13.42425632px;font-style:normal;font-weight:normal;line-height:125%;letter-spacing:0px;word-spacing:0px;fill:#f6f6f6;fill-opacity:1;stroke:none;font-family:Sans"
   x="6.7928081"
   y="16.944874"
   id="text4429"
   sodipodi:linespacing="125%"
   transform="scale(0.7536626,1.3268537)"><tspan
     sodipodi:role="line"
     x="6.7928081"
     y="16.944874"
     id="tspan4433"
     style="font-size:13px" /></text>






<flowRoot
   xml:space="preserve"
   id="flowRoot4945"
   style="font-size:11px;font-style:normal;font-weight:normal;line-height:125%;letter-spacing:0px;word-spacing:0px;fill:#000000;fill-opacity:1;stroke:none;font-family:Sans"
   transform="translate(0,6)"><flowRegion
     id="flowRegion4947"><rect
       id="rect4949"
       width="392.31528"
       height="103.64532"
       x="32.118225"
       y="-121.23645" /></flowRegion><flowPara
     id="flowPara4951" /></flowRoot><flowRoot
   xml:space="preserve"
   id="flowRoot3319"
   style="font-size:11px;font-style:normal;font-weight:normal;line-height:125%;letter-spacing:0px;word-spacing:0px;fill:#000000;fill-opacity:1;stroke:none;font-family:Sans"
   transform="translate(0,6)"><flowRegion
     id="flowRegion3321"><rect
       id="rect3323"
       width="181.28079"
       height="36.256157"
       x="0"
       y="-7.1477833" /></flowRegion><flowPara
     id="flowPara3325" /></flowRoot><g
   transform="translate(4,12)"
   style="font-size:11px;font-style:normal;font-weight:normal;line-height:125%;letter-spacing:0px;word-spacing:0px;fill:#f2f2f2;fill-opacity:1;stroke:none;font-family:Sans"
   id="flowRoot3327">path
     d=m 31.460937,-2.6953125 c -1.2e-5,-0.5156075 0.229154,-0.7734197 0.6875,-0.7734375 0.45832,1.78e-5 0.687486,0.25783 0.6875,0.7734375 -1.4e-5,0.3437667 -0.02866,1.0599118 -0.08594,2.1484375 2.177067,1.487e-5 3.86717,0.60157677 5.070312,1.8046875 1.145814,1.1458452 1.71873,2.8359477 1.71875,5.0703125 -2e-5,1.5468814 -0.486999,2.8645885 -1.460937,3.953125 -1.031268,0.973961 -2.148455,1.46094 -3.351563,1.460938 -0.744806,2e-6 -1.460952,-0.143227 -2.148437,-0.429688 C 31.776029,10.968753 30.973946,10.453129 30.171875,9.765625 29.885405,9.4791715 29.828114,9.1640677 30,8.8203125 30.286447,8.53386 30.572905,8.4765683 30.859375,8.6484375 c 1.432278,1.1458379 2.664048,1.6901085 3.695312,1.6328125 0.802067,4e-6 1.518212,-0.257808 2.148438,-0.7734375 0.572898,-0.5156197 0.973939,-1.2604106 1.203125,-2.234375 0.171856,-0.9166587 0.171856,-1.7760328 0,-2.578125 C 37.734356,3.6067815 37.304669,2.7474074 36.617187,2.1171875 35.585921,1.200534 34.296859,0.74220108 32.75,0.7421875 c -1.4e-5,0.4583465 -0.02866,0.9739709 -0.08594,1.546875 -0.0573,0.744803 -0.171888,1.4323023 -0.34375,2.0625 -0.22918,0.8593841 -0.572929,1.5182376 -1.03125,1.9765625 C 31.059883,6.5572994 30.773425,6.614591 30.429687,6.5 30.143218,6.2135498 30.114572,5.8984459 30.34375,5.5546875 c 0.515613,-0.8593654 0.830717,-1.8333227 0.945312,-2.921875 0.05728,-0.5729044 0.08592,-1.1458205 0.08594,-1.71875 -0.802095,0.1718882 -1.546886,0.4010547 -2.234375,0.6875 C 27.651033,2.1744913 26.104159,2.8333448 24.5,3.578125 c 0.802077,2.2343835 1.518222,4.0963608 2.148437,5.5859375 0.6302,1.4322955 1.575512,3.3802105 2.835938,5.8437505 0.229156,0.515623 0.143218,0.916665 -0.257813,1.203124 -0.515635,0.229165 -0.916676,0.114582 -1.203125,-0.343749 C 26.132805,11.914065 24.52864,8.0182355 23.210937,4.1796875 22.40885,4.5807389 21.664059,4.9531344 20.976562,5.296875 20.518227,5.5260505 20.145832,5.4114672 19.859375,4.953125 19.744791,4.4948015 19.88802,4.1510518 20.289062,3.921875 20.97656,3.6354274 21.807289,3.2630319 22.78125,2.8046875 c -0.401045,-1.2604039 -0.830732,-2.5208193 -1.289063,-3.78125 -0.114586,-0.5156092 0.05729,-0.8593588 0.515625,-1.03125 0.45833,-0.1145669 0.773434,0.057308 0.945313,0.515625 0.401037,1.37501444 0.773432,2.606784 1.117187,3.6953125 C 25.846347,1.5156378 27.39322,0.91407591 28.710937,0.3984375 29.684885,0.05470177 30.572905,-0.20311048 31.375,-0.375 c 0.05728,-1.1458175 0.08592,-1.9192542 0.08594,-2.3203125 z
     style=font-size:22px;font-variant:normal;font-stretch:normal;font-family:HGMaruGothicMPRO;-inkscape-font-specification:HGMaruGothicMPRO;fill:#f2f2f2
     id=path3338 /path
     d=m 115.67969,-2.609375 c 0.45832,-0.057275 0.83072,-0.057275 1.11719,0 0.51561,0.1718918 0.85936,0.4869956 1.03125,0.9453125 0.11457,0.2291824 0.17186,0.5729321 0.17187,1.03125 -0.0573,0.80209748 -0.31512,2.1198045 -0.77344,3.953125 l -0.42968,1.375 c 1.9479,0.2864677 4.0104,0.8880296 6.1875,1.8046875 0.17185,-2.1197817 0.25779,-3.8098842 0.25781,-5.0703125 -2e-5,-0.5729032 0.25779,-0.85936125 0.77344,-0.859375 0.5156,1.375e-5 0.77341,0.2864718 0.77343,0.859375 -2e-5,1.6614696 -0.1146,3.5520927 -0.34375,5.671875 1.48957,0.6875065 2.46352,1.203131 2.92188,1.546875 0.34373,0.3437553 0.42966,0.7447966 0.25781,1.203125 -0.34377,0.4010455 -0.8021,0.4296915 -1.375,0.085937 -0.63023,-0.4010369 -1.28908,-0.8020781 -1.97656,-1.203125 -0.28648,2.406253 -0.97398,4.125001 -2.0625,5.15625 -1.03127,0.973958 -2.63543,1.804686 -4.8125,2.492187 -0.40105,0.05729 -0.65887,-0.08594 -0.77344,-0.429687 -0.11459,-0.343751 0.0286,-0.601564 0.42969,-0.773437 1.83332,-0.572917 3.20832,-1.317708 4.125,-2.234375 0.91665,-0.973956 1.46092,-2.578122 1.63281,-4.8125005 -1.94793,-1.0312428 -4.06772,-1.7760337 -6.35937,-2.234375 -0.57293,1.7187567 -1.14585,3.1796927 -1.71875,4.3828125 -0.68751,1.432294 -1.40366,2.549481 -2.14844,3.351563 -0.63022,0.572916 -1.31772,0.859374 -2.0625,0.859375 -0.85938,-1e-6 -1.51823,-0.315105 -1.97656,-0.945313 -0.45834,-0.630207 -0.68751,-1.432289 -0.6875,-2.40625 -1e-5,-1.3749954 0.54426,-2.7213483 1.63281,-4.0390625 1.3177,-1.432283 3.29426,-2.2630114 5.92969,-2.4921875 0.68749,-2.5781127 1.03124,-4.23956938 1.03125,-4.984375 -1e-5,-0.40102657 -0.0859,-0.6588388 -0.25782,-0.7734375 -0.17188,-0.1145677 -0.48699,-0.1145677 -0.94531,0 -0.85938,0.1718903 -2.52084,0.37241093 -4.98437,0.6015625 -0.45834,1.487e-5 -0.7448,-0.22915157 -0.85938,-0.6875 0,-0.5156089 0.25781,-0.802067 0.77344,-0.859375 l 1.63281,-0.085937 1.89063,-0.171875 z m -4.98438,10.2265625 c -1.03125,1.2031305 -1.54687,2.3776085 -1.54687,3.5234375 0.0573,1.375002 0.48697,2.062501 1.28906,2.0625 0.74479,0.05729 1.51822,-0.572915 2.32031,-1.890625 0.45833,-0.859371 0.85937,-1.6614537 1.20313,-2.40625 0.40103,-0.9739519 0.74478,-2.0052009 1.03125,-3.09375 -1.89063,0.1718833 -3.32292,0.7734452 -4.29688,1.8046875 z
     style=font-size:22px;font-variant:normal;font-stretch:normal;font-family:HGMaruGothicMPRO;-inkscape-font-specification:HGMaruGothicMPRO;fill:#f2f2f2
     id=path3346 /path
     d=m 269.67969,-2.609375 c 0.45832,-0.057275 0.83072,-0.057275 1.11718,0 0.51562,0.1718918 0.85937,0.4869956 1.03125,0.9453125 0.11458,0.2291824 0.17187,0.5729321 0.17188,1.03125 -0.0573,0.80209748 -0.31512,2.1198045 -0.77344,3.953125 l -0.42969,1.375 c 1.94791,0.2864677 4.01041,0.8880296 6.1875,1.8046875 0.17186,-2.1197817 0.2578,-3.8098842 0.25782,-5.0703125 -2e-5,-0.5729032 0.25779,-0.85936125 0.77343,-0.859375 0.51561,1.375e-5 0.77342,0.2864718 0.77344,0.859375 -2e-5,1.6614696 -0.1146,3.5520927 -0.34375,5.671875 1.48957,0.6875065 2.46352,1.203131 2.92188,1.546875 0.34373,0.3437553 0.42966,0.7447966 0.25781,1.203125 -0.34377,0.4010455 -0.8021,0.4296915 -1.375,0.085937 -0.63023,-0.4010369 -1.28908,-0.8020781 -1.97656,-1.203125 -0.28648,2.406253 -0.97398,4.125001 -2.0625,5.15625 -1.03127,0.973958 -2.63543,1.804686 -4.8125,2.492187 -0.40105,0.05729 -0.65887,-0.08594 -0.77344,-0.429687 -0.11459,-0.343751 0.0286,-0.601564 0.42969,-0.773437 1.83332,-0.572917 3.20832,-1.317708 4.125,-2.234375 0.91665,-0.973956 1.46092,-2.578122 1.63281,-4.8125005 -1.94793,-1.0312428 -4.06772,-1.7760337 -6.35938,-2.234375 -0.57292,1.7187567 -1.14584,3.1796927 -1.71875,4.3828125 -0.6875,1.432294 -1.40365,2.549481 -2.14843,3.351563 -0.63022,0.572916 -1.31772,0.859374 -2.0625,0.859375 -0.85938,-1e-6 -1.51823,-0.315105 -1.97657,-0.945313 -0.45833,-0.630207 -0.6875,-1.432289 -0.6875,-2.40625 0,-1.3749954 0.54427,-2.7213483 1.63282,-4.0390625 1.3177,-1.432283 3.29426,-2.2630114 5.92968,-2.4921875 0.6875,-2.5781127 1.03125,-4.23956938 1.03125,-4.984375 0,-0.40102657 -0.0859,-0.6588388 -0.25781,-0.7734375 -0.17188,-0.1145677 -0.48699,-0.1145677 -0.94531,0 -0.85938,0.1718903 -2.52084,0.37241093 -4.98438,0.6015625 -0.45833,1.487e-5 -0.74479,-0.22915157 -0.85937,-0.6875 0,-0.5156089 0.25781,-0.802067 0.77344,-0.859375 l 1.63281,-0.085937 1.89062,-0.171875 z m -4.98438,10.2265625 c -1.03125,1.2031305 -1.54687,2.3776085 -1.54687,3.5234375 0.0573,1.375002 0.48697,2.062501 1.28906,2.0625 0.74479,0.05729 1.51822,-0.572915 2.32031,-1.890625 0.45833,-0.859371 0.85937,-1.6614537 1.20313,-2.40625 0.40103,-0.9739519 0.74478,-2.0052009 1.03125,-3.09375 -1.89063,0.1718833 -3.32292,0.7734452 -4.29688,1.8046875 z
     style=font-size:22px;font-variant:normal;font-stretch:normal;font-family:HGMaruGothicMPRO;-inkscape-font-specification:HGMaruGothicMPRO;fill:#f2f2f2
     id=path3360 /<g
   transform="translate(-4,-10)"
   style="line-height:125%;fill:#f2f2f2;font-family:Sans"
   id="flowRoot3495">path
     d=m 83.1875,2 c 0.583307,2.13e-5 0.874973,0.2552294 0.875,0.765625 -2.7e-5,0.5104367 -0.291693,0.7656448 -0.875,0.765625 l -1.421875,0 0,17.71875 c -2.4e-5,2.843749 -1.531273,4.265623 -4.59375,4.265625 -2.625017,-2e-6 -5.14064,-0.328127 -7.546875,-0.984375 -0.437512,-0.07292 -0.656262,-0.364584 -0.65625,-0.875 C 69.041655,23.21875 69.296863,23 69.734375,23 c 2.333319,0.4375 4.520816,0.65625 6.5625,0.65625 2.333312,0 3.499978,-0.765625 3.5,-2.296875 l 0,-17.828125 -20.34375,0 C 58.86979,3.5312698 58.578124,3.2760617 58.578125,2.765625 58.578124,2.2552294 58.86979,2.0000213 59.453125,2 z m -9.625,5.140625 c 0.437483,1.62e-5 0.838525,0.1823077 1.203125,0.546875 0.364566,0.3645986 0.546857,0.7656399 0.546875,1.203125 l 0,8.640625 c -1.8e-5,0.437505 -0.182309,0.838547 -0.546875,1.203125 -0.3646,0.364588 -0.765642,0.546879 -1.203125,0.546875 l -9.734375,0 c -0.437506,4e-6 -0.838547,-0.182287 -1.203125,-0.546875 -0.364588,-0.364578 -0.54688,-0.76562 -0.546875,-1.203125 l 0,-8.640625 C 62.07812,8.4531399 62.260412,8.0520986 62.625,7.6875 62.989578,7.3229327 63.390619,7.1406412 63.828125,7.140625 z m -8.75,1.53125 c -0.510424,1.47e-5 -0.765632,0.2552227 -0.765625,0.765625 l 0,7.546875 c -7e-6,0.510422 0.255201,0.765631 0.765625,0.765625 l 7.765625,0 c 0.510401,6e-6 0.765609,-0.255203 0.765625,-0.765625 l 0,-7.546875 C 73.343734,8.9270977 73.088526,8.6718897 72.578125,8.671875 z
     style=font-size:28px;font-variant:normal;font-stretch:normal;fill:#f2f2f2;font-family:HGMaruGothicMPRO;-inkscape-font-specification:HGMaruGothicMPRO
     id=path3508 /path
     d=m 152.85937,1.78125 c 0.58333,-0.072895 1.05728,-0.072895 1.42188,0 0.65624,0.2187713 1.09374,0.6198126 1.3125,1.203125 0.14582,0.2916867 0.21874,0.7291863 0.21875,1.3125 -0.0729,1.0208513 -0.40106,2.697933 -0.98438,5.03125 l -0.54687,1.75 c 2.47915,0.364595 5.10415,1.130219 7.875,2.296875 0.21873,-2.697904 0.3281,-4.8489435 0.32812,-6.453125 -2e-5,-0.7291495 0.32811,-1.0937325 0.98438,-1.09375 0.65623,1.75e-5 0.98435,0.3646005 0.98437,1.09375 -2e-5,2.1145976 -0.14585,4.520845 -0.4375,7.21875 1.89581,0.875008 3.1354,1.531258 3.71875,1.96875 0.43748,0.437507 0.54685,0.947923 0.32813,1.53125 -0.43753,0.510422 -1.02086,0.54688 -1.75,0.109375 -0.80211,-0.510411 -1.64065,-1.020827 -2.51563,-1.53125 -0.3646,3.062504 -1.2396,5.250002 -2.625,6.5625 -1.31251,1.239583 -3.35418,2.296873 -6.125,3.171875 -0.51042,0.07291 -0.83855,-0.109378 -0.98437,-0.546875 -0.14585,-0.437502 0.0365,-0.765626 0.54687,-0.984375 2.33332,-0.729167 4.08332,-1.677083 5.25,-2.84375 1.16665,-1.23958 1.85936,-3.281245 2.07813,-6.125 -2.47918,-1.312491 -5.1771,-2.260407 -8.09375,-2.84375 -0.72918,2.187509 -1.45834,4.046882 -2.1875,5.578125 -0.87501,1.82292 -1.78647,3.244794 -2.73438,4.265625 -0.80209,0.729167 -1.67708,1.09375 -2.625,1.09375 -1.09375,0 -1.93229,-0.401041 -2.51562,-1.203125 -0.58334,-0.802082 -0.875,-1.822914 -0.875,-3.0625 0,-1.749994 0.69271,-3.463534 2.07812,-5.140625 1.67708,-1.822906 4.19271,-2.880196 7.54688,-3.171875 0.87499,-3.2812344 1.31249,-5.3958156 1.3125,-6.34375 -1e-5,-0.5103975 -0.10939,-0.8385221 -0.32813,-0.984375 -0.21876,-0.1458135 -0.6198,-0.1458135 -1.20312,0 -1.09376,0.2187695 -3.20834,0.4739775 -6.34375,0.765625 -0.58334,1.89e-5 -0.94792,-0.2916475 -1.09375,-0.875 0,-0.6562295 0.32812,-1.0208125 0.98437,-1.09375 l 2.07813,-0.109375 2.40625,-0.21875 z m -6.34375,13.015625 c -1.3125,1.531257 -1.96875,3.026047 -1.96875,4.484375 0.0729,1.750002 0.61979,2.625001 1.64063,2.625 0.94791,0.07292 1.93228,-0.729165 2.95312,-2.40625 0.58333,-1.093745 1.09375,-2.114577 1.53125,-3.0625 0.51041,-1.239575 0.94791,-2.552074 1.3125,-3.9375 -2.40625,0.218761 -4.22917,0.984385 -5.46875,2.296875 z
     style=font-size:28px;font-variant:normal;font-stretch:normal;fill:#f2f2f2;font-family:HGMaruGothicMPRO;-inkscape-font-specification:HGMaruGothicMPRO
     id=path3514 /<g
   transform="translate(-2,2)"
   style="font-size:11px;font-style:normal;font-weight:normal;line-height:125%;letter-spacing:0px;word-spacing:0px;fill:#f2f2f2;fill-opacity:1;stroke:none;font-family:Sans"
   id="flowRoot3556">path
     d=&quot;m 153.04687,0.09375 c 0.58333,-0.07289505 1.05728,-0.07289505 1.42188,0 0.65624,0.21877133 1.09374,0.61981259 1.3125,1.203125 0.14582,0.2916867 0.21874,0.7291863 0.21875,1.3125 -0.0729,1.0208513 -0.40106,2.697933 -0.98438,5.03125 l -0.54687,1.75 c 2.47915,0.3645952 5.10415,1.130219 7.875,2.296875 0.21873,-2.697904 0.3281,-4.8489435 0.32812,-6.453125 -2e-5,-0.7291495 0.32811,-1.0937325 0.98438,-1.09375 0.65623,1.75e-5 0.98435,0.3646005 0.98437,1.09375 -2e-5,2.1145976 -0.14585,4.5208452 -0.4375,7.21875 1.89581,0.875008 3.1354,1.531258 3.71875,1.96875 0.43748,0.437507 0.54685,0.947923 0.32813,1.53125 -0.43753,0.510422 -1.02086,0.54688 -1.75,0.109375 -0.80211,-0.510411 -1.64065,-1.020827 -2.51563,-1.53125 -0.3646,3.062504 -1.2396,5.250002 -2.625,6.5625 -1.31251,1.239583 -3.35418,2.296873 -6.125,3.171875 -0.51042,0.07291 -0.83855,-0.109378 -0.98437,-0.546875 -0.14585,-0.437502 0.0365,-0.765626 0.54687,-0.984375 2.33332,-0.729167 4.08332,-1.677083 5.25,-2.84375 1.16665,-1.23958 1.85936,-3.281245 2.07813,-6.125 -2.47918,-1.312491 -5.1771,-2.260407 -8.09375,-2.84375 -0.72918,2.187509 -1.45834,4.046882 -2.1875,5.578125 -0.87501,1.82292 -1.78647,3.244794 -2.73438,4.265625 -0.80209,0.729167 -1.67708,1.09375 -2.625,1.09375 -1.09375,0 -1.93229,-0.401041 -2.51562,-1.203125 -0.58334,-0.802082 -0.875,-1.822914 -0.875,-3.0625 0,-1.749994 0.69271,-3.463534 2.07812,-5.140625 1.67708,-1.822906 4.19271,-2.8801963 7.54688,-3.171875 0.87499,-3.2812344 1.31249,-5.3958156 1.3125,-6.34375 -1e-5,-0.5103975 -0.10939,-0.8385221 -0.32813,-0.984375 -0.21876,-0.1458135 -0.6198,-0.1458135 -1.20312,0 -1.09376,0.2187695 -3.20834,0.4739775 -6.34375,0.765625 -0.58334,1.89e-5 -0.94792,-0.2916475 -1.09375,-0.875 0,-0.6562295 0.32812,-1.02081252 0.98437,-1.09375 l 2.07813,-0.109375 2.40625,-0.21875 z m -6.34375,13.015625 c -1.3125,1.531257 -1.96875,3.026047 -1.96875,4.484375 0.0729,1.750002 0.61979,2.625001 1.64063,2.625 0.94791,0.07292 1.93228,-0.729165 2.95312,-2.40625 0.58333,-1.093745 1.09375,-2.114577 1.53125,-3.0625 0.51041,-1.239575 0.94791,-2.552074 1.3125,-3.9375 -2.40625,0.218761 -4.22917,0.984385 -5.46875,2.296875 z&quot;
     style=&quot;font-size:28px;font-variant:normal;font-stretch:normal;fill:#f2f2f2;font-family:HGMaruGothicMPRO;-inkscape-font-specification:HGMaruGothicMPRO&quot;
     id=&quot;path3575&quot; /&gt;<g
   transform="translate(2,2)"
   style="line-height:125%;fill:#f2f2f2;font-family:Sans"
   id="flowRoot3621"><path
     d="m 9.578125,-3.140625 c 0.145823,-0.6562279 0.546864,-0.9478943 1.203125,-0.875 0.583321,0.072939 0.838529,0.4375219 0.765625,1.09375 l -0.21875,0.875 -0.4375,2.1875 2.953125,-0.109375 5.796875,0 2.953125,0.109375 c 0.656226,1.816e-5 0.984351,0.32814283 0.984375,0.984375 -2.4e-5,0.6562665 -0.328149,0.9843912 -0.984375,0.984375 C 19.31248,1.963558 16.177067,1.8906414 13.1875,1.890625 L 10.5625,2 C 10.197906,4.0416809 9.9062395,5.8645958 9.6875,7.46875 l 1.96875,0 c 3.864567,-0.1458224 7.145814,-0.4374887 9.84375,-0.875 0.656227,1.17e-5 1.02081,0.2916781 1.09375,0.875 0.07289,0.5833436 -0.218773,0.9479265 -0.875,1.09375 -1.822937,0.2187595 -4.192726,0.401051 -7.109375,0.546875 -2.04168,0.072926 -3.718761,0.1093841 -5.03125,0.109375 l -0.21875,2.296875 c -0.072926,2.479171 0.4374896,4.265628 1.53125,5.359375 0.947904,1.020834 2.624986,1.53125 5.03125,1.53125 1.458315,0 2.953106,-0.21875 4.484375,-0.65625 1.604144,-0.510416 2.624976,-1.458331 3.0625,-2.84375 0.218726,-0.874996 0.218726,-1.64062 0,-2.296875 -0.218774,-0.656244 -0.51044,-1.312493 -0.875,-1.96875 -0.145856,-0.510408 -2.3e-5,-0.8385332 0.4375,-0.984375 0.364559,-0.1458245 0.692684,-0.072908 0.984375,0.21875 0.656225,0.947924 1.093724,1.822923 1.3125,2.625 0.145807,0.583339 0.218724,1.130213 0.21875,1.640625 -2.6e-5,1.895836 -0.838567,3.354167 -2.515625,4.375 -1.750022,1.020832 -4.192728,1.531248 -7.328125,1.53125 -2.625014,-2e-6 -4.63022,-0.583335 -6.015625,-1.75 -1.3854256,-1.312499 -2.0781332,-3.281247 -2.078125,-5.90625 -8.2e-6,-0.94791 0.072908,-2.0052 0.21875,-3.171875 C 6.3697847,9.1458425 4.8020779,8.963551 3.125,8.671875 2.4687469,8.5260514 2.1770806,8.1614685 2.25,7.578125 2.3229138,7.0677196 2.6510384,6.8125115 3.234375,6.8125 4.9843694,7.1041779 6.5885345,7.2864693 8.046875,7.359375 8.1926995,5.7552209 8.4114493,3.9687643 8.703125,2 L 5.859375,2.21875 3.125,2.4375 C 2.5416635,2.4375159 2.2135389,2.1458495 2.140625,1.5625 2.1406223,0.97918398 2.4322886,0.65105931 3.015625,0.578125 L 6.1875,0.359375 9.03125,0.140625 9.359375,-1.9375 z"
     style="font-size:28px;font-variant:normal;font-stretch:normal;fill:#f2f2f2;font-family:HGMaruGothicMPRO;-inkscape-font-specification:HGMaruGothicMPRO"
     id="path3630" /><path
     d="m 43.703125,-3.359375 c -1.6e-5,-0.6562277 0.29165,-0.9843524 0.875,-0.984375 0.583316,2.26e-5 0.874982,0.3281473 0.875,0.984375 -1.8e-5,0.4375212 -0.03648,1.3489786 -0.109375,2.734375 2.770813,1.892e-5 4.921852,0.76564316 6.453125,2.296875 1.458307,1.4583485 2.187473,3.609388 2.1875,6.453125 -2.7e-5,1.968758 -0.619818,3.64584 -1.859375,5.03125 -1.312523,1.239587 -2.734397,1.859378 -4.265625,1.859375 -0.947936,3e-6 -1.859394,-0.182288 -2.734375,-0.546875 -1.02085,-0.437496 -2.041682,-1.093745 -3.0625,-1.96875 -0.364598,-0.364577 -0.437514,-0.765618 -0.21875,-1.203125 0.364569,-0.364576 0.729151,-0.437493 1.09375,-0.21875 1.822899,1.458339 3.390606,2.151047 4.703125,2.078125 1.020812,5e-6 1.932269,-0.32812 2.734375,-0.984375 0.729143,-0.656243 1.239559,-1.604159 1.53125,-2.84375 0.218725,-1.1666565 0.218725,-2.2604054 0,-3.28125 -0.218774,-1.385403 -0.765649,-2.4791519 -1.640625,-3.28125 -1.312522,-1.16665 -2.953145,-1.7499827 -4.921875,-1.75 -1.8e-5,0.58335 -0.03648,1.2395994 -0.109375,1.96875 -0.07293,0.947931 -0.218768,1.8229302 -0.4375,2.625 C 44.505191,6.7031366 44.067692,7.5416774 43.484375,8.125 43.192693,8.4166765 42.82811,8.4895931 42.390625,8.34375 42.026027,7.979177 41.989569,7.5781357 42.28125,7.140625 c 0.656234,-1.0937378 1.057276,-2.3333198 1.203125,-3.71875 0.0729,-0.7291511 0.109359,-1.458317 0.109375,-2.1875 -1.020849,0.2187668 -1.968764,0.5104332 -2.84375,0.875 -1.895845,0.7291821 -3.864593,1.567723 -5.90625,2.515625 1.020825,2.8437608 1.932282,5.2135501 2.734375,7.109375 0.802072,1.822921 2.005196,4.302086 3.609375,7.4375 0.291653,0.656248 0.182278,1.166665 -0.328125,1.53125 -0.656263,0.291664 -1.166679,0.145831 -1.53125,-0.4375 -2.40626,-5.031247 -4.447924,-9.989575 -6.125,-14.875 C 32.182287,5.9010541 31.234371,6.3750119 30.359375,6.8125 29.776039,7.1041779 29.302081,6.9583447 28.9375,6.375 28.791665,5.7916792 28.973957,5.3541796 29.484375,5.0625 30.359372,4.6979303 31.416663,4.2239724 32.65625,3.640625 c -0.510421,-1.6041504 -1.057296,-3.20831547 -1.640625,-4.8125 -0.145837,-0.6562299 0.07291,-1.0937294 0.65625,-1.3125 0.583328,-0.1458124 0.98437,0.072937 1.203125,0.65625 0.510411,1.75001838 0.984369,3.3177251 1.421875,4.703125 2.260408,-0.8749837 4.229156,-1.6406079 5.90625,-2.296875 1.239569,-0.43748184 2.369776,-0.76560652 3.390625,-0.984375 0.0729,-1.4583132 0.109359,-2.4426872 0.109375,-2.953125 z"
     style="font-size:28px;font-variant:normal;font-stretch:normal;fill:#f2f2f2;font-family:HGMaruGothicMPRO;-inkscape-font-specification:HGMaruGothicMPRO"
     id="path3632" /><path
     d="m 77.390625,3.640625 0,2.625 c -2.2e-5,2.8437592 -0.328147,4.666674 -0.984375,5.46875 -0.65627,0.802089 -1.494811,1.20313 -2.515625,1.203125 -1.531267,5e-6 -3.208349,-0.473952 -5.03125,-1.421875 -0.51043,-0.364576 -0.619805,-0.802076 -0.328125,-1.3125 0.218737,-0.3645749 0.58332,-0.4374915 1.09375,-0.21875 0.874985,0.364591 1.567693,0.619799 2.078125,0.765625 0.5104,0.145841 1.093733,0.218757 1.75,0.21875 0.802064,7e-6 1.312481,-0.255201 1.53125,-0.765625 0.291647,-0.6562413 0.43748,-1.7135319 0.4375,-3.171875 l 0,-3.28125 -12.140625,0.875 0,7.65625 c -8e-6,2.114587 0.401033,3.609377 1.203125,4.484375 0.802073,0.875001 2.114572,1.3125 3.9375,1.3125 2.406235,0 4.812482,-0.109375 7.21875,-0.328125 0.947895,-0.07292 2.005186,-0.218749 3.171875,-0.4375 0.729143,1e-6 1.130184,0.328126 1.203125,0.984375 -2.5e-5,0.583333 -0.328149,0.947916 -0.984375,1.09375 -2.114605,0.218749 -4.265644,0.364582 -6.453125,0.4375 l -4.15625,0 c -2.697927,-2e-6 -4.5573,-0.656251 -5.578125,-1.96875 C 61.82291,16.69271 61.312494,14.687504 61.3125,11.84375 l 0,-7.109375 -3.609375,0.21875 c -0.510418,1.33e-5 -0.802085,-0.2551947 -0.875,-0.765625 -10e-7,-0.5833186 0.291665,-0.9114433 0.875,-0.984375 l 3.609375,-0.21875 0,-4.375 c -6e-6,-0.7291463 0.328119,-1.0937292 0.984375,-1.09375 0.656242,2.08e-5 0.984367,0.3646037 0.984375,1.09375 l 0,4.265625 L 75.421875,2 l 0,-4.8125 c -2e-5,-0.7291448 0.328105,-1.0937278 0.984375,-1.09375 0.656228,2.22e-5 0.984353,0.3646052 0.984375,1.09375 l 0,4.703125 3.71875,-0.21875 c 0.72914,-0.0729 1.093723,0.2187664 1.09375,0.875 -2.7e-5,0.5104319 -0.36461,0.8020983 -1.09375,0.875 z"
     style="font-size:28px;font-variant:normal;font-stretch:normal;fill:#f2f2f2;font-family:HGMaruGothicMPRO;-inkscape-font-specification:HGMaruGothicMPRO"
     id="path3634" /><path
     d="m 109.21875,4.625 c 0.58331,0.4375132 0.72914,0.9843877 0.4375,1.640625 -0.51044,0.5833448 -1.09378,0.6198031 -1.75,0.109375 -2.04169,-1.6770697 -3.53648,-2.5156106 -4.48437,-2.515625 -0.80211,1.44e-5 -1.27607,0.4739723 -1.42188,1.421875 -2e-5,0.5104292 0.29165,1.8593862 0.875,4.046875 0.36456,1.385424 0.72915,2.843756 1.09375,4.375 1.45831,0.802087 2.55206,1.458336 3.28125,1.96875 0.65623,0.437502 1.23956,0.875002 1.75,1.3125 0.51039,0.510417 0.54685,1.057292 0.10938,1.640625 -0.43753,0.437499 -0.94795,0.437499 -1.53125,0 -0.87503,-0.802083 -2.07815,-1.749999 -3.60938,-2.84375 -0.29169,1.312501 -0.8021,2.333334 -1.53125,3.0625 -1.31252,1.166665 -3.026058,1.749998 -5.140625,1.75 -1.968762,-2e-6 -3.536469,-0.546877 -4.703125,-1.640625 -0.802092,-0.875 -1.203133,-1.859374 -1.203125,-2.953125 -8e-6,-1.312496 0.510408,-2.442704 1.53125,-3.390625 0.947906,-0.802077 2.296863,-1.203118 4.046875,-1.203125 1.166652,7e-6 2.770817,0.401048 4.8125,1.203125 -0.21877,-1.16666 -0.47398,-2.369784 -0.76562,-3.609375 -0.29169,-1.1666562 -0.47398,-2.2968634 -0.54688,-3.390625 -2e-5,-1.0208196 0.21873,-1.8229022 0.65625,-2.40625 0.5104,-0.6562342 1.16665,-0.9843589 1.96875,-0.984375 0.72915,1.61e-5 1.67706,0.2187659 2.84375,0.65625 1.31248,0.5104316 2.40623,1.0937643 3.28125,1.75 z m -17.0625,-8.09375 c 0.145824,-0.5103944 0.510407,-0.7291442 1.09375,-0.65625 0.583323,0.1458556 0.802073,0.5104386 0.65625,1.09375 l -0.4375,1.640625 c 3.937486,-0.072897 7.87498,-0.2551884 11.8125,-0.546875 0.65623,2.02e-5 1.02081,0.3281449 1.09375,0.984375 -0.14586,0.583352 -0.51044,0.87501838 -1.09375,0.875 -4.01043,0.21876816 -8.057305,0.36460134 -12.140625,0.4375 -0.875009,2.8437651 -1.822925,5.5781374 -2.84375,8.203125 -0.947923,2.333341 -2.041672,4.776047 -3.28125,7.328125 -0.364587,0.510419 -0.802086,0.69271 -1.3125,0.546875 -0.583335,-0.364581 -0.729168,-0.838539 -0.4375,-1.421875 1.312497,-2.479161 2.442704,-4.84895 3.390625,-7.109375 0.94791,-2.3333206 1.786451,-4.8124848 2.515625,-7.4375 l -4.59375,0 c -0.656253,1.783e-5 -0.984377,-0.29164855 -0.984375,-0.875 -2e-6,-0.58331405 0.328122,-0.8749804 0.984375,-0.875 l 5.03125,0 z m 0.875,19.140625 c -1e-5,1.093752 0.473948,1.932292 1.421875,2.515625 0.874988,0.510416 1.859362,0.765624 2.953125,0.765625 1.458318,-1e-6 2.62498,-0.401042 3.5,-1.203125 0.72915,-0.656249 1.09373,-1.677081 1.09375,-3.0625 -2.187516,-1.166662 -3.937515,-1.749995 -5.25,-1.75 -2.260428,5e-6 -3.50001,0.911463 -3.71875,2.734375 z"
     style="font-size:28px;font-variant:normal;font-stretch:normal;fill:#f2f2f2;font-family:HGMaruGothicMPRO;-inkscape-font-specification:HGMaruGothicMPRO"
     id="path3636" /><path
     d="m 130.54687,-2.046875 c 0.43749,-0.2187294 0.83853,-0.1458128 1.20313,0.21875 1.96873,2.55210091 3.35414,5.3229315 4.15625,8.3125 0.80206,2.843759 1.2031,6.125006 1.20312,9.84375 -2e-5,0.802084 -0.40106,1.203126 -1.20312,1.203125 -0.80211,1e-6 -1.20315,-0.401041 -1.20313,-1.203125 -2e-5,-3.864577 -0.32814,-7.0729076 -0.98437,-9.625 -0.72919,-2.6249858 -1.89585,-5.1406083 -3.5,-7.546875 -0.21877,-0.510397 -0.10939,-0.9114383 0.32812,-1.203125 z M 116,-2.59375 c 0.72916,2.09e-5 1.05729,0.3646039 0.98438,1.09375 -0.21876,1.60418486 -0.40105,2.9531418 -0.54688,4.046875 -0.36459,2.4062633 -0.54688,4.4843863 -0.54687,6.234375 -1e-5,1.239592 0.0729,2.406257 0.21875,3.5 0.21874,2.187504 0.76561,3.682294 1.64062,4.484375 0.43749,0.437501 0.87499,0.473959 1.3125,0.109375 1.16666,-1.166664 2.26041,-3.791661 3.28125,-7.875 0.14582,-0.4374903 0.47395,-0.6197817 0.98438,-0.546875 0.5104,0.145843 0.69269,0.510426 0.54687,1.09375 l -0.10937,0.546875 c -0.8021,3.354172 -1.6771,5.760419 -2.625,7.21875 -0.94793,1.458333 -1.85939,2.187499 -2.73438,2.1875 -1.02084,-0.07292 -1.96876,-0.911459 -2.84375,-2.515625 -0.94792,-1.749997 -1.42188,-4.520827 -1.42187,-8.3125 -1e-5,-1.6041554 0.0729,-3.4270703 0.21875,-5.46875 0.14583,-1.7499832 0.32812,-3.35414822 0.54687,-4.8125 0.14583,-0.729146 0.51041,-1.0572707 1.09375,-0.984375 z"
     style="font-size:28px;font-variant:normal;font-stretch:normal;fill:#f2f2f2;font-family:HGMaruGothicMPRO;-inkscape-font-specification:HGMaruGothicMPRO"
     id="path3638" /><path
     d="m 146.73437,7.25 c 0.4375,0.364594 0.51041,0.7656353 0.21875,1.203125 -1.23958,1.895841 -1.85938,3.390631 -1.85937,4.484375 -1e-5,1.531254 0.6927,2.697919 2.07812,3.5 1.45833,0.729168 3.86458,1.093751 7.21875,1.09375 2.98957,1e-6 6.05207,-0.364582 9.1875,-1.09375 0.72915,-0.145831 1.2031,0.109377 1.42188,0.765625 0.14581,0.729167 -0.21878,1.203125 -1.09375,1.421875 -2.62502,0.510416 -5.79689,0.765624 -9.51563,0.765625 -4.52084,-1e-6 -7.54688,-0.619792 -9.07812,-1.859375 -1.45834,-1.239581 -2.1875,-2.697913 -2.1875,-4.375 0,-1.677077 0.72916,-3.572908 2.1875,-5.6875 0.36458,-0.4374887 0.83853,-0.5104053 1.42187,-0.21875 z m 14.10938,-8.75 c 0.65623,0.145853 0.94789,0.54689425 0.875,1.203125 -0.14586,0.58335134 -0.5469,0.83855942 -1.20313,0.765625 -1.45835,-0.29164855 -3.2448,-0.43748173 -5.35937,-0.4375 -3.57293,1.827e-5 -6.92709,0.29168464 -10.0625,0.875 -0.58334,0.072934 -0.94792,-0.18227409 -1.09375,-0.765625 0,-0.510398 0.2552,-0.83852267 0.76562,-0.984375 3.64583,-0.7291468 7.14583,-1.0937298 10.5,-1.09375 2.2604,2.02e-5 4.11978,0.1458534 5.57813,0.4375 z m 3.0625,-3.609375 c 0.36456,-0.1458098 0.69268,-0.072893 0.98437,0.21875 0.80206,0.9479389 1.53123,2.0052295 2.1875,3.171875 0.14581,0.5104362 0.0364,0.87501914 -0.32812,1.09375 -0.43753,0.14585211 -0.76565,0.0364772 -0.98438,-0.328125 -0.51044,-0.9478965 -1.20315,-2.0051871 -2.07812,-3.171875 -0.21877,-0.4374771 -0.14586,-0.7656018 0.21875,-0.984375 z m -2.625,0.984375 c 0.36456,-0.1458108 0.69269,-0.072894 0.98437,0.21875 0.80206,0.9479379 1.53123,2.0052285 2.1875,3.171875 0.21873,0.51043519 0.10935,0.87501816 -0.32812,1.09375 -0.43752,0.14585112 -0.76565,0.0364762 -0.98438,-0.328125 -0.51043,-0.94789745 -1.20314,-2.0051881 -2.07812,-3.171875 -0.21877,-0.3645615 -0.14585,-0.6926862 0.21875,-0.984375 z"
     style="font-size:28px;font-variant:normal;font-stretch:normal;fill:#f2f2f2;font-family:HGMaruGothicMPRO;-inkscape-font-specification:HGMaruGothicMPRO"
     id="path3640" /><path
     d="m 178.89062,-3.25 c 0.58333,-0.072895 1.05728,-0.072895 1.42188,0 0.65624,0.2187713 1.09374,0.6198126 1.3125,1.203125 0.14582,0.2916867 0.21874,0.7291863 0.21875,1.3125 -0.0729,1.02085134 -0.40106,2.697933 -0.98438,5.03125 l -0.54687,1.75 c 2.47915,0.3645952 5.10415,1.1302195 7.875,2.296875 0.21873,-2.697904 0.3281,-4.8489435 0.32812,-6.453125 -2e-5,-0.7291495 0.32811,-1.0937325 0.98438,-1.09375 0.65623,1.75e-5 0.98435,0.3646005 0.98437,1.09375 -2e-5,2.1145976 -0.14585,4.5208452 -0.4375,7.21875 1.89581,0.8750083 3.1354,1.531258 3.71875,1.96875 0.43748,0.437507 0.54685,0.947923 0.32813,1.53125 -0.43753,0.510422 -1.02086,0.54688 -1.75,0.109375 -0.80211,-0.510411 -1.64065,-1.020827 -2.51563,-1.53125 -0.3646,3.062504 -1.2396,5.250002 -2.625,6.5625 -1.31251,1.239583 -3.35418,2.296873 -6.125,3.171875 -0.51042,0.07291 -0.83855,-0.109378 -0.98437,-0.546875 -0.14585,-0.437502 0.0365,-0.765626 0.54687,-0.984375 2.33332,-0.729167 4.08332,-1.677083 5.25,-2.84375 1.16665,-1.23958 1.85936,-3.281245 2.07813,-6.125 -2.47918,-1.3124908 -5.1771,-2.2604065 -8.09375,-2.84375 -0.72918,2.1875085 -1.45834,4.046882 -2.1875,5.578125 -0.87501,1.82292 -1.78647,3.244794 -2.73438,4.265625 -0.80209,0.729167 -1.67708,1.09375 -2.625,1.09375 -1.09375,0 -1.93229,-0.401041 -2.51562,-1.203125 -0.58334,-0.802082 -0.875,-1.822914 -0.875,-3.0625 0,-1.749994 0.69271,-3.463534 2.07812,-5.140625 1.67708,-1.8229057 4.19271,-2.8801963 7.54688,-3.171875 0.87499,-3.2812344 1.31249,-5.39581558 1.3125,-6.34375 -1e-5,-0.51039745 -0.10939,-0.8385221 -0.32813,-0.984375 -0.21876,-0.1458135 -0.6198,-0.1458135 -1.20312,0 -1.09376,0.2187695 -3.20834,0.47397755 -6.34375,0.765625 -0.58334,1.892e-5 -0.94792,-0.29164745 -1.09375,-0.875 0,-0.6562295 0.32812,-1.0208125 0.98437,-1.09375 l 2.07813,-0.109375 2.40625,-0.21875 z m -6.34375,13.015625 c -1.3125,1.531257 -1.96875,3.026047 -1.96875,4.484375 0.0729,1.750002 0.61979,2.625001 1.64063,2.625 0.94791,0.07292 1.93228,-0.729165 2.95312,-2.40625 0.58333,-1.093745 1.09375,-2.114577 1.53125,-3.0625 0.51041,-1.239575 0.94791,-2.5520739 1.3125,-3.9375 -2.40625,0.2187606 -4.22917,0.9843848 -5.46875,2.296875 z"
     style="font-size:28px;font-variant:normal;font-stretch:normal;fill:#f2f2f2;font-family:HGMaruGothicMPRO;-inkscape-font-specification:HGMaruGothicMPRO"
     id="path3642" /></g></g></g></g></svg>
