<?xml version="1.0" encoding="UTF-8" standalone="no"?>
<!-- Generator: Adobe Illustrator 16.0.4, SVG Export Plug-In . SVG Version: 6.00 Build 0)  -->

<svg
   xmlns:dc="http://purl.org/dc/elements/1.1/"
   xmlns:cc="http://creativecommons.org/ns#"
   xmlns:rdf="http://www.w3.org/1999/02/22-rdf-syntax-ns#"
   xmlns:svg="http://www.w3.org/2000/svg"
   xmlns="http://www.w3.org/2000/svg"
   xmlns:sodipodi="http://sodipodi.sourceforge.net/DTD/sodipodi-0.dtd"
   xmlns:inkscape="http://www.inkscape.org/namespaces/inkscape"
   version="1.1"
   id="レイヤー_1"
   x="0px"
   y="0px"
   width="172"
   height="29"
   viewBox="0 0 172 29"
   enable-background="new 0 0 120 23"
   xml:space="preserve"
   inkscape:version="0.48.5 r10040"
   sodipodi:docname="moyaseru.svg"><metadata
   id="metadata4427"><rdf:RDF><cc:Work
       rdf:about=""><dc:format>image/svg+xml</dc:format><dc:type
         rdf:resource="http://purl.org/dc/dcmitype/StillImage" /><dc:title /></cc:Work></rdf:RDF></metadata><defs
   id="defs4425" /><sodipodi:namedview
   pagecolor="#ffffff"
   bordercolor="#666666"
   borderopacity="1"
   objecttolerance="10"
   gridtolerance="10"
   guidetolerance="10"
   inkscape:pageopacity="0"
   inkscape:pageshadow="2"
   inkscape:window-width="1366"
   inkscape:window-height="706"
   id="namedview4423"
   showgrid="false"
   inkscape:zoom="5.075"
   inkscape:cx="101.89188"
   inkscape:cy="16.507389"
   inkscape:window-x="-8"
   inkscape:window-y="-8"
   inkscape:window-maximized="1"
   inkscape:current-layer="flowRoot3556" />





<text
   xml:space="preserve"
   style="font-size:13.42425632px;font-style:normal;font-weight:normal;line-height:125%;letter-spacing:0px;word-spacing:0px;fill:#f6f6f6;fill-opacity:1;stroke:none;font-family:Sans"
   x="6.7928081"
   y="16.944874"
   id="text4429"
   sodipodi:linespacing="125%"
   transform="scale(0.7536626,1.3268537)"><tspan
     sodipodi:role="line"
     x="6.7928081"
     y="16.944874"
     id="tspan4433"
     style="font-size:13px" /></text>





<flowRoot
   xml:space="preserve"
   id="flowRoot4945"
   style="font-size:11px;font-style:normal;font-weight:normal;line-height:125%;letter-spacing:0px;word-spacing:0px;fill:#000000;fill-opacity:1;stroke:none;font-family:Sans"
   transform="translate(0,6)"><flowRegion
     id="flowRegion4947"><rect
       id="rect4949"
       width="392.31528"
       height="103.64532"
       x="32.118225"
       y="-121.23645" /></flowRegion><flowPara
     id="flowPara4951" /></flowRoot><flowRoot
   xml:space="preserve"
   id="flowRoot3319"
   style="font-size:11px;font-style:normal;font-weight:normal;line-height:125%;letter-spacing:0px;word-spacing:0px;fill:#000000;fill-opacity:1;stroke:none;font-family:Sans"
   transform="translate(0,6)"><flowRegion
     id="flowRegion3321"><rect
       id="rect3323"
       width="181.28079"
       height="36.256157"
       x="0"
       y="-7.1477833" /></flowRegion><flowPara
     id="flowPara3325" /></flowRoot><g
   transform="translate(4,12)"
   style="font-size:11px;font-style:normal;font-weight:normal;line-height:125%;letter-spacing:0px;word-spacing:0px;fill:#f2f2f2;fill-opacity:1;stroke:none;font-family:Sans"
   id="flowRoot3327">path
     d=m 31.460937,-2.6953125 c -1.2e-5,-0.5156075 0.229154,-0.7734197 0.6875,-0.7734375 0.45832,1.78e-5 0.687486,0.25783 0.6875,0.7734375 -1.4e-5,0.3437667 -0.02866,1.0599118 -0.08594,2.1484375 2.177067,1.487e-5 3.86717,0.60157677 5.070312,1.8046875 1.145814,1.1458452 1.71873,2.8359477 1.71875,5.0703125 -2e-5,1.5468814 -0.486999,2.8645885 -1.460937,3.953125 -1.031268,0.973961 -2.148455,1.46094 -3.351563,1.460938 -0.744806,2e-6 -1.460952,-0.143227 -2.148437,-0.429688 C 31.776029,10.968753 30.973946,10.453129 30.171875,9.765625 29.885405,9.4791715 29.828114,9.1640677 30,8.8203125 30.286447,8.53386 30.572905,8.4765683 30.859375,8.6484375 c 1.432278,1.1458379 2.664048,1.6901085 3.695312,1.6328125 0.802067,4e-6 1.518212,-0.257808 2.148438,-0.7734375 0.572898,-0.5156197 0.973939,-1.2604106 1.203125,-2.234375 0.171856,-0.9166587 0.171856,-1.7760328 0,-2.578125 C 37.734356,3.6067815 37.304669,2.7474074 36.617187,2.1171875 35.585921,1.200534 34.296859,0.74220108 32.75,0.7421875 c -1.4e-5,0.4583465 -0.02866,0.9739709 -0.08594,1.546875 -0.0573,0.744803 -0.171888,1.4323023 -0.34375,2.0625 -0.22918,0.8593841 -0.572929,1.5182376 -1.03125,1.9765625 C 31.059883,6.5572994 30.773425,6.614591 30.429687,6.5 30.143218,6.2135498 30.114572,5.8984459 30.34375,5.5546875 c 0.515613,-0.8593654 0.830717,-1.8333227 0.945312,-2.921875 0.05728,-0.5729044 0.08592,-1.1458205 0.08594,-1.71875 -0.802095,0.1718882 -1.546886,0.4010547 -2.234375,0.6875 C 27.651033,2.1744913 26.104159,2.8333448 24.5,3.578125 c 0.802077,2.2343835 1.518222,4.0963608 2.148437,5.5859375 0.6302,1.4322955 1.575512,3.3802105 2.835938,5.8437505 0.229156,0.515623 0.143218,0.916665 -0.257813,1.203124 -0.515635,0.229165 -0.916676,0.114582 -1.203125,-0.343749 C 26.132805,11.914065 24.52864,8.0182355 23.210937,4.1796875 22.40885,4.5807389 21.664059,4.9531344 20.976562,5.296875 20.518227,5.5260505 20.145832,5.4114672 19.859375,4.953125 19.744791,4.4948015 19.88802,4.1510518 20.289062,3.921875 20.97656,3.6354274 21.807289,3.2630319 22.78125,2.8046875 c -0.401045,-1.2604039 -0.830732,-2.5208193 -1.289063,-3.78125 -0.114586,-0.5156092 0.05729,-0.8593588 0.515625,-1.03125 0.45833,-0.1145669 0.773434,0.057308 0.945313,0.515625 0.401037,1.37501444 0.773432,2.606784 1.117187,3.6953125 C 25.846347,1.5156378 27.39322,0.91407591 28.710937,0.3984375 29.684885,0.05470177 30.572905,-0.20311048 31.375,-0.375 c 0.05728,-1.1458175 0.08592,-1.9192542 0.08594,-2.3203125 z
     style=font-size:22px;font-variant:normal;font-stretch:normal;font-family:HGMaruGothicMPRO;-inkscape-font-specification:HGMaruGothicMPRO;fill:#f2f2f2
     id=path3338 /path
     d=m 115.67969,-2.609375 c 0.45832,-0.057275 0.83072,-0.057275 1.11719,0 0.51561,0.1718918 0.85936,0.4869956 1.03125,0.9453125 0.11457,0.2291824 0.17186,0.5729321 0.17187,1.03125 -0.0573,0.80209748 -0.31512,2.1198045 -0.77344,3.953125 l -0.42968,1.375 c 1.9479,0.2864677 4.0104,0.8880296 6.1875,1.8046875 0.17185,-2.1197817 0.25779,-3.8098842 0.25781,-5.0703125 -2e-5,-0.5729032 0.25779,-0.85936125 0.77344,-0.859375 0.5156,1.375e-5 0.77341,0.2864718 0.77343,0.859375 -2e-5,1.6614696 -0.1146,3.5520927 -0.34375,5.671875 1.48957,0.6875065 2.46352,1.203131 2.92188,1.546875 0.34373,0.3437553 0.42966,0.7447966 0.25781,1.203125 -0.34377,0.4010455 -0.8021,0.4296915 -1.375,0.085937 -0.63023,-0.4010369 -1.28908,-0.8020781 -1.97656,-1.203125 -0.28648,2.406253 -0.97398,4.125001 -2.0625,5.15625 -1.03127,0.973958 -2.63543,1.804686 -4.8125,2.492187 -0.40105,0.05729 -0.65887,-0.08594 -0.77344,-0.429687 -0.11459,-0.343751 0.0286,-0.601564 0.42969,-0.773437 1.83332,-0.572917 3.20832,-1.317708 4.125,-2.234375 0.91665,-0.973956 1.46092,-2.578122 1.63281,-4.8125005 -1.94793,-1.0312428 -4.06772,-1.7760337 -6.35937,-2.234375 -0.57293,1.7187567 -1.14585,3.1796927 -1.71875,4.3828125 -0.68751,1.432294 -1.40366,2.549481 -2.14844,3.351563 -0.63022,0.572916 -1.31772,0.859374 -2.0625,0.859375 -0.85938,-1e-6 -1.51823,-0.315105 -1.97656,-0.945313 -0.45834,-0.630207 -0.68751,-1.432289 -0.6875,-2.40625 -1e-5,-1.3749954 0.54426,-2.7213483 1.63281,-4.0390625 1.3177,-1.432283 3.29426,-2.2630114 5.92969,-2.4921875 0.68749,-2.5781127 1.03124,-4.23956938 1.03125,-4.984375 -1e-5,-0.40102657 -0.0859,-0.6588388 -0.25782,-0.7734375 -0.17188,-0.1145677 -0.48699,-0.1145677 -0.94531,0 -0.85938,0.1718903 -2.52084,0.37241093 -4.98437,0.6015625 -0.45834,1.487e-5 -0.7448,-0.22915157 -0.85938,-0.6875 0,-0.5156089 0.25781,-0.802067 0.77344,-0.859375 l 1.63281,-0.085937 1.89063,-0.171875 z m -4.98438,10.2265625 c -1.03125,1.2031305 -1.54687,2.3776085 -1.54687,3.5234375 0.0573,1.375002 0.48697,2.062501 1.28906,2.0625 0.74479,0.05729 1.51822,-0.572915 2.32031,-1.890625 0.45833,-0.859371 0.85937,-1.6614537 1.20313,-2.40625 0.40103,-0.9739519 0.74478,-2.0052009 1.03125,-3.09375 -1.89063,0.1718833 -3.32292,0.7734452 -4.29688,1.8046875 z
     style=font-size:22px;font-variant:normal;font-stretch:normal;font-family:HGMaruGothicMPRO;-inkscape-font-specification:HGMaruGothicMPRO;fill:#f2f2f2
     id=path3346 /path
     d=m 269.67969,-2.609375 c 0.45832,-0.057275 0.83072,-0.057275 1.11718,0 0.51562,0.1718918 0.85937,0.4869956 1.03125,0.9453125 0.11458,0.2291824 0.17187,0.5729321 0.17188,1.03125 -0.0573,0.80209748 -0.31512,2.1198045 -0.77344,3.953125 l -0.42969,1.375 c 1.94791,0.2864677 4.01041,0.8880296 6.1875,1.8046875 0.17186,-2.1197817 0.2578,-3.8098842 0.25782,-5.0703125 -2e-5,-0.5729032 0.25779,-0.85936125 0.77343,-0.859375 0.51561,1.375e-5 0.77342,0.2864718 0.77344,0.859375 -2e-5,1.6614696 -0.1146,3.5520927 -0.34375,5.671875 1.48957,0.6875065 2.46352,1.203131 2.92188,1.546875 0.34373,0.3437553 0.42966,0.7447966 0.25781,1.203125 -0.34377,0.4010455 -0.8021,0.4296915 -1.375,0.085937 -0.63023,-0.4010369 -1.28908,-0.8020781 -1.97656,-1.203125 -0.28648,2.406253 -0.97398,4.125001 -2.0625,5.15625 -1.03127,0.973958 -2.63543,1.804686 -4.8125,2.492187 -0.40105,0.05729 -0.65887,-0.08594 -0.77344,-0.429687 -0.11459,-0.343751 0.0286,-0.601564 0.42969,-0.773437 1.83332,-0.572917 3.20832,-1.317708 4.125,-2.234375 0.91665,-0.973956 1.46092,-2.578122 1.63281,-4.8125005 -1.94793,-1.0312428 -4.06772,-1.7760337 -6.35938,-2.234375 -0.57292,1.7187567 -1.14584,3.1796927 -1.71875,4.3828125 -0.6875,1.432294 -1.40365,2.549481 -2.14843,3.351563 -0.63022,0.572916 -1.31772,0.859374 -2.0625,0.859375 -0.85938,-1e-6 -1.51823,-0.315105 -1.97657,-0.945313 -0.45833,-0.630207 -0.6875,-1.432289 -0.6875,-2.40625 0,-1.3749954 0.54427,-2.7213483 1.63282,-4.0390625 1.3177,-1.432283 3.29426,-2.2630114 5.92968,-2.4921875 0.6875,-2.5781127 1.03125,-4.23956938 1.03125,-4.984375 0,-0.40102657 -0.0859,-0.6588388 -0.25781,-0.7734375 -0.17188,-0.1145677 -0.48699,-0.1145677 -0.94531,0 -0.85938,0.1718903 -2.52084,0.37241093 -4.98438,0.6015625 -0.45833,1.487e-5 -0.74479,-0.22915157 -0.85937,-0.6875 0,-0.5156089 0.25781,-0.802067 0.77344,-0.859375 l 1.63281,-0.085937 1.89062,-0.171875 z m -4.98438,10.2265625 c -1.03125,1.2031305 -1.54687,2.3776085 -1.54687,3.5234375 0.0573,1.375002 0.48697,2.062501 1.28906,2.0625 0.74479,0.05729 1.51822,-0.572915 2.32031,-1.890625 0.45833,-0.859371 0.85937,-1.6614537 1.20313,-2.40625 0.40103,-0.9739519 0.74478,-2.0052009 1.03125,-3.09375 -1.89063,0.1718833 -3.32292,0.7734452 -4.29688,1.8046875 z
     style=font-size:22px;font-variant:normal;font-stretch:normal;font-family:HGMaruGothicMPRO;-inkscape-font-specification:HGMaruGothicMPRO;fill:#f2f2f2
     id=path3360 /<g
   transform="translate(-4,-10)"
   style="line-height:125%;fill:#f2f2f2;font-family:Sans"
   id="flowRoot3495">path
     d=&quot;m 83.1875,2 c 0.583307,2.13e-5 0.874973,0.2552294 0.875,0.765625 -2.7e-5,0.5104367 -0.291693,0.7656448 -0.875,0.765625 l -1.421875,0 0,17.71875 c -2.4e-5,2.843749 -1.531273,4.265623 -4.59375,4.265625 -2.625017,-2e-6 -5.14064,-0.328127 -7.546875,-0.984375 -0.437512,-0.07292 -0.656262,-0.364584 -0.65625,-0.875 C 69.041655,23.21875 69.296863,23 69.734375,23 c 2.333319,0.4375 4.520816,0.65625 6.5625,0.65625 2.333312,0 3.499978,-0.765625 3.5,-2.296875 l 0,-17.828125 -20.34375,0 C 58.86979,3.5312698 58.578124,3.2760617 58.578125,2.765625 58.578124,2.2552294 58.86979,2.0000213 59.453125,2 z m -9.625,5.140625 c 0.437483,1.62e-5 0.838525,0.1823077 1.203125,0.546875 0.364566,0.3645986 0.546857,0.7656399 0.546875,1.203125 l 0,8.640625 c -1.8e-5,0.437505 -0.182309,0.838547 -0.546875,1.203125 -0.3646,0.364588 -0.765642,0.546879 -1.203125,0.546875 l -9.734375,0 c -0.437506,4e-6 -0.838547,-0.182287 -1.203125,-0.546875 -0.364588,-0.364578 -0.54688,-0.76562 -0.546875,-1.203125 l 0,-8.640625 C 62.07812,8.4531399 62.260412,8.0520986 62.625,7.6875 62.989578,7.3229327 63.390619,7.1406412 63.828125,7.140625 z m -8.75,1.53125 c -0.510424,1.47e-5 -0.765632,0.2552227 -0.765625,0.765625 l 0,7.546875 c -7e-6,0.510422 0.255201,0.765631 0.765625,0.765625 l 7.765625,0 c 0.510401,6e-6 0.765609,-0.255203 0.765625,-0.765625 l 0,-7.546875 C 73.343734,8.9270977 73.088526,8.6718897 72.578125,8.671875 z&quot;
     style=&quot;font-size:28px;font-variant:normal;font-stretch:normal;fill:#f2f2f2;font-family:HGMaruGothicMPRO;-inkscape-font-specification:HGMaruGothicMPRO&quot;
     id=&quot;path3508&quot; /&gt;path
     d=&quot;m 152.85937,1.78125 c 0.58333,-0.072895 1.05728,-0.072895 1.42188,0 0.65624,0.2187713 1.09374,0.6198126 1.3125,1.203125 0.14582,0.2916867 0.21874,0.7291863 0.21875,1.3125 -0.0729,1.0208513 -0.40106,2.697933 -0.98438,5.03125 l -0.54687,1.75 c 2.47915,0.364595 5.10415,1.130219 7.875,2.296875 0.21873,-2.697904 0.3281,-4.8489435 0.32812,-6.453125 -2e-5,-0.7291495 0.32811,-1.0937325 0.98438,-1.09375 0.65623,1.75e-5 0.98435,0.3646005 0.98437,1.09375 -2e-5,2.1145976 -0.14585,4.520845 -0.4375,7.21875 1.89581,0.875008 3.1354,1.531258 3.71875,1.96875 0.43748,0.437507 0.54685,0.947923 0.32813,1.53125 -0.43753,0.510422 -1.02086,0.54688 -1.75,0.109375 -0.80211,-0.510411 -1.64065,-1.020827 -2.51563,-1.53125 -0.3646,3.062504 -1.2396,5.250002 -2.625,6.5625 -1.31251,1.239583 -3.35418,2.296873 -6.125,3.171875 -0.51042,0.07291 -0.83855,-0.109378 -0.98437,-0.546875 -0.14585,-0.437502 0.0365,-0.765626 0.54687,-0.984375 2.33332,-0.729167 4.08332,-1.677083 5.25,-2.84375 1.16665,-1.23958 1.85936,-3.281245 2.07813,-6.125 -2.47918,-1.312491 -5.1771,-2.260407 -8.09375,-2.84375 -0.72918,2.187509 -1.45834,4.046882 -2.1875,5.578125 -0.87501,1.82292 -1.78647,3.244794 -2.73438,4.265625 -0.80209,0.729167 -1.67708,1.09375 -2.625,1.09375 -1.09375,0 -1.93229,-0.401041 -2.51562,-1.203125 -0.58334,-0.802082 -0.875,-1.822914 -0.875,-3.0625 0,-1.749994 0.69271,-3.463534 2.07812,-5.140625 1.67708,-1.822906 4.19271,-2.880196 7.54688,-3.171875 0.87499,-3.2812344 1.31249,-5.3958156 1.3125,-6.34375 -1e-5,-0.5103975 -0.10939,-0.8385221 -0.32813,-0.984375 -0.21876,-0.1458135 -0.6198,-0.1458135 -1.20312,0 -1.09376,0.2187695 -3.20834,0.4739775 -6.34375,0.765625 -0.58334,1.89e-5 -0.94792,-0.2916475 -1.09375,-0.875 0,-0.6562295 0.32812,-1.0208125 0.98437,-1.09375 l 2.07813,-0.109375 2.40625,-0.21875 z m -6.34375,13.015625 c -1.3125,1.531257 -1.96875,3.026047 -1.96875,4.484375 0.0729,1.750002 0.61979,2.625001 1.64063,2.625 0.94791,0.07292 1.93228,-0.729165 2.95312,-2.40625 0.58333,-1.093745 1.09375,-2.114577 1.53125,-3.0625 0.51041,-1.239575 0.94791,-2.552074 1.3125,-3.9375 -2.40625,0.218761 -4.22917,0.984385 -5.46875,2.296875 z&quot;
     style=&quot;font-size:28px;font-variant:normal;font-stretch:normal;fill:#f2f2f2;font-family:HGMaruGothicMPRO;-inkscape-font-specification:HGMaruGothicMPRO&quot;
     id=&quot;path3514&quot; /&gt;<g
   transform="translate(-2,2)"
   style="font-size:11px;font-style:normal;font-weight:normal;line-height:125%;letter-spacing:0px;word-spacing:0px;fill:#f2f2f2;fill-opacity:1;stroke:none;font-family:Sans"
   id="flowRoot3556"><path
     d="m 11.734375,0.203125 c 0.145823,-0.65622791 0.546864,-0.94789428 1.203125,-0.875 0.583321,0.0729389 0.838529,0.43752188 0.765625,1.09375 l -0.21875,0.875 -0.4375,2.1875 L 16,3.375 l 5.796875,0 L 24.75,3.484375 c 0.656226,1.82e-5 0.984351,0.3281428 0.984375,0.984375 C 25.734351,5.1250165 25.406226,5.4531412 24.75,5.453125 21.46873,5.307308 18.333317,5.2343914 15.34375,5.234375 l -2.625,0.109375 c -0.364594,2.0416809 -0.65626,3.8645958 -0.875,5.46875 l 1.96875,0 c 3.864567,-0.145822 7.145814,-0.437489 9.84375,-0.875 0.656227,1.17e-5 1.02081,0.291678 1.09375,0.875 0.07289,0.583344 -0.218773,0.947927 -0.875,1.09375 -1.822937,0.21876 -4.192726,0.401051 -7.109375,0.546875 -2.04168,0.07293 -3.718761,0.109384 -5.03125,0.109375 l -0.21875,2.296875 c -0.07293,2.479171 0.43749,4.265628 1.53125,5.359375 0.947904,1.020834 2.624986,1.53125 5.03125,1.53125 1.458315,0 2.953106,-0.21875 4.484375,-0.65625 1.604144,-0.510416 2.624976,-1.458331 3.0625,-2.84375 0.218726,-0.874996 0.218726,-1.64062 0,-2.296875 -0.218774,-0.656244 -0.51044,-1.312493 -0.875,-1.96875 -0.145856,-0.510408 -2.3e-5,-0.838533 0.4375,-0.984375 0.364559,-0.145825 0.692684,-0.07291 0.984375,0.21875 0.656225,0.947924 1.093724,1.822923 1.3125,2.625 0.145807,0.583339 0.218724,1.130213 0.21875,1.640625 -2.6e-5,1.895836 -0.838567,3.354167 -2.515625,4.375 -1.750022,1.020832 -4.192728,1.531248 -7.328125,1.53125 -2.625014,-2e-6 -4.63022,-0.583335 -6.015625,-1.75 -1.385426,-1.312499 -2.0781332,-3.281247 -2.078125,-5.90625 -8.2e-6,-0.94791 0.072908,-2.0052 0.21875,-3.171875 -1.4583403,-0.07291 -3.0260471,-0.255199 -4.703125,-0.546875 -0.6562531,-0.145824 -0.9479194,-0.510407 -0.875,-1.09375 0.072914,-0.510405 0.4010384,-0.765614 0.984375,-0.765625 1.7499944,0.291678 3.3541595,0.473969 4.8125,0.546875 0.145825,-1.6041541 0.364574,-3.3906107 0.65625,-5.359375 L 8.015625,5.5625 5.28125,5.78125 c -0.5833365,1.59e-5 -0.9114611,-0.2916505 -0.984375,-0.875 -2.7e-6,-0.583316 0.2916636,-0.9114407 0.875,-0.984375 L 8.34375,3.703125 11.1875,3.484375 11.515625,1.40625 z"
     style="font-size:28px;font-variant:normal;font-stretch:normal;fill:#f2f2f2;font-family:HGMaruGothicMPRO;-inkscape-font-specification:HGMaruGothicMPRO"
     id="path3565" /><path
     d="m 45.859375,-0.015625 c -1.6e-5,-0.65622769 0.29165,-0.98435236 0.875,-0.984375 0.583316,2.264e-5 0.874982,0.32814731 0.875,0.984375 -1.8e-5,0.43752122 -0.03648,1.3489786 -0.109375,2.734375 2.770813,1.89e-5 4.921852,0.7656432 6.453125,2.296875 1.458307,1.4583485 2.187473,3.609388 2.1875,6.453125 -2.7e-5,1.968758 -0.619818,3.64584 -1.859375,5.03125 -1.312523,1.239587 -2.734397,1.859378 -4.265625,1.859375 -0.947936,3e-6 -1.859394,-0.182288 -2.734375,-0.546875 C 46.2604,17.375004 45.239568,16.718755 44.21875,15.84375 43.854152,15.479173 43.781236,15.078132 44,14.640625 c 0.364569,-0.364576 0.729151,-0.437493 1.09375,-0.21875 1.822899,1.458339 3.390606,2.151047 4.703125,2.078125 1.020812,5e-6 1.932269,-0.32812 2.734375,-0.984375 0.729143,-0.656243 1.239559,-1.604159 1.53125,-2.84375 0.218725,-1.166657 0.218725,-2.260405 0,-3.28125 C 53.843726,8.005222 53.296851,6.9114731 52.421875,6.109375 51.109353,4.942725 49.46873,4.3593923 47.5,4.359375 c -1.8e-5,0.58335 -0.03648,1.2395994 -0.109375,1.96875 -0.07293,0.947931 -0.218768,1.8229302 -0.4375,2.625 -0.291684,1.093762 -0.729183,1.932302 -1.3125,2.515625 -0.291682,0.291677 -0.656265,0.364593 -1.09375,0.21875 -0.364598,-0.364573 -0.401056,-0.765614 -0.109375,-1.203125 0.656234,-1.0937377 1.057276,-2.3333198 1.203125,-3.71875 0.0729,-0.7291511 0.109359,-1.458317 0.109375,-2.1875 -1.020849,0.2187668 -1.968764,0.5104332 -2.84375,0.875 C 41.010405,6.1823071 39.041657,7.020848 37,7.96875 c 1.020825,2.843761 1.932282,5.21355 2.734375,7.109375 0.802072,1.822921 2.005196,4.302086 3.609375,7.4375 0.291653,0.656248 0.182278,1.166665 -0.328125,1.53125 -0.656263,0.291664 -1.166679,0.145831 -1.53125,-0.4375 -2.40626,-5.031247 -4.447924,-9.989575 -6.125,-14.875 -1.020838,0.5104291 -1.968754,0.9843869 -2.84375,1.421875 -0.583336,0.291678 -1.057294,0.145845 -1.421875,-0.4375 -0.145835,-0.5833208 0.03646,-1.0208204 0.546875,-1.3125 0.874997,-0.3645697 1.932288,-0.8385276 3.171875,-1.421875 -0.510421,-1.6041504 -1.057296,-3.2083155 -1.640625,-4.8125 -0.145837,-0.6562299 0.07291,-1.0937294 0.65625,-1.3125 0.583328,-0.14581241 0.98437,0.0729374 1.203125,0.65625 0.510411,1.7500184 0.984369,3.3177251 1.421875,4.703125 2.260408,-0.8749837 4.229156,-1.6406079 5.90625,-2.296875 C 43.598944,3.4843932 44.729151,3.1562685 45.75,2.9375 45.8229,1.4791868 45.859359,0.49481281 45.859375,-0.015625 z"
     style="font-size:28px;font-variant:normal;font-stretch:normal;fill:#f2f2f2;font-family:HGMaruGothicMPRO;-inkscape-font-specification:HGMaruGothicMPRO"
     id="path3567" /><path
     d="m 79.546875,6.984375 0,2.625 c -2.2e-5,2.843759 -0.328147,4.666674 -0.984375,5.46875 -0.65627,0.802089 -1.494811,1.20313 -2.515625,1.203125 -1.531267,5e-6 -3.208349,-0.473952 -5.03125,-1.421875 -0.51043,-0.364576 -0.619805,-0.802076 -0.328125,-1.3125 0.218737,-0.364575 0.58332,-0.437491 1.09375,-0.21875 0.874985,0.364591 1.567693,0.619799 2.078125,0.765625 0.5104,0.145841 1.093733,0.218757 1.75,0.21875 0.802064,7e-6 1.312481,-0.255201 1.53125,-0.765625 0.291647,-0.656241 0.43748,-1.713532 0.4375,-3.171875 l 0,-3.28125 -12.140625,0.875 0,7.65625 c -8e-6,2.114587 0.401033,3.609377 1.203125,4.484375 0.802073,0.875001 2.114572,1.3125 3.9375,1.3125 2.406235,0 4.812482,-0.109375 7.21875,-0.328125 0.947895,-0.07292 2.005186,-0.218749 3.171875,-0.4375 0.729143,1e-6 1.130184,0.328126 1.203125,0.984375 -2.5e-5,0.583333 -0.328149,0.947916 -0.984375,1.09375 -2.114605,0.218749 -4.265644,0.364582 -6.453125,0.4375 l -4.15625,0 C 67.880198,23.171873 66.020825,22.515624 65,21.203125 63.97916,20.03646 63.468744,18.031254 63.46875,15.1875 l 0,-7.109375 -3.609375,0.21875 c -0.510418,1.33e-5 -0.802085,-0.2551947 -0.875,-0.765625 -10e-7,-0.5833186 0.291665,-0.9114433 0.875,-0.984375 l 3.609375,-0.21875 0,-4.375 c -6e-6,-0.7291463 0.328119,-1.09372922 0.984375,-1.09375 0.656242,2.078e-5 0.984367,0.3646037 0.984375,1.09375 l 0,4.265625 12.140625,-0.875 0,-4.8125 c -2e-5,-0.72914483 0.328105,-1.0937278 0.984375,-1.09375 0.656228,2.22e-5 0.984353,0.36460517 0.984375,1.09375 l 0,4.703125 3.71875,-0.21875 c 0.72914,-0.0729 1.093723,0.2187664 1.09375,0.875 -2.7e-5,0.5104319 -0.36461,0.8020983 -1.09375,0.875 z"
     style="font-size:28px;font-variant:normal;font-stretch:normal;fill:#f2f2f2;font-family:HGMaruGothicMPRO;-inkscape-font-specification:HGMaruGothicMPRO"
     id="path3569" /><path
     d="m 107.76563,1.078125 c 0.14581,0.5833533 -3e-5,1.1302278 -0.4375,1.640625 -0.51044,0.5104351 -1.27607,1.0937678 -2.29688,1.75 -1.38543,0.8750163 -2.69793,1.7500154 -3.9375,2.625 l -3.828125,2.625 c 2.333319,-0.6562374 4.265605,-0.9843621 5.796875,-0.984375 2.98956,1.29e-5 5.32289,0.8020954 7,2.40625 1.16664,1.166676 1.74997,2.770841 1.75,4.8125 -3e-5,2.26042 -1.09378,4.119793 -3.28125,5.578125 -2.18752,1.385415 -4.77606,2.078123 -7.76562,2.078125 C 97.192697,23.609373 94.604158,22.843749 93,21.3125 92.19791,20.364585 91.796869,19.453127 91.796875,18.578125 91.796869,17.776046 92.052077,17.083338 92.5625,16.5 c 0.874992,-0.947911 2.151033,-1.421868 3.828125,-1.421875 1.677071,7e-6 3.317694,0.619798 4.921875,1.859375 1.23957,1.020837 2.29686,2.442711 3.17188,4.265625 1.31247,-0.218749 2.55206,-0.83854 3.71875,-1.859375 1.0208,-0.947913 1.53122,-2.114579 1.53125,-3.5 -3e-5,-1.531243 -0.47399,-2.770825 -1.42188,-3.71875 -1.31252,-1.239573 -3.13544,-1.859364 -5.46875,-1.859375 -2.26043,1.1e-5 -4.265638,0.328136 -6.015625,0.984375 -2.260426,0.87501 -4.666673,2.223967 -7.21875,4.046875 -0.583337,0.291673 -1.093753,0.182298 -1.53125,-0.328125 -0.218752,-0.583326 -0.109377,-1.057284 0.328125,-1.421875 5.249992,-3.135405 10.973945,-7.0729015 17.17188,-11.8125 l -3.17188,0.21875 -4.375,0.328125 L 94.640625,2.5 91.578125,2.71875 C 90.848953,2.7916855 90.48437,2.4635608 90.484375,1.734375 90.48437,1.0781456 90.812495,0.75002089 91.46875,0.75 96.645822,0.53127111 101.53123,0.27606303 106.125,-0.015625 c 0.80206,0.07293825 1.34894,0.43752122 1.64063,1.09375 z m -14.218755,17.28125 c -8e-6,1.020836 0.619783,1.895835 1.859375,2.625 1.166656,0.65625 2.734362,0.984375 4.70313,0.984375 0.65623,0 1.16665,-0.03646 1.53125,-0.109375 0.36456,-0.07292 0.61977,-0.145833 0.76562,-0.21875 -0.43752,-1.093749 -1.13022,-2.15104 -2.07812,-3.171875 -1.385435,-1.239579 -2.77085,-1.85937 -4.156255,-1.859375 -1.677092,5e-6 -2.552091,0.583338 -2.625,1.75 z"
     style="font-size:28px;font-variant:normal;font-stretch:normal;fill:#f2f2f2;font-family:HGMaruGothicMPRO;-inkscape-font-specification:HGMaruGothicMPRO"
     id="path3571" /><path
     d="m 120.89063,10.59375 c 0.43749,0.364594 0.5104,0.765635 0.21875,1.203125 -1.23959,1.895841 -1.85939,3.390631 -1.85938,4.484375 -1e-5,1.531254 0.6927,2.697919 2.07813,3.5 1.45832,0.729168 3.86457,1.093751 7.21874,1.09375 2.98957,1e-6 6.05207,-0.364582 9.1875,-1.09375 0.72915,-0.145831 1.2031,0.109377 1.42188,0.765625 0.14581,0.729167 -0.21878,1.203125 -1.09375,1.421875 -2.62502,0.510416 -5.79689,0.765624 -9.51563,0.765625 -4.52084,-1e-6 -7.54688,-0.619792 -9.07812,-1.859375 -1.45834,-1.239581 -2.1875,-2.697913 -2.1875,-4.375 0,-1.677077 0.72916,-3.572908 2.1875,-5.6875 0.36458,-0.437489 0.83853,-0.510405 1.42188,-0.21875 z M 135,1.84375 c 0.65623,0.145853 0.94789,0.5468943 0.875,1.203125 -0.14586,0.5833513 -0.5469,0.8385594 -1.20313,0.765625 -1.45835,-0.2916485 -3.2448,-0.4374817 -5.35937,-0.4375 -3.57293,1.83e-5 -6.92709,0.2916846 -10.0625,0.875 -0.58334,0.072934 -0.94792,-0.1822741 -1.09375,-0.765625 0,-0.510398 0.2552,-0.8385227 0.76563,-0.984375 3.64582,-0.7291468 7.14582,-1.0937298 10.49999,-1.09375 2.2604,2.02e-5 4.11978,0.1458534 5.57813,0.4375 z m 3.0625,-3.609375 c 0.36456,-0.1458098 0.69268,-0.072893 0.98437,0.21875 0.80206,0.94793891 1.53123,2.00522952 2.1875,3.171875 0.14581,0.5104362 0.0364,0.8750191 -0.32812,1.09375 -0.43753,0.1458521 -0.76565,0.036477 -0.98438,-0.328125 -0.51044,-0.9478965 -1.20315,-2.00518708 -2.07812,-3.171875 -0.21877,-0.4374771 -0.14586,-0.7656018 0.21875,-0.984375 z m -2.625,0.984375 c 0.36456,-0.14581077 0.69269,-0.0728942 0.98437,0.21875 0.80206,0.94793792 1.53123,2.0052285 2.1875,3.171875 0.21873,0.5104352 0.10935,0.8750182 -0.32812,1.09375 -0.43752,0.1458511 -0.76565,0.036476 -0.98438,-0.328125 -0.51043,-0.9478975 -1.20314,-2.0051881 -2.07812,-3.171875 -0.21877,-0.36456153 -0.14585,-0.6926862 0.21875,-0.984375 z"
     style="font-size:28px;font-variant:normal;font-stretch:normal;fill:#f2f2f2;font-family:HGMaruGothicMPRO;-inkscape-font-specification:HGMaruGothicMPRO"
     id="path3573" /><path
     d="m 153.04687,0.09375 c 0.58333,-0.07289505 1.05728,-0.07289505 1.42188,0 0.65624,0.21877133 1.09374,0.61981259 1.3125,1.203125 0.14582,0.2916867 0.21874,0.7291863 0.21875,1.3125 -0.0729,1.0208513 -0.40106,2.697933 -0.98438,5.03125 l -0.54687,1.75 c 2.47915,0.3645952 5.10415,1.130219 7.875,2.296875 0.21873,-2.697904 0.3281,-4.8489435 0.32812,-6.453125 -2e-5,-0.7291495 0.32811,-1.0937325 0.98438,-1.09375 0.65623,1.75e-5 0.98435,0.3646005 0.98437,1.09375 -2e-5,2.1145976 -0.14585,4.5208452 -0.4375,7.21875 1.89581,0.875008 3.1354,1.531258 3.71875,1.96875 0.43748,0.437507 0.54685,0.947923 0.32813,1.53125 -0.43753,0.510422 -1.02086,0.54688 -1.75,0.109375 -0.80211,-0.510411 -1.64065,-1.020827 -2.51563,-1.53125 -0.3646,3.062504 -1.2396,5.250002 -2.625,6.5625 -1.31251,1.239583 -3.35418,2.296873 -6.125,3.171875 -0.51042,0.07291 -0.83855,-0.109378 -0.98437,-0.546875 -0.14585,-0.437502 0.0365,-0.765626 0.54687,-0.984375 2.33332,-0.729167 4.08332,-1.677083 5.25,-2.84375 1.16665,-1.23958 1.85936,-3.281245 2.07813,-6.125 -2.47918,-1.312491 -5.1771,-2.260407 -8.09375,-2.84375 -0.72918,2.187509 -1.45834,4.046882 -2.1875,5.578125 -0.87501,1.82292 -1.78647,3.244794 -2.73438,4.265625 -0.80209,0.729167 -1.67708,1.09375 -2.625,1.09375 -1.09375,0 -1.93229,-0.401041 -2.51562,-1.203125 -0.58334,-0.802082 -0.875,-1.822914 -0.875,-3.0625 0,-1.749994 0.69271,-3.463534 2.07812,-5.140625 1.67708,-1.822906 4.19271,-2.8801963 7.54688,-3.171875 0.87499,-3.2812344 1.31249,-5.3958156 1.3125,-6.34375 -1e-5,-0.5103975 -0.10939,-0.8385221 -0.32813,-0.984375 -0.21876,-0.1458135 -0.6198,-0.1458135 -1.20312,0 -1.09376,0.2187695 -3.20834,0.4739775 -6.34375,0.765625 -0.58334,1.89e-5 -0.94792,-0.2916475 -1.09375,-0.875 0,-0.6562295 0.32812,-1.02081252 0.98437,-1.09375 l 2.07813,-0.109375 2.40625,-0.21875 z m -6.34375,13.015625 c -1.3125,1.531257 -1.96875,3.026047 -1.96875,4.484375 0.0729,1.750002 0.61979,2.625001 1.64063,2.625 0.94791,0.07292 1.93228,-0.729165 2.95312,-2.40625 0.58333,-1.093745 1.09375,-2.114577 1.53125,-3.0625 0.51041,-1.239575 0.94791,-2.552074 1.3125,-3.9375 -2.40625,0.218761 -4.22917,0.984385 -5.46875,2.296875 z"
     style="font-size:28px;font-variant:normal;font-stretch:normal;fill:#f2f2f2;font-family:HGMaruGothicMPRO;-inkscape-font-specification:HGMaruGothicMPRO"
     id="path3575" /></g></g></g></svg>
