<?xml version="1.0" encoding="UTF-8" standalone="no"?>
<!-- Generator: Adobe Illustrator 16.0.4, SVG Export Plug-In . SVG Version: 6.00 Build 0)  -->

<svg
   xmlns:dc="http://purl.org/dc/elements/1.1/"
   xmlns:cc="http://creativecommons.org/ns#"
   xmlns:rdf="http://www.w3.org/1999/02/22-rdf-syntax-ns#"
   xmlns:svg="http://www.w3.org/2000/svg"
   xmlns="http://www.w3.org/2000/svg"
   xmlns:sodipodi="http://sodipodi.sourceforge.net/DTD/sodipodi-0.dtd"
   xmlns:inkscape="http://www.inkscape.org/namespaces/inkscape"
   version="1.1"
   id="レイヤー_1"
   x="0px"
   y="0px"
   width="172"
   height="29"
   viewBox="0 0 172 29"
   enable-background="new 0 0 120 23"
   xml:space="preserve"
   inkscape:version="0.48.5 r10040"
   sodipodi:docname="ogatakanen.svg"><metadata
   id="metadata4427"><rdf:RDF><cc:Work
       rdf:about=""><dc:format>image/svg+xml</dc:format><dc:type
         rdf:resource="http://purl.org/dc/dcmitype/StillImage" /><dc:title /></cc:Work></rdf:RDF></metadata><defs
   id="defs4425" /><sodipodi:namedview
   pagecolor="#ffffff"
   bordercolor="#666666"
   borderopacity="1"
   objecttolerance="10"
   gridtolerance="10"
   guidetolerance="10"
   inkscape:pageopacity="0"
   inkscape:pageshadow="2"
   inkscape:window-width="1366"
   inkscape:window-height="706"
   id="namedview4423"
   showgrid="false"
   inkscape:zoom="5.075"
   inkscape:cx="101.89188"
   inkscape:cy="16.507389"
   inkscape:window-x="-8"
   inkscape:window-y="-8"
   inkscape:window-maximized="1"
   inkscape:current-layer="flowRoot3495" />





<text
   xml:space="preserve"
   style="font-size:13.42425632px;font-style:normal;font-weight:normal;line-height:125%;letter-spacing:0px;word-spacing:0px;fill:#f6f6f6;fill-opacity:1;stroke:none;font-family:Sans"
   x="6.7928081"
   y="16.944874"
   id="text4429"
   sodipodi:linespacing="125%"
   transform="scale(0.7536626,1.3268537)"><tspan
     sodipodi:role="line"
     x="6.7928081"
     y="16.944874"
     id="tspan4433"
     style="font-size:13px" /></text>




<flowRoot
   xml:space="preserve"
   id="flowRoot4945"
   style="font-size:11px;font-style:normal;font-weight:normal;line-height:125%;letter-spacing:0px;word-spacing:0px;fill:#000000;fill-opacity:1;stroke:none;font-family:Sans"
   transform="translate(0,6)"><flowRegion
     id="flowRegion4947"><rect
       id="rect4949"
       width="392.31528"
       height="103.64532"
       x="32.118225"
       y="-121.23645" /></flowRegion><flowPara
     id="flowPara4951" /></flowRoot><flowRoot
   xml:space="preserve"
   id="flowRoot3319"
   style="font-size:11px;font-style:normal;font-weight:normal;line-height:125%;letter-spacing:0px;word-spacing:0px;fill:#000000;fill-opacity:1;stroke:none;font-family:Sans"
   transform="translate(0,6)"><flowRegion
     id="flowRegion3321"><rect
       id="rect3323"
       width="181.28079"
       height="36.256157"
       x="0"
       y="-7.1477833" /></flowRegion><flowPara
     id="flowPara3325" /></flowRoot><g
   transform="translate(4,12)"
   style="font-size:11px;font-style:normal;font-weight:normal;line-height:125%;letter-spacing:0px;word-spacing:0px;fill:#f2f2f2;fill-opacity:1;stroke:none;font-family:Sans"
   id="flowRoot3327">path
     d=&quot;m 31.460937,-2.6953125 c -1.2e-5,-0.5156075 0.229154,-0.7734197 0.6875,-0.7734375 0.45832,1.78e-5 0.687486,0.25783 0.6875,0.7734375 -1.4e-5,0.3437667 -0.02866,1.0599118 -0.08594,2.1484375 2.177067,1.487e-5 3.86717,0.60157677 5.070312,1.8046875 1.145814,1.1458452 1.71873,2.8359477 1.71875,5.0703125 -2e-5,1.5468814 -0.486999,2.8645885 -1.460937,3.953125 -1.031268,0.973961 -2.148455,1.46094 -3.351563,1.460938 -0.744806,2e-6 -1.460952,-0.143227 -2.148437,-0.429688 C 31.776029,10.968753 30.973946,10.453129 30.171875,9.765625 29.885405,9.4791715 29.828114,9.1640677 30,8.8203125 30.286447,8.53386 30.572905,8.4765683 30.859375,8.6484375 c 1.432278,1.1458379 2.664048,1.6901085 3.695312,1.6328125 0.802067,4e-6 1.518212,-0.257808 2.148438,-0.7734375 0.572898,-0.5156197 0.973939,-1.2604106 1.203125,-2.234375 0.171856,-0.9166587 0.171856,-1.7760328 0,-2.578125 C 37.734356,3.6067815 37.304669,2.7474074 36.617187,2.1171875 35.585921,1.200534 34.296859,0.74220108 32.75,0.7421875 c -1.4e-5,0.4583465 -0.02866,0.9739709 -0.08594,1.546875 -0.0573,0.744803 -0.171888,1.4323023 -0.34375,2.0625 -0.22918,0.8593841 -0.572929,1.5182376 -1.03125,1.9765625 C 31.059883,6.5572994 30.773425,6.614591 30.429687,6.5 30.143218,6.2135498 30.114572,5.8984459 30.34375,5.5546875 c 0.515613,-0.8593654 0.830717,-1.8333227 0.945312,-2.921875 0.05728,-0.5729044 0.08592,-1.1458205 0.08594,-1.71875 -0.802095,0.1718882 -1.546886,0.4010547 -2.234375,0.6875 C 27.651033,2.1744913 26.104159,2.8333448 24.5,3.578125 c 0.802077,2.2343835 1.518222,4.0963608 2.148437,5.5859375 0.6302,1.4322955 1.575512,3.3802105 2.835938,5.8437505 0.229156,0.515623 0.143218,0.916665 -0.257813,1.203124 -0.515635,0.229165 -0.916676,0.114582 -1.203125,-0.343749 C 26.132805,11.914065 24.52864,8.0182355 23.210937,4.1796875 22.40885,4.5807389 21.664059,4.9531344 20.976562,5.296875 20.518227,5.5260505 20.145832,5.4114672 19.859375,4.953125 19.744791,4.4948015 19.88802,4.1510518 20.289062,3.921875 20.97656,3.6354274 21.807289,3.2630319 22.78125,2.8046875 c -0.401045,-1.2604039 -0.830732,-2.5208193 -1.289063,-3.78125 -0.114586,-0.5156092 0.05729,-0.8593588 0.515625,-1.03125 0.45833,-0.1145669 0.773434,0.057308 0.945313,0.515625 0.401037,1.37501444 0.773432,2.606784 1.117187,3.6953125 C 25.846347,1.5156378 27.39322,0.91407591 28.710937,0.3984375 29.684885,0.05470177 30.572905,-0.20311048 31.375,-0.375 c 0.05728,-1.1458175 0.08592,-1.9192542 0.08594,-2.3203125 z&quot;
     style=&quot;font-size:22px;font-variant:normal;font-stretch:normal;font-family:HGMaruGothicMPRO;-inkscape-font-specification:HGMaruGothicMPRO;fill:#f2f2f2&quot;
     id=&quot;path3338&quot; /&gt;path
     d=&quot;m 115.67969,-2.609375 c 0.45832,-0.057275 0.83072,-0.057275 1.11719,0 0.51561,0.1718918 0.85936,0.4869956 1.03125,0.9453125 0.11457,0.2291824 0.17186,0.5729321 0.17187,1.03125 -0.0573,0.80209748 -0.31512,2.1198045 -0.77344,3.953125 l -0.42968,1.375 c 1.9479,0.2864677 4.0104,0.8880296 6.1875,1.8046875 0.17185,-2.1197817 0.25779,-3.8098842 0.25781,-5.0703125 -2e-5,-0.5729032 0.25779,-0.85936125 0.77344,-0.859375 0.5156,1.375e-5 0.77341,0.2864718 0.77343,0.859375 -2e-5,1.6614696 -0.1146,3.5520927 -0.34375,5.671875 1.48957,0.6875065 2.46352,1.203131 2.92188,1.546875 0.34373,0.3437553 0.42966,0.7447966 0.25781,1.203125 -0.34377,0.4010455 -0.8021,0.4296915 -1.375,0.085937 -0.63023,-0.4010369 -1.28908,-0.8020781 -1.97656,-1.203125 -0.28648,2.406253 -0.97398,4.125001 -2.0625,5.15625 -1.03127,0.973958 -2.63543,1.804686 -4.8125,2.492187 -0.40105,0.05729 -0.65887,-0.08594 -0.77344,-0.429687 -0.11459,-0.343751 0.0286,-0.601564 0.42969,-0.773437 1.83332,-0.572917 3.20832,-1.317708 4.125,-2.234375 0.91665,-0.973956 1.46092,-2.578122 1.63281,-4.8125005 -1.94793,-1.0312428 -4.06772,-1.7760337 -6.35937,-2.234375 -0.57293,1.7187567 -1.14585,3.1796927 -1.71875,4.3828125 -0.68751,1.432294 -1.40366,2.549481 -2.14844,3.351563 -0.63022,0.572916 -1.31772,0.859374 -2.0625,0.859375 -0.85938,-1e-6 -1.51823,-0.315105 -1.97656,-0.945313 -0.45834,-0.630207 -0.68751,-1.432289 -0.6875,-2.40625 -1e-5,-1.3749954 0.54426,-2.7213483 1.63281,-4.0390625 1.3177,-1.432283 3.29426,-2.2630114 5.92969,-2.4921875 0.68749,-2.5781127 1.03124,-4.23956938 1.03125,-4.984375 -1e-5,-0.40102657 -0.0859,-0.6588388 -0.25782,-0.7734375 -0.17188,-0.1145677 -0.48699,-0.1145677 -0.94531,0 -0.85938,0.1718903 -2.52084,0.37241093 -4.98437,0.6015625 -0.45834,1.487e-5 -0.7448,-0.22915157 -0.85938,-0.6875 0,-0.5156089 0.25781,-0.802067 0.77344,-0.859375 l 1.63281,-0.085937 1.89063,-0.171875 z m -4.98438,10.2265625 c -1.03125,1.2031305 -1.54687,2.3776085 -1.54687,3.5234375 0.0573,1.375002 0.48697,2.062501 1.28906,2.0625 0.74479,0.05729 1.51822,-0.572915 2.32031,-1.890625 0.45833,-0.859371 0.85937,-1.6614537 1.20313,-2.40625 0.40103,-0.9739519 0.74478,-2.0052009 1.03125,-3.09375 -1.89063,0.1718833 -3.32292,0.7734452 -4.29688,1.8046875 z&quot;
     style=&quot;font-size:22px;font-variant:normal;font-stretch:normal;font-family:HGMaruGothicMPRO;-inkscape-font-specification:HGMaruGothicMPRO;fill:#f2f2f2&quot;
     id=&quot;path3346&quot; /&gt;path
     d=&quot;m 269.67969,-2.609375 c 0.45832,-0.057275 0.83072,-0.057275 1.11718,0 0.51562,0.1718918 0.85937,0.4869956 1.03125,0.9453125 0.11458,0.2291824 0.17187,0.5729321 0.17188,1.03125 -0.0573,0.80209748 -0.31512,2.1198045 -0.77344,3.953125 l -0.42969,1.375 c 1.94791,0.2864677 4.01041,0.8880296 6.1875,1.8046875 0.17186,-2.1197817 0.2578,-3.8098842 0.25782,-5.0703125 -2e-5,-0.5729032 0.25779,-0.85936125 0.77343,-0.859375 0.51561,1.375e-5 0.77342,0.2864718 0.77344,0.859375 -2e-5,1.6614696 -0.1146,3.5520927 -0.34375,5.671875 1.48957,0.6875065 2.46352,1.203131 2.92188,1.546875 0.34373,0.3437553 0.42966,0.7447966 0.25781,1.203125 -0.34377,0.4010455 -0.8021,0.4296915 -1.375,0.085937 -0.63023,-0.4010369 -1.28908,-0.8020781 -1.97656,-1.203125 -0.28648,2.406253 -0.97398,4.125001 -2.0625,5.15625 -1.03127,0.973958 -2.63543,1.804686 -4.8125,2.492187 -0.40105,0.05729 -0.65887,-0.08594 -0.77344,-0.429687 -0.11459,-0.343751 0.0286,-0.601564 0.42969,-0.773437 1.83332,-0.572917 3.20832,-1.317708 4.125,-2.234375 0.91665,-0.973956 1.46092,-2.578122 1.63281,-4.8125005 -1.94793,-1.0312428 -4.06772,-1.7760337 -6.35938,-2.234375 -0.57292,1.7187567 -1.14584,3.1796927 -1.71875,4.3828125 -0.6875,1.432294 -1.40365,2.549481 -2.14843,3.351563 -0.63022,0.572916 -1.31772,0.859374 -2.0625,0.859375 -0.85938,-1e-6 -1.51823,-0.315105 -1.97657,-0.945313 -0.45833,-0.630207 -0.6875,-1.432289 -0.6875,-2.40625 0,-1.3749954 0.54427,-2.7213483 1.63282,-4.0390625 1.3177,-1.432283 3.29426,-2.2630114 5.92968,-2.4921875 0.6875,-2.5781127 1.03125,-4.23956938 1.03125,-4.984375 0,-0.40102657 -0.0859,-0.6588388 -0.25781,-0.7734375 -0.17188,-0.1145677 -0.48699,-0.1145677 -0.94531,0 -0.85938,0.1718903 -2.52084,0.37241093 -4.98438,0.6015625 -0.45833,1.487e-5 -0.74479,-0.22915157 -0.85937,-0.6875 0,-0.5156089 0.25781,-0.802067 0.77344,-0.859375 l 1.63281,-0.085937 1.89062,-0.171875 z m -4.98438,10.2265625 c -1.03125,1.2031305 -1.54687,2.3776085 -1.54687,3.5234375 0.0573,1.375002 0.48697,2.062501 1.28906,2.0625 0.74479,0.05729 1.51822,-0.572915 2.32031,-1.890625 0.45833,-0.859371 0.85937,-1.6614537 1.20313,-2.40625 0.40103,-0.9739519 0.74478,-2.0052009 1.03125,-3.09375 -1.89063,0.1718833 -3.32292,0.7734452 -4.29688,1.8046875 z&quot;
     style=&quot;font-size:22px;font-variant:normal;font-stretch:normal;font-family:HGMaruGothicMPRO;-inkscape-font-specification:HGMaruGothicMPRO;fill:#f2f2f2&quot;
     id=&quot;path3360&quot; /&gt;<g
   transform="translate(-4,-10)"
   style="line-height:125%;fill:#f2f2f2;font-family:Sans"
   id="flowRoot3495"><path
     d="M 14.28125,2 C 14.281237,1.2708554 14.609362,0.90627242 15.265625,0.90625 15.92186,0.90627242 16.249985,1.2708554 16.25,2 l 0,4.15625 10.9375,0 c 0.583307,1.72e-5 0.874973,0.2552253 0.875,0.765625 -2.7e-5,0.5104326 -0.291693,0.7656406 -0.875,0.765625 l -10.828125,0 c 2.114566,6.562509 5.869771,11.812504 11.265625,15.75 0.437473,0.364583 0.546848,0.802082 0.328125,1.3125 -0.437526,0.583331 -1.093775,0.61979 -1.96875,0.109375 C 21.755188,22.015626 18.29165,17.421881 15.59375,11.078125 14.281237,16.619798 10.562491,21.250002 4.4375,24.96875 3.6354144,25.406248 3.1249983,25.36979 2.90625,24.859375 2.7604153,24.421874 2.9062485,24.057291 3.34375,23.765625 10.197908,19.171879 13.807279,13.81251 14.171875,7.6875 l -10.5,0 C 3.08854,7.6875156 2.7968736,7.4323076 2.796875,6.921875 2.7968736,6.4114753 3.08854,6.1562672 3.671875,6.15625 l 10.609375,0 z"
     style="font-size:28px;font-variant:normal;font-stretch:normal;fill:#f2f2f2;font-family:HGMaruGothicMPRO;-inkscape-font-specification:HGMaruGothicMPRO"
     id="path3504" /><path
     d="m 53.328125,1.78125 c -2.4e-5,-0.5833112 0.255184,-0.87497758 0.765625,-0.875 0.510391,2.242e-5 0.7656,0.2916888 0.765625,0.875 l 0,10.609375 c -2.5e-5,1.385426 -0.9844,2.078134 -2.953125,2.078125 -1.531271,9e-6 -2.84377,-0.218741 -3.9375,-0.65625 -0.364602,-0.291657 -0.510435,-0.583323 -0.4375,-0.875 0.0729,-0.437489 0.364565,-0.619781 0.875,-0.546875 1.31248,0.291677 2.515603,0.437511 3.609375,0.4375 0.874976,1.1e-5 1.312476,-0.291656 1.3125,-0.875 z m -8.96875,0 c 0.583318,2.15e-5 0.874984,0.2552296 0.875,0.765625 -1.6e-5,0.5104369 -0.291682,0.765645 -0.875,0.765625 l -2.1875,0 0,3.390625 2.953125,0 c 0.583317,1.66e-5 0.874983,0.2552247 0.875,0.765625 -1.7e-5,0.510432 -0.291683,0.7656401 -0.875,0.765625 l -2.953125,0 0,5.25 c -1.3e-5,0.583343 -0.255221,0.875009 -0.765625,0.875 -0.510428,9e-6 -0.765636,-0.291657 -0.765625,-0.875 l 0,-5.25 -4.59375,0 0,0.765625 c -7e-6,1.968762 -1.130214,3.791677 -3.390625,5.46875 -0.510419,0.364592 -0.911461,0.364592 -1.203125,0 -0.291668,-0.437491 -0.218752,-0.838532 0.21875,-1.203125 1.895829,-1.458322 2.843745,-3.135403 2.84375,-5.03125 l -2.953125,0 c -0.583335,1.51e-5 -0.875001,-0.255193 -0.875,-0.765625 -1e-6,-0.5104003 0.291665,-0.7656084 0.875,-0.765625 l 2.953125,0 0,-3.390625 -2.1875,0 c -0.583336,2e-5 -0.875002,-0.2551881 -0.875,-0.765625 -2e-6,-0.5103954 0.291664,-0.7656035 0.875,-0.765625 z m -1.96875,14 c -1.3e-5,-0.729158 0.328112,-1.093741 0.984375,-1.09375 0.656235,9e-6 0.98436,0.364592 0.984375,1.09375 l 0,1.421875 8.96875,0 c 0.583309,6e-6 0.874975,0.255214 0.875,0.765625 -2.5e-5,0.510422 -0.291691,0.76563 -0.875,0.765625 l -8.96875,0 0,4.59375 10.71875,0 c 0.583307,0 0.874973,0.255208 0.875,0.765625 -2.7e-5,0.510415 -0.291693,0.765623 -0.875,0.765625 l -23.40625,0 c -0.583335,-2e-6 -0.875001,-0.25521 -0.875,-0.765625 -1e-6,-0.510417 0.291665,-0.765625 0.875,-0.765625 l 10.71875,0 0,-4.59375 -8.96875,0 c -0.583337,5e-6 -0.875003,-0.255203 -0.875,-0.765625 -3e-6,-0.510411 0.291663,-0.765619 0.875,-0.765625 l 8.96875,0 z M 48.84375,2.109375 c 0.510397,2.12e-5 0.765605,0.2916876 0.765625,0.875 l 0,7.109375 c -2e-5,0.583346 -0.255228,0.875012 -0.765625,0.875 -0.510436,1.2e-5 -0.765644,-0.291654 -0.765625,-0.875 l 0,-7.109375 c -1.9e-5,-0.5833124 0.255189,-0.8749788 0.765625,-0.875 z m -12.796875,4.59375 4.59375,0 0,-3.390625 -4.59375,0 z"
     style="font-size:28px;font-variant:normal;font-stretch:normal;fill:#f2f2f2;font-family:HGMaruGothicMPRO;-inkscape-font-specification:HGMaruGothicMPRO"
     id="path3506" /><path
     d="m 83.1875,2 c 0.583307,2.13e-5 0.874973,0.2552294 0.875,0.765625 -2.7e-5,0.5104367 -0.291693,0.7656448 -0.875,0.765625 l -1.421875,0 0,17.71875 c -2.4e-5,2.843749 -1.531273,4.265623 -4.59375,4.265625 -2.625017,-2e-6 -5.14064,-0.328127 -7.546875,-0.984375 -0.437512,-0.07292 -0.656262,-0.364584 -0.65625,-0.875 C 69.041655,23.21875 69.296863,23 69.734375,23 c 2.333319,0.4375 4.520816,0.65625 6.5625,0.65625 2.333312,0 3.499978,-0.765625 3.5,-2.296875 l 0,-17.828125 -20.34375,0 C 58.86979,3.5312698 58.578124,3.2760617 58.578125,2.765625 58.578124,2.2552294 58.86979,2.0000213 59.453125,2 z m -9.625,5.140625 c 0.437483,1.62e-5 0.838525,0.1823077 1.203125,0.546875 0.364566,0.3645986 0.546857,0.7656399 0.546875,1.203125 l 0,8.640625 c -1.8e-5,0.437505 -0.182309,0.838547 -0.546875,1.203125 -0.3646,0.364588 -0.765642,0.546879 -1.203125,0.546875 l -9.734375,0 c -0.437506,4e-6 -0.838547,-0.182287 -1.203125,-0.546875 -0.364588,-0.364578 -0.54688,-0.76562 -0.546875,-1.203125 l 0,-8.640625 C 62.07812,8.4531399 62.260412,8.0520986 62.625,7.6875 62.989578,7.3229327 63.390619,7.1406412 63.828125,7.140625 z m -8.75,1.53125 c -0.510424,1.47e-5 -0.765632,0.2552227 -0.765625,0.765625 l 0,7.546875 c -7e-6,0.510422 0.255201,0.765631 0.765625,0.765625 l 7.765625,0 c 0.510401,6e-6 0.765609,-0.255203 0.765625,-0.765625 l 0,-7.546875 C 73.343734,8.9270977 73.088526,8.6718897 72.578125,8.671875 z"
     style="font-size:28px;font-variant:normal;font-stretch:normal;fill:#f2f2f2;font-family:HGMaruGothicMPRO;-inkscape-font-specification:HGMaruGothicMPRO"
     id="path3508" /><path
     d="m 103.3125,19.5 c 0.36457,-0.145829 0.69269,0.03646 0.98438,0.546875 0.65623,1.458335 1.13018,2.734376 1.42187,3.828125 0.21873,0.947915 -0.0365,1.458331 -0.76562,1.53125 -0.58336,-2e-6 -0.91148,-0.291668 -0.98438,-0.875 -0.14585,-1.166667 -0.43752,-2.479165 -0.875,-3.9375 -0.21877,-0.58333 -0.14585,-0.947913 0.21875,-1.09375 z m -3.609375,0.109375 c 0.437485,-0.07291 0.729155,0.218754 0.875005,0.875 0.21873,1.312502 0.25519,2.661459 0.10937,4.046875 -0.0729,0.729165 -0.40106,1.057289 -0.984375,0.984375 -0.51043,-2e-6 -0.72918,-0.364585 -0.65625,-1.09375 0.14582,-1.239583 0.182278,-2.552082 0.109375,-3.9375 -1.4e-5,-0.510413 0.182278,-0.80208 0.546875,-0.875 z M 90.953125,1.125 c 0.510411,2.22e-5 0.765619,0.2916886 0.765625,0.875 l 0,6.34375 c 0.72916,-0.729151 1.312492,-1.5676918 1.75,-2.515625 0.218742,-0.6562318 0.583325,-0.9478982 1.09375,-0.875 0.510407,0.1458516 0.692698,0.5468928 0.546875,1.203125 -0.583342,1.5312656 -1.71355,2.7343894 -3.390625,3.609375 -6e-6,1.604179 -0.109381,3.864593 -0.328125,6.78125 1.166659,1.239589 2.406242,2.843754 3.71875,4.8125 0.145823,-0.291664 0.255198,-0.692706 0.328125,-1.203125 -1e-5,-0.510413 0.182281,-0.765621 0.546875,-0.765625 0.437489,4e-6 0.656239,0.29167 0.65625,0.875 -1.1e-5,1.895834 -0.729177,3.645833 -2.1875,5.25 -0.583342,0.437497 -1.0573,0.437497 -1.421875,0 -0.291674,-0.364585 -0.218757,-0.802085 0.21875,-1.3125 0.364575,-0.364584 0.656241,-0.729167 0.875,-1.09375 -0.947924,-1.895831 -1.932298,-3.499996 -2.953125,-4.8125 -0.510422,2.406253 -1.239588,4.411459 -2.1875,6.015625 -0.364587,0.729165 -0.838544,0.947915 -1.421875,0.65625 -0.364585,-0.364585 -0.328127,-0.911459 0.109375,-1.640625 0.656247,-1.166666 1.23958,-2.734372 1.75,-4.703125 0.510412,-2.333326 0.76562,-4.703116 0.765625,-7.109375 L 90.1875,2 c -5e-6,-0.5833114 0.255203,-0.8749778 0.765625,-0.875 z m 6.125,-0.4375 c 0.510404,2.264e-5 0.765613,0.25523072 0.765625,0.765625 -1.2e-5,0.2187717 -1.2e-5,0.510438 0,0.875 l 2.84375,0 c 0.43748,2.1e-5 0.83853,0.1823125 1.20313,0.546875 0.36456,0.3646034 0.54685,0.7656447 0.54687,1.203125 l -0.21875,1.75 3.17188,0 0,-4.046875 c -3e-5,-0.5833112 0.25518,-0.87497758 0.76562,-0.875 0.5104,2.242e-5 0.7656,0.2916888 0.76563,0.875 l 0,4.046875 4.26562,0 c 0.51039,1.75e-5 0.7656,0.2187673 0.76563,0.65625 -3e-5,0.4375164 -0.25524,0.6562662 -0.76563,0.65625 l -4.15625,0 c 0.58331,3.572929 2.11456,6.671885 4.59375,9.296875 0.80206,0.802089 0.91143,1.458339 0.32813,1.96875 -0.51045,0.437504 -1.09378,0.291671 -1.75,-0.4375 -1.60419,-2.041659 -2.88024,-4.557282 -3.82813,-7.546875 -1.02085,3.28126 -2.62502,6.015632 -4.8125,8.203125 -0.51043,0.583337 -0.98439,0.656254 -1.42187,0.21875 -0.364603,-0.364578 -0.291686,-0.802078 0.21875,-1.3125 2.98956,-3.281241 4.63018,-6.744779 4.92187,-10.390625 l -3.28125,0 c -0.3646,2.187514 -1.05731,4.229179 -2.078125,6.125 -1.020847,1.895842 -2.369804,3.609381 -4.046875,5.140625 -0.43751,0.291671 -0.802093,0.291671 -1.09375,0 C 94.562491,18.114589 94.635407,17.786464 95,17.421875 c 1.312489,-1.312493 2.442696,-2.734366 3.390625,-4.265625 l -2.40625,-2.296875 c -0.291677,0.729178 -0.583343,1.348969 -0.875,1.859375 -0.291676,0.583343 -0.656259,0.765635 -1.09375,0.546875 -0.364592,-0.21874 -0.364592,-0.656239 0,-1.3125 C 95.619781,8.1614735 96.385406,4.7343936 96.3125,1.671875 96.312489,1.0156473 96.567697,0.68752264 97.078125,0.6875 z m -9.625,4.921875 c 0.291664,1.77e-5 0.473956,0.1458509 0.546875,0.4375 0.36458,1.5312658 0.58333,3.2083474 0.65625,5.03125 -3e-6,1.020845 -0.03646,1.859385 -0.109375,2.515625 -0.07292,0.583342 -0.364586,0.875009 -0.875,0.875 -0.437502,-0.07291 -0.656252,-0.401032 -0.65625,-0.984375 0.07291,-0.802073 0.109373,-1.604155 0.109375,-2.40625 -0.07292,-1.8229026 -0.145835,-3.463526 -0.21875,-4.921875 -2e-6,-0.2916492 0.18229,-0.4739407 0.546875,-0.546875 z m 20.781255,-3.9375 c 0.29164,-0.2187281 0.61976,-0.1822698 0.98437,0.109375 0.65623,0.6562709 1.13018,1.3854368 1.42188,2.1875 0.21872,0.6562687 0.0729,1.05731 -0.4375,1.203125 -0.43753,0.072935 -0.7292,-0.072898 -0.875,-0.4375 -0.2917,-0.7291473 -0.65628,-1.4583133 -1.09375,-2.1875 -0.21878,-0.3645622 -0.21878,-0.6562286 0,-0.875 z m -0.4375,18.15625 c 0.29164,-0.291663 0.69268,-0.218746 1.20312,0.21875 1.31248,1.239585 2.18747,2.588542 2.625,4.046875 0.29164,0.874998 0.14581,1.385415 -0.4375,1.53125 -0.58336,0.145831 -1.02086,-0.145835 -1.3125,-0.875 -0.51044,-1.458333 -1.16669,-2.697915 -1.96875,-3.71875 -0.36461,-0.58333 -0.40106,-0.984372 -0.10937,-1.203125 z M 97.40625,5.9375 l 2.95313,1.96875 c 0.29165,-1.3124833 0.47394,-2.4791488 0.54687,-3.5 -2e-5,-0.5103972 -0.18231,-0.7656053 -0.54687,-0.765625 l -2.625005,0 z m -0.984375,3.71875 2.625,2.1875 c 0.291653,-0.656238 0.583319,-1.45832 0.875,-2.40625 l -2.84375,-1.96875 z"
     style="font-size:28px;font-variant:normal;font-stretch:normal;fill:#f2f2f2;font-family:HGMaruGothicMPRO;-inkscape-font-specification:HGMaruGothicMPRO"
     id="path3510" /><path
     d="m 120.70313,12.28125 c 0.43749,0.364594 0.5104,0.765635 0.21875,1.203125 -1.23959,1.895841 -1.85939,3.390631 -1.85938,4.484375 -1e-5,1.531254 0.6927,2.697919 2.07813,3.5 1.45832,0.729168 3.86457,1.093751 7.21874,1.09375 2.98957,1e-6 6.05207,-0.364582 9.1875,-1.09375 0.72915,-0.145831 1.2031,0.109377 1.42188,0.765625 0.14581,0.729167 -0.21878,1.203125 -1.09375,1.421875 -2.62502,0.510416 -5.79689,0.765624 -9.51563,0.765625 -4.52084,-1e-6 -7.54688,-0.619792 -9.07812,-1.859375 -1.45834,-1.239581 -2.1875,-2.697913 -2.1875,-4.375 0,-1.677077 0.72916,-3.572908 2.1875,-5.6875 0.36458,-0.437489 0.83853,-0.510405 1.42188,-0.21875 z m 14.10937,-8.75 c 0.65623,0.145853 0.94789,0.5468943 0.875,1.203125 -0.14586,0.5833513 -0.5469,0.8385594 -1.20313,0.765625 -1.45835,-0.2916485 -3.2448,-0.4374817 -5.35937,-0.4375 -3.57293,1.83e-5 -6.92709,0.2916846 -10.0625,0.875 -0.58334,0.072934 -0.94792,-0.1822741 -1.09375,-0.765625 0,-0.510398 0.2552,-0.8385227 0.76563,-0.984375 3.64582,-0.7291468 7.14582,-1.0937298 10.49999,-1.09375 2.2604,2.02e-5 4.11978,0.1458534 5.57813,0.4375 z m 3.0625,-3.609375 c 0.36456,-0.14580978 0.69268,-0.07289319 0.98437,0.21875 0.80206,0.9479389 1.53123,2.0052295 2.1875,3.171875 0.14581,0.5104362 0.0364,0.8750191 -0.32812,1.09375 -0.43753,0.1458521 -0.76565,0.036477 -0.98438,-0.328125 -0.51044,-0.9478965 -1.20315,-2.0051871 -2.07812,-3.171875 -0.21877,-0.43747714 -0.14586,-0.76560181 0.21875,-0.984375 z M 135.25,0.90625 c 0.36456,-0.14581077 0.69269,-0.0728942 0.98437,0.21875 0.80206,0.9479379 1.53123,2.0052285 2.1875,3.171875 0.21873,0.5104352 0.10935,0.8750182 -0.32812,1.09375 C 137.65623,5.5364761 137.3281,5.4271012 137.10937,5.0625 136.59894,4.1146025 135.90623,3.0573119 135.03125,1.890625 134.81248,1.5260635 134.8854,1.1979388 135.25,0.90625 z"
     style="font-size:28px;font-variant:normal;font-stretch:normal;fill:#f2f2f2;font-family:HGMaruGothicMPRO;-inkscape-font-specification:HGMaruGothicMPRO"
     id="path3512" /><path
     d="m 152.85937,1.78125 c 0.58333,-0.072895 1.05728,-0.072895 1.42188,0 0.65624,0.2187713 1.09374,0.6198126 1.3125,1.203125 0.14582,0.2916867 0.21874,0.7291863 0.21875,1.3125 -0.0729,1.0208513 -0.40106,2.697933 -0.98438,5.03125 l -0.54687,1.75 c 2.47915,0.364595 5.10415,1.130219 7.875,2.296875 0.21873,-2.697904 0.3281,-4.8489435 0.32812,-6.453125 -2e-5,-0.7291495 0.32811,-1.0937325 0.98438,-1.09375 0.65623,1.75e-5 0.98435,0.3646005 0.98437,1.09375 -2e-5,2.1145976 -0.14585,4.520845 -0.4375,7.21875 1.89581,0.875008 3.1354,1.531258 3.71875,1.96875 0.43748,0.437507 0.54685,0.947923 0.32813,1.53125 -0.43753,0.510422 -1.02086,0.54688 -1.75,0.109375 -0.80211,-0.510411 -1.64065,-1.020827 -2.51563,-1.53125 -0.3646,3.062504 -1.2396,5.250002 -2.625,6.5625 -1.31251,1.239583 -3.35418,2.296873 -6.125,3.171875 -0.51042,0.07291 -0.83855,-0.109378 -0.98437,-0.546875 -0.14585,-0.437502 0.0365,-0.765626 0.54687,-0.984375 2.33332,-0.729167 4.08332,-1.677083 5.25,-2.84375 1.16665,-1.23958 1.85936,-3.281245 2.07813,-6.125 -2.47918,-1.312491 -5.1771,-2.260407 -8.09375,-2.84375 -0.72918,2.187509 -1.45834,4.046882 -2.1875,5.578125 -0.87501,1.82292 -1.78647,3.244794 -2.73438,4.265625 -0.80209,0.729167 -1.67708,1.09375 -2.625,1.09375 -1.09375,0 -1.93229,-0.401041 -2.51562,-1.203125 -0.58334,-0.802082 -0.875,-1.822914 -0.875,-3.0625 0,-1.749994 0.69271,-3.463534 2.07812,-5.140625 1.67708,-1.822906 4.19271,-2.880196 7.54688,-3.171875 0.87499,-3.2812344 1.31249,-5.3958156 1.3125,-6.34375 -1e-5,-0.5103975 -0.10939,-0.8385221 -0.32813,-0.984375 -0.21876,-0.1458135 -0.6198,-0.1458135 -1.20312,0 -1.09376,0.2187695 -3.20834,0.4739775 -6.34375,0.765625 -0.58334,1.89e-5 -0.94792,-0.2916475 -1.09375,-0.875 0,-0.6562295 0.32812,-1.0208125 0.98437,-1.09375 l 2.07813,-0.109375 2.40625,-0.21875 z m -6.34375,13.015625 c -1.3125,1.531257 -1.96875,3.026047 -1.96875,4.484375 0.0729,1.750002 0.61979,2.625001 1.64063,2.625 0.94791,0.07292 1.93228,-0.729165 2.95312,-2.40625 0.58333,-1.093745 1.09375,-2.114577 1.53125,-3.0625 0.51041,-1.239575 0.94791,-2.552074 1.3125,-3.9375 -2.40625,0.218761 -4.22917,0.984385 -5.46875,2.296875 z"
     style="font-size:28px;font-variant:normal;font-stretch:normal;fill:#f2f2f2;font-family:HGMaruGothicMPRO;-inkscape-font-specification:HGMaruGothicMPRO"
     id="path3514" /></g></g></svg>
