<?xml version="1.0" encoding="UTF-8" standalone="no"?>
<!-- Generator: Adobe Illustrator 16.0.4, SVG Export Plug-In . SVG Version: 6.00 Build 0)  -->

<svg
   xmlns:dc="http://purl.org/dc/elements/1.1/"
   xmlns:cc="http://creativecommons.org/ns#"
   xmlns:rdf="http://www.w3.org/1999/02/22-rdf-syntax-ns#"
   xmlns:svg="http://www.w3.org/2000/svg"
   xmlns="http://www.w3.org/2000/svg"
   xmlns:sodipodi="http://sodipodi.sourceforge.net/DTD/sodipodi-0.dtd"
   xmlns:inkscape="http://www.inkscape.org/namespaces/inkscape"
   version="1.1"
   id="レイヤー_1"
   x="0px"
   y="0px"
   width="172"
   height="23"
   viewBox="0 0 172 23"
   enable-background="new 0 0 120 23"
   xml:space="preserve"
   inkscape:version="0.48.5 r10040"
   sodipodi:docname="ogatakanen.svg"><metadata
   id="metadata4427"><rdf:RDF><cc:Work
       rdf:about=""><dc:format>image/svg+xml</dc:format><dc:type
         rdf:resource="http://purl.org/dc/dcmitype/StillImage" /><dc:title /></cc:Work></rdf:RDF></metadata><defs
   id="defs4425" /><sodipodi:namedview
   pagecolor="#ffffff"
   bordercolor="#666666"
   borderopacity="1"
   objecttolerance="10"
   gridtolerance="10"
   guidetolerance="10"
   inkscape:pageopacity="0"
   inkscape:pageshadow="2"
   inkscape:window-width="1366"
   inkscape:window-height="706"
   id="namedview4423"
   showgrid="false"
   inkscape:zoom="5.075"
   inkscape:cx="76.011823"
   inkscape:cy="16.507389"
   inkscape:window-x="-8"
   inkscape:window-y="-8"
   inkscape:window-maximized="1"
   inkscape:current-layer="レイヤー_1" />





<text
   xml:space="preserve"
   style="font-size:13.42425632px;font-style:normal;font-weight:normal;line-height:125%;letter-spacing:0px;word-spacing:0px;fill:#f6f6f6;fill-opacity:1;stroke:none;font-family:Sans"
   x="6.7928081"
   y="12.422898"
   id="text4429"
   sodipodi:linespacing="125%"
   transform="scale(0.7536626,1.3268537)"><tspan
     sodipodi:role="line"
     x="6.7928081"
     y="12.422898"
     id="tspan4433"
     style="font-size:13px" /></text>


<flowRoot
   xml:space="preserve"
   id="flowRoot4945"
   style="font-size:11px;font-style:normal;font-weight:normal;line-height:125%;letter-spacing:0px;word-spacing:0px;fill:#000000;fill-opacity:1;stroke:none;font-family:Sans"><flowRegion
     id="flowRegion4947"><rect
       id="rect4949"
       width="392.31528"
       height="103.64532"
       x="32.118225"
       y="-121.23645" /></flowRegion><flowPara
     id="flowPara4951" /></flowRoot><path
   style="fill:#f6f6f6;fill-opacity:1;stroke:#f4f4f4;stroke-opacity:1"
   d="m 30.147786,2.3103448 0.39409,1.3793104 0,1.3793103 2.56157,-1.3793103 2.95567,-0.591133 -1.18227,-2.36453205 -0.59113,1.57635465 -2.75862,0.9852217 z"
   id="path3117"
   inkscape:connector-curvature="0" /><path
   style="fill:#f6f6f6;fill-opacity:1;stroke:#f4f4f4;stroke-opacity:1"
   d="m 29.950736,8.2216749 3.34976,-0.7881774 2.36453,-1.182266 2.75862,-1.5763547 0.39409,-0.7881773 2.36453,3.546798 -1.57636,-0.7881773 -1.77339,-0.1970443 -5.51725,2.5615763 -3.1527,1.1822658 z"
   id="path3119"
   inkscape:connector-curvature="0" /><path
   style="fill:#f6f6f6;fill-opacity:1;stroke:#f4f4f4;stroke-opacity:1"
   d="m 31.133006,5.0689655 1.18226,3.1527094 0.78818,2.1674881 -0.98522,3.152709 2.36453,-2.758621 -0.59113,-1.1822658 -0.98522,-2.364532 z"
   id="path3121"
   inkscape:connector-curvature="0" /><path
   style="fill:#f6f6f6;fill-opacity:1;stroke:#f4f4f4;stroke-opacity:1"
   d="m 34.482756,4.4778325 1.18227,2.7586207 1.37931,1.773399 0.78818,1.1822658 -1.57636,-0.1970441 1.97044,0.7881771 1.37931,-0.591133 -1.77339,-1.1822658 -2.16749,-3.546798 z"
   id="path3123"
   inkscape:connector-curvature="0" /><path
   style="fill:#f6f6f6;fill-opacity:1;stroke:#f4f4f4;stroke-opacity:1"
   d="m 42.364536,2.7044335 -0.98523,0.3940887 2.16749,2.364532 -0.19704,3.3497537 0.59113,0.3940887 0.39409,-5.9113301 z"
   id="path3125"
   inkscape:connector-curvature="0" /><path
   style="fill:#f6f6f6;fill-opacity:1;stroke:#f4f4f4;stroke-opacity:1"
   d="m 45.517236,1.5221675 1.7734,3.9408867 0.39409,3.546798 -1.57635,-0.9852217 1.97044,2.1674875 0.98522,-1.1822658 -0.19704,-3.1527093 -1.37931,-2.1674877 z"
   id="path3127"
   inkscape:connector-curvature="0" /><path
   style="fill:#f6f6f6;fill-opacity:1;stroke:#f4f4f4;stroke-opacity:1"
   d="m 35.073896,14.330049 4.53201,-1.37931 4.53202,-0.985222 2.36454,-2.1674874 3.74384,2.5615764 -4.53202,0.985222 -1.18227,-0.197045 -7.29064,1.182266 z"
   id="path3129"
   inkscape:connector-curvature="0" /><path
   style="fill:#f6f6f6;fill-opacity:1;stroke:#f4f4f4;stroke-opacity:1"
   d="m 39.408866,11.17734 2.95567,5.714286 1.18226,2.364532 1.57636,-0.591133 -0.98523,-1.379311 -0.98522,-0.197044 -1.97044,-5.517241 z"
   id="path3131"
   inkscape:connector-curvature="0" /><path
   style="fill:#f6f6f6;fill-opacity:1;stroke:#f4f4f4;stroke-opacity:1"
   d="m 34.679806,19.847291 3.54679,-0.591133 4.92611,-0.197045 5.51724,-1.37931 4.53202,-2.955665 2.75862,1.970443 -1.57635,3.546798 -3.74384,-1.182266 -4.92611,0.591133 -6.69951,1.576355 -2.16749,0.591133 z"
   id="path3133"
   inkscape:connector-curvature="0" /><path
   style="fill:#f6f6f6;fill-opacity:1;stroke:#f4f4f4;stroke-opacity:1"
   d="m 3.6453164,5.8571426 17.5369496,-2.1674877 2.95566,-1.182266 4.53202,2.364532 -0.59113,2.1674877 -6.89655,-1.182266 -8.07882,0.1970443 -5.5172396,0.7881774 -1.97044,0.3940886 z"
   id="path3089-1"
   inkscape:connector-curvature="0" /><path
   style="fill:#f6f6f6;fill-opacity:1;stroke:#f4f4f4;stroke-opacity:1"
   d="m 11.921186,1.3251229 0.59113,5.1231527 0.19704,4.1379314 -0.59113,3.15271 -2.3645296,3.743842 -2.75862,3.152709 -2.75862,1.576355 3.34975,-1.182266 4.9261096,-4.137931 1.97044,-4.53202 c 0,0 1.18227,-3.7438427 0.78818,-4.7290644 -0.39409,-0.9852217 -0.98522,-3.9408867 -0.98522,-3.9408867 l 0.19704,-1.182266 1.18227,0 z"
   id="path3091-7"
   inkscape:connector-curvature="0" /><path
   style="fill:#f6f6f6;fill-opacity:1;stroke:#f4f4f4;stroke-opacity:1"
   d="m 15.467976,10.192118 6.10838,5.123153 2.56157,2.167488 4.33498,3.152709 4.92611,-0.197044 -3.94089,-2.758621 -3.5468,-1.773399 -3.15271,-2.955665 -3.74384,-2.364532 z"
   id="path3093-4"
   inkscape:connector-curvature="0" /><path
   style="fill:#f6f6f6;fill-opacity:1;stroke:#f4f4f4;stroke-opacity:1"
   d="m 53.399014,4.4778325 2.955665,-2.1674877 2.561577,1.3793103 5.91133,-0.591133 8.866995,-0.9852216 2.758621,-1.57635469 4.729064,3.15270929 -6.305419,0.7881774 -3.349754,-0.3940887 -8.866995,0.7881774 -4.334975,0.1970443 z"
   id="path3411"
   inkscape:connector-curvature="0" /><path
   style="fill:#f6f6f6;fill-opacity:1;stroke:#f4f4f4;stroke-opacity:1"
   d="m 72.118226,4.6748768 1.773399,1.9704434 0.985222,1.9704433 0.591133,8.6699505 -0.197044,1.37931 -3.349754,-1.182266 -1.773399,-0.788177 4.137931,2.758621 2.561576,0.788177 1.379311,0.788177 1.182266,-3.349753 -1.773399,0 -0.197045,-2.561577 -0.788177,-4.532019 -0.788177,-3.3497538 0.788177,-0.1970444 -1.773399,-1.9704433 z"
   id="path3413"
   inkscape:connector-curvature="0" /><path
   style="fill:#f6f6f6;fill-opacity:1;stroke:#f4f4f4;stroke-opacity:1"
   d="m 60.492611,8.4187192 -2.364532,-0.3940887 0.394088,0.9852217 1.379311,5.7142858 1.773399,0 -2.364532,-4.137931 z"
   id="path3415"
   inkscape:connector-curvature="0" /><path
   style="fill:#f6f6f6;fill-opacity:1;stroke:#f4f4f4;stroke-opacity:1"
   d="m 59.507389,8.4187192 4.926108,-0.591133 3.15271,-1.3793104 0.788177,1.9704434 0,1.9704428 -1.182266,4.729064 -0.394089,-0.985221 0,-3.15271 0,-1.9704428 -2.75862,-0.1970443 -3.15271,0.9852214 z"
   id="path3417"
   inkscape:connector-curvature="0" /><path
   style="fill:#f6f6f6;fill-opacity:1;stroke:#f4f4f4;stroke-opacity:1"
   d="m 61.280788,14.527093 3.349754,-0.197044 1.970443,-1.182266 1.773399,1.970443 -3.349754,0.591133 -1.576354,-0.591133 z"
   id="path3419"
   inkscape:connector-curvature="0" /><path
   style="fill:#f6f6f6;fill-opacity:1;stroke:#f4f4f4;stroke-opacity:1"
   d="m 85.517241,5.0689655 -0.394089,1.5763547 1.379311,2.955665 0.591133,0.9852218 0,-1.5763548 -0.985222,-1.3793104 z"
   id="path3423"
   inkscape:connector-curvature="0" /><path
   style="fill:#f6f6f6;fill-opacity:1;stroke:#f4f4f4;stroke-opacity:1"
   d="m 87.093596,1.7192118 -0.788178,0.591133 0.788178,3.9408867 0.985221,1.773399 0.788178,2.5615765 -2.364532,7.093596 -2.167488,3.743842 2.561576,-3.152709 1.182266,-2.955665 0.788178,-2.955665 0.394088,-1.576355 -0.394088,-2.1674875 -1.182266,-2.955665 -0.197045,-0.9852217 1.970444,0.1970444 -1.576355,-1.1822661 z"
   id="path3425"
   inkscape:connector-curvature="0" /><path
   style="fill:#f6f6f6;fill-opacity:1;stroke:#f4f4f4;stroke-opacity:1"
   d="m 89.458128,6.4482758 0.197044,1.5763547 0.788177,2.5615765 0,1.576354 0.197045,-1.970443 -0.394089,-1.7733988 z"
   id="path3427"
   inkscape:connector-curvature="0" /><path
   style="fill:#f6f6f6;fill-opacity:1;stroke:#f4f4f4;stroke-opacity:1"
   d="m 91.625615,3.6896551 0.394089,3.5467981 -0.788177,1.9704433 -0.197045,0.7881778 1.576355,-2.9556655 0,-2.7586207 -0.394089,-2.1674876 -1.37931,-0.1970444 z"
   id="path3429"
   inkscape:connector-curvature="0" /><path
   style="fill:#f6f6f6;fill-opacity:1;stroke:#f4f4f4;stroke-opacity:1"
   d="m 92.216748,2.1133005 1.576355,0.591133 2.364532,-0.3940887 -0.197044,-1.37931027 1.379315,1.18226597 1.18226,2.5615763 -1.37931,-0.1970443 0,1.773399 -0.591132,1.182266 -0.788178,1.773399 -0.788177,1.5763545 -2.364532,2.364532 -1.970443,0.985222 2.955665,-3.15271 1.576354,-1.7733985 1.773403,-4.729064 -0.788181,-1.773399 -2.167488,0.591133 z"
   id="path3431"
   inkscape:connector-curvature="0" /><path
   style="fill:#f6f6f6;fill-opacity:1;stroke:#f4f4f4;stroke-opacity:1"
   d="m 93.004926,4.4778325 3.152709,1.182266 -0.788177,0.7881773 -1.379311,-0.7881773 z"
   id="path3433"
   inkscape:connector-curvature="0" /><path
   style="fill:#f6f6f6;fill-opacity:1;stroke:#f4f4f4;stroke-opacity:1"
   d="m 91.82266,7.0394088 2.167487,0.7881774 1.379311,0.7881773 -1.576355,0.3940887 z"
   id="path3435"
   inkscape:connector-curvature="0" /><path
   style="fill:#f6f6f6;fill-opacity:1;stroke:#f4f4f4;stroke-opacity:1"
   d="m 99.704436,3.4926108 0,2.955665 1.182264,-0.7881773 3.5468,-1.3793104 2.36453,0 2.95567,0.5911331 1.37931,0.7881773 -3.15271,-3.7438424 -0.39409,1.773399 -1.97044,-0.3940886 -4.13793,1.5763547 -1.37931,0 z"
   id="path3437"
   inkscape:connector-curvature="0" /><path
   style="fill:#f6f6f6;fill-opacity:1;stroke:#f4f4f4;stroke-opacity:1"
   d="m 102.85715,0.93103453 0.19704,1.77339897 0,3.3497537 -0.98522,1.9704433 -1.18227,1.9704438 -2.758624,2.5615757 3.743844,-2.364532 1.37932,-2.5615762 0.59113,-2.955665 0,-2.5615763 z"
   id="path3439"
   inkscape:connector-curvature="0" /><path
   style="fill:#f6f6f6;fill-opacity:1;stroke:#f4f4f4;stroke-opacity:1"
   d="m 103.84237,7.0394088 3.74384,3.9408862 2.16749,0.788178 1.37931,-0.591133 -2.56158,-1.1822657 -2.36453,-2.9556655 z"
   id="path3441"
   inkscape:connector-curvature="0" /><path
   style="fill:#f6f6f6;fill-opacity:1;stroke:#f4f4f4;stroke-opacity:1"
   d="m 109.7537,1.1280788 1.18226,2.364532 0.59114,0.9852217 0.39409,-2.7586207 z"
   id="path3443"
   inkscape:connector-curvature="0" /><path
   style="fill:#f6f6f6;fill-opacity:1;stroke:#f4f4f4;stroke-opacity:1"
   d="m 92.019704,16.103448 -0.394089,2.364532 -2.561576,2.561576 2.955665,0.591133 0.788177,-2.955665 z"
   id="path3445"
   inkscape:connector-curvature="0" /><path
   style="fill:#f6f6f6;fill-opacity:1;stroke:#f4f4f4;stroke-opacity:1"
   d="m 95.763546,16.694581 3.34975,4.137931 4.137944,-1.773399 -4.334984,-1.37931 z"
   id="path3447"
   inkscape:connector-curvature="0" /><path
   style="fill:#f6f6f6;fill-opacity:1;stroke:#f4f4f4;stroke-opacity:1"
   d="m 105.41872,15.512315 2.36453,2.758621 0,1.773399 0,0.985221 2.95567,-0.591133 1.7734,-1.773399 -2.95567,-0.985221 z"
   id="path3449"
   inkscape:connector-curvature="0" /><path
   style="fill:#f6f6f6;fill-opacity:1;stroke:#f4f4f4;stroke-opacity:1"
   d="m 111.72414,13.93596 2.56158,3.940887 1.18226,1.182266 -0.78817,1.773399 3.34975,-2.364532 -1.7734,-0.197044 -1.97044,-1.970444 z"
   id="path3451"
   inkscape:connector-curvature="0" /><path
   style="fill:#f6f6f6;fill-opacity:1;stroke:#f4f4f4;stroke-opacity:1"
   d="m 120.39409,4.6748768 3.5468,-0.3940886 6.6995,-1.773399 2.36454,0.3940886 2.36453,1.5763547 -0.19705,1.3793104 -1.37931,0.1970443 -1.7734,-1.773399 -2.56157,0.1970443 -5.3202,1.5763547 -3.34975,0.7881773 -1.97045,1.3793104 -1.7734,-1.3793104 -0.78817,-1.5763546 1.7734,-0.5911331 1.57635,0.1970444 2.56158,-0.9852217 z"
   id="path3453"
   inkscape:connector-curvature="0" /><path
   style="fill:#f6f6f6;fill-opacity:1;stroke:#f4f4f4;stroke-opacity:1"
   d="m 120.59113,18.073892 1.97045,0.591133 3.94088,0.197044 5.71429,-1.773399 1.37931,0 0.39409,-0.591133 2.16749,-2.364532 0.59113,2.955665 -1.37931,0.985222 -2.56158,1.182266 -5.12315,1.182266 -5.71429,1.182266 -1.37931,-0.591133 -0.39409,-0.985222 z"
   id="path3455"
   inkscape:connector-curvature="0" /><path
   style="fill:#f6f6f6;fill-opacity:1;stroke:#f4f4f4;stroke-opacity:1"
   d="m 133.59606,1.3251232 3.94089,5.1231527 0.59113,0 -0.78818,-1.9704434 -1.7734,-1.5763547 z"
   id="path3457"
   inkscape:connector-curvature="0" /><path
   style="fill:#f6f6f6;fill-opacity:1;stroke:#f4f4f4;stroke-opacity:1"
   d="m 136.94581,0.53694581 1.97045,3.54679799 0.98522,2.7586207 0.98522,0.9852217 -0.78818,-3.546798 -0.78818,-0.9852217 z"
   id="path3459"
   inkscape:connector-curvature="0" /><path
   style="fill:#f6f6f6;fill-opacity:1;stroke:#f4f4f4;stroke-opacity:1"
   d="m 144.63054,3.8866995 0.98522,2.364532 1.7734,0.9852217 2.56158,-1.5763547 2.95566,-1.3793103 2.16749,0 0.19705,1.3793103 0.39408,1.773399 -0.59113,2.7586205 -2.16749,4.729064 -2.36453,3.15271 -5.12315,1.576354 0.78818,0.591133 3.54679,-0.591133 2.95567,-1.773399 2.16749,-3.546798 1.18226,-4.137931 0.19705,-4.3349751 0,-1.3793104 -1.57636,-1.773399 -1.7734,-0.591133 -0.39408,0.3940887 -0.19705,0.591133 -3.5468,1.5763546 -2.16748,0.5911331 z"
   id="path3461"
   inkscape:connector-curvature="0" /><path
   style="fill:#f6f6f6;fill-opacity:1;stroke:#f4f4f4;stroke-opacity:1"
   d="m 146.00985,18.862069 -0.59113,-3.152709 3.5468,-2.758621 4.72906,-1.182266 4.33498,-0.197044 5.71428,0.197044 0.59114,0.788177 4.53202,4.926109 1.57635,1.773399 -0.39409,-1.970444 -1.7734,-1.970443 -2.36453,-2.364532 -2.16749,-1.773399 -2.36453,-0.394089 -7.68473,0.197045 -3.15271,0.394088 -2.36453,1.182266 -2.95567,1.379311 -1.37931,1.37931 -0.19704,3.349754 1.18227,0.985221 1.18226,0.788178 0.78818,0 z"
   id="path3463"
   inkscape:connector-curvature="0" /><path
   style="fill:#f6f6f6;fill-opacity:1;stroke:#f4f4f4;stroke-opacity:1"
   d="m 162.16749,4.6748768 -1.97045,0.1970444 0.98523,0.9852217 0.59113,0.7881773 0.19704,1.9704433 0.59114,1.7733995 -2.75862,6.896551 -2.16749,2.167488 -1.7734,1.182266 2.36453,-0.985222 3.94089,-4.137931 0.39409,-4.729064 0.19704,-4.1379308 0,-0.7881773 -0.98522,-2.1674877 z"
   id="path3465"
   inkscape:connector-curvature="0" /></svg>
