<?xml version="1.0" encoding="UTF-8" standalone="no"?>
<!-- Generator: Adobe Illustrator 16.0.4, SVG Export Plug-In . SVG Version: 6.00 Build 0)  -->

<svg
   xmlns:dc="http://purl.org/dc/elements/1.1/"
   xmlns:cc="http://creativecommons.org/ns#"
   xmlns:rdf="http://www.w3.org/1999/02/22-rdf-syntax-ns#"
   xmlns:svg="http://www.w3.org/2000/svg"
   xmlns="http://www.w3.org/2000/svg"
   xmlns:sodipodi="http://sodipodi.sourceforge.net/DTD/sodipodi-0.dtd"
   xmlns:inkscape="http://www.inkscape.org/namespaces/inkscape"
   version="1.1"
   id="レイヤー_1"
   x="0px"
   y="0px"
   width="169"
   height="27"
   viewBox="0 0 169 27"
   enable-background="new 0 0 120 23"
   xml:space="preserve"
   inkscape:version="0.48.5 r10040"
   sodipodi:docname="petto.svg"><metadata
   id="metadata4427"><rdf:RDF><cc:Work
       rdf:about=""><dc:format>image/svg+xml</dc:format><dc:type
         rdf:resource="http://purl.org/dc/dcmitype/StillImage" /></cc:Work></rdf:RDF></metadata><defs
   id="defs4425" /><sodipodi:namedview
   pagecolor="#ffffff"
   bordercolor="#666666"
   borderopacity="1"
   objecttolerance="10"
   gridtolerance="10"
   guidetolerance="10"
   inkscape:pageopacity="0"
   inkscape:pageshadow="2"
   inkscape:window-width="1366"
   inkscape:window-height="706"
   id="namedview4423"
   showgrid="false"
   inkscape:zoom="5.075"
   inkscape:cx="91.416487"
   inkscape:cy="16.507389"
   inkscape:window-x="-8"
   inkscape:window-y="-8"
   inkscape:window-maximized="1"
   inkscape:current-layer="flowRoot3424" />





<text
   xml:space="preserve"
   style="font-size:13.42425632px;font-style:normal;font-weight:normal;line-height:125%;letter-spacing:0px;word-spacing:0px;fill:#f6f6f6;fill-opacity:1;stroke:none;font-family:Sans"
   x="6.7928081"
   y="15.43755"
   id="text4429"
   sodipodi:linespacing="125%"
   transform="scale(0.7536626,1.3268537)"><tspan
     sodipodi:role="line"
     x="6.7928081"
     y="15.43755"
     id="tspan4433"
     style="font-size:13px" /></text>


<flowRoot
   xml:space="preserve"
   id="flowRoot4945"
   style="font-size:11px;font-style:normal;font-weight:normal;line-height:125%;letter-spacing:0px;word-spacing:0px;fill:#000000;fill-opacity:1;stroke:none;font-family:Sans"
   transform="translate(0,4)"><flowRegion
     id="flowRegion4947"><rect
       id="rect4949"
       width="392.31528"
       height="103.64532"
       x="32.118225"
       y="-121.23645" /></flowRegion><flowPara
     id="flowPara4951" /></flowRoot><flowRoot
   xml:space="preserve"
   id="flowRoot3416"
   style="font-size:11px;font-style:normal;font-weight:normal;line-height:125%;letter-spacing:0px;word-spacing:0px;fill:#000000;fill-opacity:1;stroke:none;font-family:Sans"
   transform="translate(0,4)"><flowRegion
     id="flowRegion3418"><rect
       id="rect3420"
       width="140.8867"
       height="39.802956"
       x="-4.5320196"
       y="-6.3596058" /></flowRegion><flowPara
     id="flowPara3422"></flowPara></flowRoot><g
   transform="translate(0,2)"
   style="font-size:11px;font-style:normal;font-weight:normal;line-height:125%;letter-spacing:0px;word-spacing:0px;fill:#f2f2f2;fill-opacity:1;stroke:none;font-family:Sans"
   id="flowRoot3424"><path
     d="m 9.703125,2.96875 c 0.947904,1.94e-5 1.89582,0.7291853 2.84375,2.1875 1.968734,2.7708477 4.083315,5.468762 6.34375,8.09375 1.822894,2.11459 3.609351,4.083338 5.359375,5.90625 0.437474,0.656253 0.437474,1.203127 0,1.640625 -0.510442,0.437501 -1.057316,0.437501 -1.640625,0 C 21.369769,19.411461 19.729145,17.479172 17.6875,15 15.208317,11.93751 12.911444,8.9843883 10.796875,6.140625 10.505196,5.7760582 10.21353,5.5937667 9.921875,5.59375 9.6301971,5.5937667 9.3385308,5.8125165 9.046875,6.25 7.8072823,8.8020969 6.7499917,10.770845 5.875,12.15625 4.7812437,13.906258 3.6145782,15.473965 2.375,16.859375 1.7916633,17.369797 1.2447889,17.406255 0.734375,16.96875 0.29687314,16.531256 0.26041484,16.02084 0.625,15.4375 2.0833297,13.687509 3.2499952,12.119802 4.125,10.734375 5.2916598,8.8385552 6.3124921,7.0156403 7.1875,5.265625 7.9166572,3.7343936 8.755198,2.9687694 9.703125,2.96875 z M 22.609375,2.75 C 22.171851,2.31252 21.624977,2.0937702 20.96875,2.09375 20.312478,2.0937702 19.765604,2.31252 19.328125,2.75 c -0.43752,0.4375191 -0.65627,0.9843936 -0.65625,1.640625 -2e-5,0.6562673 0.21873,1.2031417 0.65625,1.640625 0.437479,0.4375159 0.984353,0.6562656 1.640625,0.65625 0.656227,1.56e-5 1.203101,-0.2187341 1.640625,-0.65625 C 23.04685,5.5937667 23.2656,5.0468923 23.265625,4.390625 23.2656,3.7343936 23.04685,3.1875191 22.609375,2.75 z m 0.546875,3.828125 c -0.583357,0.5833485 -1.312523,0.8750149 -2.1875,0.875 -0.875022,1.49e-5 -1.604188,-0.2916515 -2.1875,-0.875 -0.583353,-0.583317 -0.875019,-1.3124829 -0.875,-2.1875 -1.9e-5,-0.8749812 0.291647,-1.6041471 0.875,-2.1875 0.583312,-0.5833126 1.312478,-0.874979 2.1875,-0.875 0.874977,2.1e-5 1.604143,0.2916874 2.1875,0.875 0.583308,0.5833529 0.874974,1.3125188 0.875,2.1875 -2.6e-5,0.8750171 -0.291692,1.604183 -0.875,2.1875 z"
     style="font-size:28px;font-variant:normal;font-stretch:normal;fill:#f2f2f2;font-family:HGMaruGothicMPRO;-inkscape-font-specification:HGMaruGothicMPRO"
     id="path3433" /><path
     d="m 48.53125,7.453125 c 0.583311,0.072932 0.838519,0.4375144 0.765625,1.09375 -0.656272,5.395842 -2.114604,9.223963 -4.375,11.484375 -2.406266,2.40625 -6.015637,3.864582 -10.828125,4.375 -0.58334,-2e-6 -0.911465,-0.218752 -0.984375,-0.65625 -0.07292,-0.510418 0.109368,-0.838542 0.546875,-0.984375 4.520822,-0.583333 7.802068,-1.895832 9.84375,-3.9375 2.041648,-2.041661 3.354146,-5.541658 3.9375,-10.5 0.0729,-0.6562353 0.437479,-0.9479017 1.09375,-0.875 z M 38.359375,7.234375 c 0.437488,-0.1458181 0.802071,-0.036443 1.09375,0.328125 1.312486,1.750013 2.223943,3.53647 2.734375,5.359375 0.145817,0.656259 -0.03647,1.093758 -0.546875,1.3125 C 41.057277,14.3073 40.656236,14.125008 40.4375,13.6875 39.781237,11.718761 38.979154,9.9323041 38.03125,8.328125 37.812489,7.8177228 37.921864,7.4531399 38.359375,7.234375 z M 32.125,8.328125 c 0.51041,-0.1458192 0.911452,1.4e-5 1.203125,0.4375 0.874992,1.458345 1.604158,3.171885 2.1875,5.140625 0.145824,0.656258 -0.03647,1.093757 -0.546875,1.3125 -0.656258,0.14584 -1.057299,-0.07291 -1.203125,-0.65625 C 33.328118,13.104176 32.671869,11.427094 31.796875,9.53125 31.57812,9.0208466 31.687495,8.6198054 32.125,8.328125 z"
     style="font-size:28px;font-variant:normal;font-stretch:normal;fill:#f2f2f2;font-family:HGMaruGothicMPRO;-inkscape-font-specification:HGMaruGothicMPRO"
     id="path3435" /><path
     d="m 64.0625,0.125 c 0.65624,2.22e-5 0.984364,0.36460517 0.984375,1.09375 l 0,7.21875 c 3.499986,0.6562632 6.307275,1.3125126 8.421875,1.96875 1.822896,0.510428 3.499977,1.093761 5.03125,1.75 0.656225,0.364593 0.874975,0.911468 0.65625,1.640625 -0.291691,0.583341 -0.802107,0.765633 -1.53125,0.546875 -4.083352,-1.822907 -8.276057,-3.171864 -12.578125,-4.046875 l 0,13.015625 c -1.1e-5,0.729165 -0.328135,1.093748 -0.984375,1.09375 -0.656259,-2e-6 -0.984384,-0.364585 -0.984375,-1.09375 l 0,-22.09375 C 63.078116,0.48960517 63.406241,0.1250222 64.0625,0.125 z"
     style="font-size:28px;font-variant:normal;font-stretch:normal;fill:#f2f2f2;font-family:HGMaruGothicMPRO;-inkscape-font-specification:HGMaruGothicMPRO"
     id="path3437" /><path
     d="m 95.5625,4.390625 0,-3.171875 c -1.3e-5,-0.72914483 0.328112,-1.0937278 0.984375,-1.09375 0.656235,2.22e-5 0.98436,0.36460517 0.984375,1.09375 l 0,3.171875 9.95313,0 c 0.72914,1.79e-5 1.09372,0.3281426 1.09375,0.984375 -3e-5,0.6562663 -0.36461,0.984391 -1.09375,0.984375 l -9.95313,0 0,16.734375 c -1.5e-5,0.729165 -0.32814,1.093748 -0.984375,1.09375 -0.656263,-2e-6 -0.984388,-0.364585 -0.984375,-1.09375 l 0,-16.734375 -9.84375,0 C 84.989581,6.359391 84.624998,6.0312663 84.625,5.375 c -2e-6,-0.6562324 0.364581,-0.9843571 1.09375,-0.984375 z m 6.5625,4.703125 c 0.43748,-0.2187365 0.87498,-0.072903 1.3125,0.4375 2.11456,2.916677 3.8281,6.453131 5.14063,10.609375 0.1458,0.802085 -0.14586,1.312501 -0.875,1.53125 -0.7292,0.145834 -1.23961,-0.145833 -1.53125,-0.875 -1.23961,-4.156244 -2.69794,-7.692699 -4.375,-10.609375 -0.21877,-0.510404 -0.1094,-0.874987 0.32812,-1.09375 z m -11.921875,0 c 0.729158,0.1458464 1.020825,0.583346 0.875,1.3125 -1.020841,4.010425 -2.552089,7.619796 -4.59375,10.828125 -0.364587,0.583334 -0.875003,0.802084 -1.53125,0.65625 -0.437502,-0.291666 -0.546877,-0.729166 -0.328125,-1.3125 1.968746,-3.427078 3.390619,-6.963533 4.265625,-10.609375 0.218743,-0.656237 0.656243,-0.9479034 1.3125,-0.875 z M 105.73438,-0.3125 c -0.14586,-0.36456033 -0.1094,-0.61976841 0.10937,-0.765625 0.36456,-0.2187264 0.69268,-0.1822681 0.98438,0.109375 0.80205,1.0937722 1.42184,2.1146045 1.85937,3.0625 0.21872,0.4375198 0.14581,0.8021028 -0.21875,1.09375 -0.43753,0.1458523 -0.76565,1.91e-5 -0.98437,-0.4375 -0.51045,-1.0208127 -1.09378,-2.04164505 -1.75,-3.0625 z m -3.0625,0.4375 c -0.14586,-0.29164417 -0.1094,-0.58331055 0.10937,-0.875 0.36456,-0.14581011 0.65623,-0.10935181 0.875,0.109375 0.72914,0.87502209 1.38539,1.9323127 1.96875,3.171875 0.21873,0.4375194 0.14581,0.8021023 -0.21875,1.09375 -0.43752,0.1458519 -0.76565,1.87e-5 -0.98437,-0.4375 -0.43753,-0.9478966 -1.02086,-1.9687289 -1.75,-3.0625 z"
     style="font-size:28px;font-variant:normal;font-stretch:normal;fill:#f2f2f2;font-family:HGMaruGothicMPRO;-inkscape-font-specification:HGMaruGothicMPRO"
     id="path3439" /><path
     d="m 120.0625,0.125 c 0.65624,2.22e-5 0.98436,0.36460517 0.98438,1.09375 l 0,7.21875 c 3.49998,0.6562632 6.30727,1.3125126 8.42187,1.96875 1.8229,0.510428 3.49998,1.093761 5.03125,1.75 0.65623,0.364593 0.87498,0.911468 0.65625,1.640625 -0.29169,0.583341 -0.80211,0.765633 -1.53125,0.546875 -4.08335,-1.822907 -8.27606,-3.171864 -12.57812,-4.046875 l 0,13.015625 c -2e-5,0.729165 -0.32814,1.093748 -0.98438,1.09375 -0.65626,-2e-6 -0.98438,-0.364585 -0.98437,-1.09375 l 0,-22.09375 c -1e-5,-0.72914483 0.32811,-1.0937278 0.98437,-1.09375 z"
     style="font-size:28px;font-variant:normal;font-stretch:normal;fill:#f2f2f2;font-family:HGMaruGothicMPRO;-inkscape-font-specification:HGMaruGothicMPRO"
     id="path3441" /><path
     d="m 152.32812,2.421875 c -1e-5,-0.729146 0.32812,-1.093729 0.98438,-1.09375 0.65623,2.1e-5 0.98436,0.364604 0.98437,1.09375 l 0,17.5 c -1e-5,0.802085 0.40103,1.203126 1.20313,1.203125 1.16665,1e-6 2.55206,-0.802081 4.15625,-2.40625 1.74998,-1.749995 2.98956,-4.010409 3.71875,-6.78125 0.14581,-0.510406 0.51039,-0.729156 1.09375,-0.65625 0.58331,0.145844 0.80206,0.546886 0.65625,1.203125 -0.72919,3.062507 -2.15107,5.651046 -4.26563,7.765625 -2.18752,2.1875 -4.26564,3.281249 -6.23437,3.28125 -1.53126,-1e-6 -2.29689,-0.875 -2.29688,-2.625 z m -6.23437,-0.4375 c 0.65624,2.03e-5 0.98437,0.328145 0.98437,0.984375 l 0,6.234375 c 0,5.687507 -1.82292,10.354169 -5.46875,14 -0.36458,0.364582 -0.80208,0.40104 -1.3125,0.109375 -0.36458,-0.437501 -0.36458,-0.875 0,-1.3125 3.20833,-3.42708 4.8125,-7.656242 4.8125,-12.6875 l 0,-6.34375 c 0,-0.65623 0.32812,-0.9843547 0.98438,-0.984375 z"
     style="font-size:28px;font-variant:normal;font-stretch:normal;fill:#f2f2f2;font-family:HGMaruGothicMPRO;-inkscape-font-specification:HGMaruGothicMPRO"
     id="path3443" /></g></svg>
