<?xml version="1.0" encoding="UTF-8" standalone="no"?>
<!-- Generator: Adobe Illustrator 16.0.4, SVG Export Plug-In . SVG Version: 6.00 Build 0)  -->

<svg
   xmlns:dc="http://purl.org/dc/elements/1.1/"
   xmlns:cc="http://creativecommons.org/ns#"
   xmlns:rdf="http://www.w3.org/1999/02/22-rdf-syntax-ns#"
   xmlns:svg="http://www.w3.org/2000/svg"
   xmlns="http://www.w3.org/2000/svg"
   xmlns:sodipodi="http://sodipodi.sourceforge.net/DTD/sodipodi-0.dtd"
   xmlns:inkscape="http://www.inkscape.org/namespaces/inkscape"
   version="1.1"
   id="レイヤー_1"
   x="0px"
   y="0px"
   width="97"
   height="23"
   viewBox="0 0 97 23"
   enable-background="new 0 0 120 23"
   xml:space="preserve"
   inkscape:version="0.48.5 r10040"
   sodipodi:docname="petto.svg"><metadata
   id="metadata4427"><rdf:RDF><cc:Work
       rdf:about=""><dc:format>image/svg+xml</dc:format><dc:type
         rdf:resource="http://purl.org/dc/dcmitype/StillImage" /></cc:Work></rdf:RDF></metadata><defs
   id="defs4425" /><sodipodi:namedview
   pagecolor="#ffffff"
   bordercolor="#666666"
   borderopacity="1"
   objecttolerance="10"
   gridtolerance="10"
   guidetolerance="10"
   inkscape:pageopacity="0"
   inkscape:pageshadow="2"
   inkscape:window-width="1366"
   inkscape:window-height="706"
   id="namedview4423"
   showgrid="false"
   inkscape:zoom="5.075"
   inkscape:cx="116.41854"
   inkscape:cy="16.507389"
   inkscape:window-x="-8"
   inkscape:window-y="-8"
   inkscape:window-maximized="1"
   inkscape:current-layer="レイヤー_1" />





<text
   xml:space="preserve"
   style="font-size:13.42425632px;font-style:normal;font-weight:normal;line-height:125%;letter-spacing:0px;word-spacing:0px;fill:#f6f6f6;fill-opacity:1;stroke:none;font-family:Sans"
   x="6.7928081"
   y="12.422898"
   id="text4429"
   sodipodi:linespacing="125%"
   transform="scale(0.7536626,1.3268537)"><tspan
     sodipodi:role="line"
     x="6.7928081"
     y="12.422898"
     id="tspan4433"
     style="font-size:13px" /></text>

<flowRoot
   xml:space="preserve"
   id="flowRoot4945"
   style="font-size:11px;font-style:normal;font-weight:normal;line-height:125%;letter-spacing:0px;word-spacing:0px;fill:#000000;fill-opacity:1;stroke:none;font-family:Sans"><flowRegion
     id="flowRegion4947"><rect
       id="rect4949"
       width="392.31528"
       height="103.64532"
       x="32.118225"
       y="-121.23645" /></flowRegion><flowPara
     id="flowPara4951" /></flowRoot><path
   style="fill:#f6f6f6;fill-opacity:1;stroke:#f4f4f4;stroke-opacity:1"
   d="m 1.3793104,17.482759 1.37931,-2.561577 3.15271,-7.6847288 1.970443,-2.955665 4.7290636,4.3349753 4.729064,6.1083745 3.743842,4.137931 1.576355,1.970443 -3.152709,-0.197044 0,-0.985222 -11.0344826,-13.3990145 -3.152709,5.9113305 -2.167488,5.91133 z"
   id="path4981"
   inkscape:connector-curvature="0" /><path
   style="fill:#f6f6f6;fill-opacity:1;stroke:#f4f4f4;stroke-opacity:1"
   d="m 12.610837,3.4926108 0.591133,3.1527094 2.758621,1.5763547 2.561576,0.7881773 1.37931,-2.1674877 -0.197044,-2.7586207 -3.349754,-2.5615763 -3.152709,0.591133 0.985222,0.591133 1.773399,-0.7881773 1.182266,1.3793103 1.37931,0.591133 0.197044,1.182266 -0.788177,2.5615764 -1.970443,0 -2.364532,-1.3793104 0,-1.5763547 0.197044,-2.1674876 z"
   id="path4985"
   inkscape:connector-curvature="0" /><path
   style="fill:#f6f6f6;fill-opacity:1;stroke:#f4f4f4;stroke-opacity:1"
   d="m 22.266009,10.586207 c 0,0.985222 2.167493,3.349754 2.167493,3.349754 z"
   id="path4987"
   inkscape:connector-curvature="0" /><path
   style="fill:#f6f6f6;fill-opacity:1;stroke:#f4f4f4;stroke-opacity:1"
   d="m 26.206892,9.9950739 0.78818,3.5467981 -0.59113,-0.197044 z"
   id="path4989"
   inkscape:connector-curvature="0" /><path
   style="fill:#f6f6f6;fill-opacity:1;stroke:#f4f4f4;stroke-opacity:1"
   d="m 29.753692,10.783251 -0.78818,3.743843 -3.34975,4.137931 4.13793,-3.546798 2.16749,-3.940887 z"
   id="path4991"
   inkscape:connector-curvature="0" /><path
   style="fill:#f6f6f6;fill-opacity:1;stroke:#f4f4f4;stroke-opacity:1"
   d="m 33.300492,3.2955665 2.56158,17.3399015 1.7734,0.591133 0.98522,-1.970443 -1.37931,-0.591133 z"
   id="path4993"
   inkscape:connector-curvature="0" /><path
   style="fill:#f6f6f6;fill-opacity:1;stroke:#f4f4f4;stroke-opacity:1"
   d="m 35.665022,10.389163 8.867,2.955665 -1.57636,3.349753 -8.27586,-6.6995071 z"
   id="path4995"
   inkscape:connector-curvature="0" /><path
   style="fill:#f6f6f6;fill-opacity:1;stroke:#f4f4f4;stroke-opacity:1"
   d="m 47.684732,7.2364532 5.32019,-1.182266 4.72907,-0.7881773 2.75862,-1.5763547 1.7734,2.364532 -0.59114,1.182266 -3.94088,-0.9852217 -9.45813,2.7586207 z"
   id="path4997"
   inkscape:connector-curvature="0" /><path
   style="fill:#f6f6f6;fill-opacity:1;stroke:#f4f4f4;stroke-opacity:1"
   d="m 51.034482,2.1133005 4.53202,16.1576355 2.95567,1.576355 0.19704,-3.15271 -1.57636,-0.197044 z"
   id="path4999"
   inkscape:connector-curvature="0" /><path
   style="fill:#f6f6f6;fill-opacity:1;stroke:#f4f4f4;stroke-opacity:1"
   d="m 49.458132,13.147783 -2.95567,6.699508 1.97044,0.394088 1.57636,-5.123152 z"
   id="path5001"
   inkscape:connector-curvature="0" /><path
   style="fill:#f6f6f6;fill-opacity:1;stroke:#f4f4f4;stroke-opacity:1"
   d="m 58.719212,13.541872 3.74384,5.714286 0.19705,-5.123153 z"
   id="path5003"
   inkscape:connector-curvature="0" /><path
   style="fill:#f6f6f6;fill-opacity:1;stroke:#f4f4f4;stroke-opacity:1"
   d="m 59.704432,1.5221675 5.12315,5.5172414 0.19705,-0.3940887 -4.33498,-4.729064 z"
   id="path5005"
   inkscape:connector-curvature="0" /><path
   style="fill:#f6f6f6;fill-opacity:1;stroke:#f4f4f4;stroke-opacity:1"
   d="m 63.842362,2.5073892 2.95567,4.9261083 0.78817,-0.3940886 -2.75862,-4.5320197 z"
   id="path5007"
   inkscape:connector-curvature="0" /><path
   style="fill:#f6f6f6;fill-opacity:1;stroke:#f4f4f4;stroke-opacity:1"
   d="m 69.162562,1.9162562 0.59113,18.5221678 1.57636,1.970443 0.78817,-3.743842 -1.77339,-2.758621 -0.39409,-12.8078818 z"
   id="path5009"
   inkscape:connector-curvature="0" /><path
   style="fill:#f6f6f6;fill-opacity:1;stroke:#f4f4f4;stroke-opacity:1"
   d="m 69.753692,12.359606 6.30542,3.940887 -1.7734,-5.714286 z"
   id="path5011"
   inkscape:connector-curvature="0" /><path
   style="fill:#f6f6f6;fill-opacity:1;stroke:#f4f4f4;stroke-opacity:1"
   d="m 79.211822,3.2955665 0,3.9408867 0.19704,7.0935958 -0.39408,4.137931 -1.18227,1.970444 -2.56158,1.37931 -0.39409,0.197044 3.94089,-1.182266 1.57636,-2.167487 -0.19705,-6.502463 0,-5.1231531 0,-2.7586207 z"
   id="path5013"
   inkscape:connector-curvature="0" /><path
   style="fill:#f6f6f6;fill-opacity:1;stroke:#f4f4f4;stroke-opacity:1"
   d="m 84.137932,3.8866995 c 0,0 -0.39409,7.8817735 -0.19705,9.0640395 0.19705,1.182266 0.78818,3.546798 0.78818,3.546798 l 0.39409,5.123153 4.92611,-2.561577 2.16749,-2.364532 0.19704,-3.940886 -1.18227,-2.364532 0,1.970443 -0.39408,2.955665 -3.15271,3.349754 -1.7734,0.788177 -0.19705,-5.517241 -0.19704,-4.7290644 -0.19705,-2.9556651 0.19705,-1.3793103 z"
   id="path5015"
   inkscape:connector-curvature="0" /></svg>
